<svg width="258" height="184" viewBox="0 0 258 184" fill="none" xmlns="http://www.w3.org/2000/svg" xmlns:xlink="http://www.w3.org/1999/xlink">
<path d="M112.531,162.206C112.59,165.439 108.935,168.848 105.047,169.033C105.567,171.534 106.204,173.974 105.164,176.529C103.655,180.554 99.598,182.748 95.592,182.201C89.154,181.285 87.411,171.957 93.621,169.156C95.826,168.179 99.129,170.434 96.697,172.689C95.364,173.966 93.16,174.336 94.141,177.014C94.72,178.476 96.287,178.784 97.562,178.538C99.766,178.114 100.982,176.16 101.099,173.966C101.392,172.073 100.696,170.126 100.227,168.171C97.327,166.709 95.123,163.353 95.936,159.944C96.573,156.957 100.11,158.174 98.719,160.067C98.082,161.344 99.012,163.176 100.052,164.153C100.345,162.753 100.806,161.414 101.56,160.128C104.468,155.441 112.414,155.195 112.531,162.206ZM108.181,160.013C105.625,159.528 104.585,163.061 104.527,164.954C104.527,165.077 104.527,165.2 104.527,165.323C105.398,165.2 106.27,164.9 106.965,164.407C108.76,163.122 110.1,160.682 108.181,160.013Z" fill="#767676"/>
<path d="M120.135,161.66C119.556,162.391 118.45,163.853 117.234,165.685C117.637,165.685 117.989,165.747 118.165,165.747C119.095,165.808 118.106,168.371 117.007,168.371C116.605,168.371 116.019,168.31 115.44,168.31C112.716,172.396 109.991,176.783 110.394,177.153C111.148,178.007 114.803,173.682 116.312,171.85C117.359,170.634 118.692,172.035 117.586,173.312C114.979,176.175 111.09,181.786 107.955,181.178C105.634,180.809 104.703,178.069 106.622,175.329C107.435,174.113 109.178,171.18 110.973,168.194C110.68,168.194 110.394,168.194 110.101,168.194C109.054,168.194 110.16,165.57 111.207,165.508C111.5,165.508 112.02,165.508 112.599,165.508C114.451,162.46 116.077,159.836 116.605,159.351C117.535,158.435 118.633,157.704 119.563,157.95C120.479,158.243 121.87,159.589 120.135,161.66Z" fill="#767676"/>
<path d="M132.488,173.366C129.932,176.229 126.109,181.778 122.974,181.232C121.817,180.985 121.348,179.892 121.466,178.545C120.477,179.7 119.144,180.739 117.694,180.739C112.882,180.739 114.274,174.336 117.115,170.864C119.957,167.386 123.553,164.954 125.816,165.923C126.57,166.231 127.032,166.839 127.266,167.509C127.383,167.324 127.442,167.201 127.559,167.085C128.489,166.17 129.646,165.438 130.518,165.746C131.507,165.993 132.839,167.393 131.155,169.464C129.185,171.78 125.472,176.414 126.05,177.022C126.57,177.568 129.822,173.666 131.331,171.842C132.371,170.618 133.587,172.142 132.488,173.366ZM122.799,173.366C124.6,171.049 125.699,169.102 125.296,168.733C124.952,168.363 123.15,170.072 121.18,172.573C119.269,175.013 118.28,177.391 118.514,177.63C119.027,178.176 120.997,175.682 122.799,173.366Z" fill="#767676"/>
<path d="M142.7,161.66C142.122,162.391 141.016,163.853 139.8,165.685C140.203,165.685 140.554,165.747 140.73,165.747C141.66,165.808 140.671,168.371 139.573,168.371C139.17,168.371 138.584,168.31 138.006,168.31C135.281,172.396 132.557,176.783 132.96,177.153C133.714,178.007 137.368,173.682 138.877,171.85C139.924,170.634 141.257,172.035 140.151,173.312C137.544,176.175 133.655,181.786 130.521,181.178C128.199,180.809 127.269,178.069 129.188,175.329C130.001,174.113 131.744,171.18 133.538,168.194C133.245,168.194 132.959,168.194 132.667,168.194C131.619,168.194 132.725,165.57 133.772,165.508C134.065,165.508 134.585,165.508 135.164,165.508C137.017,162.46 138.643,159.836 139.17,159.351C140.1,158.435 141.199,157.704 142.129,157.95C143.044,158.243 144.436,159.589 142.7,161.66Z" fill="#767676"/>
<path d="M146.988,173.366C144.373,176.229 140.609,181.778 137.416,181.232C135.152,180.808 134.918,178.061 136.778,175.321C138.748,172.519 140.953,168.186 142,167.093C142.93,166.178 144.088,165.446 144.959,165.754C145.948,166.001 147.339,167.401 145.596,169.472C143.626,171.788 139.913,176.421 140.492,177.029C141.012,177.576 144.322,173.674 145.831,171.85C146.812,170.618 148.086,172.142 146.988,173.366ZM147.105,164.1C144.322,164.1 147.046,157.635 150.24,158.366C153.191,159.035 149.309,164.831 147.105,164.1Z" fill="#767676"/>
<path d="M160.913,173.366C160.042,174.282 159.119,175.498 158.13,176.66C155.926,179.161 155.23,180.077 153.084,179.646C152.733,179.584 152.506,179.461 152.271,179.277C150.88,180.316 149.488,180.862 148.324,180.862C144.376,180.862 143.102,176.652 145.482,172.45C147.862,168.186 151.744,165.438 154.534,165.438C157.493,165.438 159.756,168.001 157.434,172.812C156.68,174.336 155.809,175.675 154.878,176.837C155.281,176.652 155.977,176.106 156.68,175.313C157.779,174.151 158.943,172.75 159.697,171.834C160.737,170.618 162.012,172.142 160.913,173.366ZM154.358,169.033C152.674,169.033 146.991,177.445 148.617,177.445C149.832,177.445 156.043,169.033 154.358,169.033Z" fill="#767676"/>
<path d="M174.482,173.366C171.874,176.229 168.103,181.778 164.909,181.232C161.716,180.624 162.529,177.391 164.448,174.651C166.301,171.911 168.681,169.833 168.278,169.287C167.927,168.741 164.448,172.458 163.349,173.674C162.075,175.683 160.793,177.637 159.988,178.792C158.772,180.562 158.245,181.232 156.853,181.232C154.707,181.232 155.286,178.245 157.9,174.651C159.812,171.911 161.496,169.041 161.789,168.433C162.661,166.601 162.947,165.693 164.17,165.693C165.1,165.693 166.257,166.424 166.433,167.702C167.824,166.547 169.274,165.693 170.724,165.693C172.116,165.693 174.086,167.401 172.233,170.203C170.38,173.004 167.421,176.421 168,177.029C168.52,177.576 171.772,173.674 173.28,171.85C174.306,170.618 175.587,172.142 174.482,173.366Z" fill="#767676"/>
<path d="M25.628,85.62L27.62,89.514C30.359,94.871 28.44,101.606 23.402,104.453L18.942,106.978L28.008,124.68C28.448,125.534 28.148,126.558 27.342,127.019L23.292,129.313C22.479,129.775 21.505,129.459 21.065,128.613L0.808,89.076C0.368,88.221 0.669,87.198 1.474,86.736L11.427,81.102C16.473,78.247 22.889,80.271 25.628,85.62ZM18.524,89.245C17.836,87.906 16.298,87.367 15.023,88.091L10.563,90.615L15.177,99.62L19.637,97.096C20.912,96.372 21.336,94.725 20.677,93.447L18.524,89.245Z" fill="#767676"/>
<path d="M38.941,76.831L42.325,86.49L47.752,84.389C48.616,84.058 49.546,84.504 49.861,85.412L51.267,89.43C51.582,90.338 51.157,91.316 50.293,91.646L44.866,93.748L49.656,107.424L58.232,104.107C59.096,103.776 60.027,104.222 60.341,105.13L61.792,109.279C62.107,110.187 61.682,111.164 60.818,111.495L46.317,117.106C45.452,117.437 44.522,116.991 44.207,116.082L29.443,73.945C29.128,73.037 29.552,72.059 30.417,71.728L44.91,66.118C45.775,65.787 46.705,66.233 47.02,67.141L48.47,71.29C48.785,72.198 48.36,73.175 47.496,73.506L38.941,76.831Z" fill="#767676"/>
<path d="M75.108,59.391L76.155,63.817C76.375,64.756 75.782,65.695 74.954,65.91L69.469,67.342L78.316,104.823C78.536,105.762 78.008,106.685 77.115,106.916L72.647,108.079C71.82,108.294 70.875,107.755 70.655,106.816L61.808,69.335L56.381,70.751C55.488,70.982 54.609,70.428 54.389,69.489L53.342,65.064C53.122,64.125 53.649,63.201 54.543,62.97L73.109,58.129C73.951,57.914 74.888,58.453 75.108,59.391Z" fill="#767676"/>
<path d="M101.983,79.356L109.366,89.992C109.783,90.631 110.018,91.431 110.12,92.186L111.028,99.028C111.153,99.982 110.603,100.836 109.695,100.967L105.14,101.637C104.232,101.768 103.346,101.129 103.221,100.174L102.584,95.387C102.481,94.633 102.254,93.902 101.822,93.125L93.056,80.595L95.802,101.329C95.927,102.283 95.311,103.145 94.403,103.276L89.848,103.946C88.998,104.069 88.119,103.43 87.995,102.476L82.092,57.999C81.967,57.044 82.648,56.175 83.491,56.052L94.755,54.405C100.482,53.566 105.762,57.814 106.561,63.832L107.132,68.142C107.747,72.791 105.543,77.162 101.983,79.356ZM95.795,62.27L90.719,63.017L92.074,73.214L97.15,72.468C98.519,72.268 99.523,70.867 99.317,69.289L98.688,64.571C98.49,63.063 97.164,62.07 95.795,62.27Z" fill="#767676"/>
<path d="M137.023,60.276L138.012,90.87C138.173,95.772 134.489,99.844 129.89,100.005L122.661,100.259C117.996,100.429 114.122,96.627 113.968,91.724L112.979,61.131C112.818,56.228 116.436,52.087 121.101,51.926L128.33,51.672C132.922,51.51 136.862,55.382 137.023,60.276ZM129.158,61.254C129.128,60.284 128.315,59.622 127.392,59.661L122.53,59.838C121.607,59.869 120.845,60.592 120.874,61.554L121.812,90.554C121.841,91.524 122.661,92.324 123.577,92.286L128.44,92.109C129.363,92.078 130.124,91.216 130.088,90.254L129.158,61.254Z" fill="#767676"/>
<path d="M153.004,53.849L150.865,92.538L160.049,93.1C160.965,93.154 161.646,93.962 161.595,94.924L161.353,99.334C161.302,100.296 160.533,101.012 159.617,100.958L144.193,100.019C143.278,99.965 142.597,99.157 142.648,98.195L145.123,53.371C145.175,52.409 145.944,51.694 146.859,51.747L151.451,52.025C152.374,52.086 153.055,52.887 153.004,53.849Z" fill="#767676"/>
<path d="M177.298,62.517L175.899,72.706L181.626,73.576C182.534,73.715 183.149,74.577 183.018,75.531L182.439,79.772C182.307,80.726 181.487,81.372 180.579,81.234L174.852,80.364L172.874,94.795L181.919,96.165C182.827,96.303 183.442,97.165 183.311,98.119L182.71,102.499C182.578,103.453 181.758,104.099 180.85,103.961L165.558,101.644C164.65,101.506 164.034,100.644 164.166,99.69L170.26,55.244C170.391,54.289 171.212,53.643 172.12,53.781L187.412,56.098C188.32,56.236 188.935,57.098 188.803,58.053L188.203,62.432C188.071,63.386 187.251,64.033 186.343,63.894L177.298,62.517Z" fill="#767676"/>
<path d="M214.507,62.516L218.967,63.709C219.861,63.947 220.366,64.94 220.139,65.879L211.263,102.429C210.127,107.117 205.484,110.003 201.031,108.81L194.022,106.932C189.562,105.739 186.809,100.859 187.951,96.18L196.827,59.63C197.054,58.691 197.948,58.075 198.841,58.314L203.302,59.507C204.195,59.745 204.701,60.738 204.473,61.677L195.787,97.427C195.56,98.366 196.146,99.305 197.04,99.543L201.756,100.806C202.65,101.044 203.595,100.513 203.822,99.574L212.508,63.824C212.72,62.893 213.614,62.277 214.507,62.516Z" fill="#767676"/>
<path d="M246.244,118.261L243.863,124.18C243.497,125.065 242.486,125.435 241.703,125.073L237.484,123.141C236.642,122.756 236.269,121.756 236.635,120.871L238.678,115.929C238.839,115.552 238.964,115.229 239.066,114.829L245.152,93.733L234.694,111.55C234.262,112.258 233.42,112.551 232.695,112.22L228.11,110.126C227.385,109.795 226.96,108.926 227.15,108.11L232.431,87.922L221.885,106.978C221.665,107.333 221.533,107.648 221.379,108.025L219.336,112.966C218.97,113.851 218.018,114.244 217.175,113.859L212.957,111.927C212.115,111.542 211.741,110.542 212.107,109.657L214.605,103.792C214.685,103.6 214.868,103.161 215.139,102.676L234.203,70.49C234.635,69.782 235.478,69.489 236.261,69.851L240.78,71.921C241.564,72.283 241.93,73.122 241.739,73.938L235.8,97.966L248.551,77.047C248.983,76.339 249.825,76.046 250.55,76.377L255.135,78.471C255.918,78.833 256.284,79.671 256.094,80.487L246.676,117.084C246.507,117.623 246.324,118.069 246.244,118.261Z" fill="#767676"/>
<path d="M133.577,114.683C133.548,114.683 133.511,114.683 133.482,114.683C133.467,114.683 133.452,114.683 133.43,114.683C133.416,114.683 133.401,114.683 133.379,114.683C133.35,114.683 133.313,114.683 133.284,114.683C86.829,114.683 45.809,128.367 21.054,149.285L32.758,155.419L34.171,169.665C38.331,165.763 43.399,162.007 49.346,158.498C71.442,145.437 101.25,138.241 133.277,138.241C133.306,138.241 133.342,138.241 133.372,138.241C133.386,138.241 133.401,138.241 133.423,138.241C133.438,138.241 133.452,138.241 133.474,138.241C133.504,138.241 133.54,138.241 133.57,138.241C165.604,138.241 195.412,145.437 217.5,158.498C223.446,162.015 228.514,165.763 232.674,169.665L234.088,155.419L245.792,149.285C221.052,128.367 180.032,114.683 133.577,114.683Z" fill="#767676"/>
<path d="M83.52,174.967C85.973,174.967 85.973,170.973 83.52,170.973C81.067,170.973 81.067,174.967 83.52,174.967Z" fill="#767676"/>
<path d="M180.567,174.967C183.021,174.967 183.021,170.973 180.567,170.973C178.114,170.973 178.114,174.967 180.567,174.967Z" fill="#767676"/>
<path d="M47.042,148.299C47.723,149.492 47.357,151.031 46.221,151.747C45.101,152.455 43.621,152.078 42.94,150.885C42.267,149.708 42.64,148.145 43.761,147.437C44.896,146.722 46.368,147.122 47.042,148.299Z" fill="#FFFFFF"/>
<path d="M59.281,143.274L60.146,145.206C60.79,146.645 60.212,148.369 58.842,149.054L55.883,150.516C55.663,150.624 55.414,150.532 55.312,150.301L50.544,139.664C50.442,139.433 50.529,139.171 50.749,139.064L53.459,137.724C54.829,137.047 56.462,137.678 57.106,139.118L57.582,140.18C57.824,140.718 57.905,141.28 57.809,141.827C58.447,142.081 58.974,142.581 59.281,143.274ZM54.162,142.627L55.392,142.019C55.722,141.858 55.868,141.427 55.715,141.08L55.209,139.949C55.048,139.587 54.638,139.433 54.309,139.595L53.078,140.203L54.162,142.627ZM57.37,144.097C57.209,143.736 56.799,143.582 56.469,143.743L54.99,144.474L56.513,147.876L57.992,147.145C58.322,146.983 58.468,146.552 58.3,146.175L57.37,144.097Z" fill="#FFFFFF"/>
<path d="M61.074,136.462L62.04,138.964L63.447,138.363C63.674,138.271 63.915,138.379 64.011,138.61L64.413,139.649C64.501,139.887 64.399,140.141 64.179,140.241L62.773,140.842L64.135,144.382L66.354,143.435C66.574,143.343 66.823,143.451 66.911,143.681L67.328,144.751C67.416,144.99 67.314,145.244 67.094,145.344L63.344,146.937C63.117,147.029 62.875,146.922 62.78,146.691L58.576,135.793C58.488,135.562 58.591,135.3 58.811,135.2L62.56,133.607C62.78,133.515 63.029,133.623 63.117,133.853L63.527,134.923C63.615,135.154 63.513,135.416 63.293,135.516L61.074,136.462Z" fill="#FFFFFF"/>
<path d="M69.973,134.184L69.856,133.822C69.731,133.445 69.343,133.26 68.984,133.391L68.237,133.668C67.878,133.799 67.68,134.199 67.805,134.577L68.149,135.616C68.274,135.993 68.662,136.177 69.028,136.062L69.775,135.785C71.225,135.254 72.778,136.047 73.283,137.57L73.979,139.671C74.477,141.172 73.715,142.835 72.287,143.358L71.54,143.635C70.112,144.158 68.53,143.358 68.032,141.85L67.57,140.449C67.49,140.21 67.607,139.956 67.834,139.872L68.969,139.456C69.196,139.371 69.438,139.494 69.519,139.733L70.009,141.218C70.134,141.596 70.529,141.796 70.888,141.665L71.635,141.388C71.994,141.257 72.184,140.841 72.06,140.464L71.32,138.24C71.196,137.863 70.808,137.678 70.449,137.809L69.702,138.086C68.266,138.594 66.699,137.824 66.201,136.324L65.879,135.346C65.381,133.845 66.142,132.183 67.57,131.66L68.318,131.383C69.768,130.852 71.328,131.66 71.826,133.168L71.921,133.461C72.001,133.699 71.884,133.953 71.657,134.038L70.522,134.453C70.295,134.546 70.053,134.423 69.973,134.184Z" fill="#FFFFFF"/>
<path d="M78.498,128.52L78.821,129.667C78.887,129.913 78.747,130.16 78.528,130.229L77.107,130.667L79.839,140.364C79.905,140.611 79.78,140.857 79.546,140.926L78.389,141.288C78.176,141.357 77.92,141.226 77.854,140.98L75.122,131.283L73.723,131.722C73.489,131.791 73.255,131.66 73.189,131.414L72.866,130.267C72.801,130.021 72.925,129.775 73.159,129.705L77.964,128.212C78.183,128.151 78.432,128.274 78.498,128.52Z" fill="#FFFFFF"/>
<path d="M92.139,135.462L92.813,135.308C93.011,135.262 93.26,135.408 93.311,135.654L93.553,136.801C93.604,137.047 93.443,137.286 93.209,137.348L89.884,138.125C88.573,138.433 87.276,137.563 86.991,136.201L85.431,128.804C85.138,127.426 85.965,126.064 87.276,125.764L88.69,125.433C90.001,125.125 91.297,125.995 91.583,127.373L92.864,133.468C93.026,134.238 92.718,135.015 92.139,135.462ZM89.561,127.834C89.51,127.588 89.261,127.419 89.027,127.48L87.782,127.773C87.547,127.827 87.386,128.088 87.445,128.335L89.005,135.739C89.056,135.97 89.298,136.131 89.532,136.078L91.209,135.685L89.561,127.834Z" fill="#FFFFFF"/>
<path d="M98.094,123.532L99.281,123.317C99.515,123.27 99.742,123.455 99.779,123.702L101.397,133.43C101.603,134.677 100.79,135.893 99.603,136.109L97.736,136.447C96.549,136.663 95.392,135.808 95.187,134.562L93.568,124.833C93.524,124.587 93.678,124.333 93.913,124.294L95.099,124.079C95.333,124.032 95.56,124.217 95.597,124.463L97.179,133.977C97.223,134.223 97.457,134.384 97.692,134.338L98.944,134.107C99.178,134.061 99.354,133.83 99.31,133.584L97.728,124.071C97.706,123.825 97.86,123.571 98.094,123.532Z" fill="#FFFFFF"/>
<path d="M109.508,132.538L109.706,134.116C109.735,134.37 109.574,134.593 109.332,134.624L108.117,134.793C107.897,134.824 107.685,134.654 107.648,134.401L107.443,132.769L105.158,133.084L105.363,134.716C105.392,134.97 105.231,135.193 104.989,135.224L103.796,135.393C103.554,135.424 103.342,135.255 103.312,135.001L103.115,133.423C103.107,133.354 103.1,133.3 103.1,133.184L103.327,123.079C103.334,122.841 103.503,122.656 103.722,122.625L106.286,122.271C106.505,122.24 106.703,122.417 106.762,122.61L109.457,132.315C109.486,132.415 109.494,132.469 109.508,132.538ZM106.952,130.776L105.253,124.565L105.143,131.022L106.952,130.776Z" fill="#FFFFFF"/>
<path d="M112.286,122.023L113.209,132.129L115.612,131.882C115.853,131.859 116.058,132.036 116.08,132.29L116.183,133.445C116.205,133.699 116.036,133.914 115.795,133.937L111.767,134.345C111.525,134.368 111.32,134.191 111.298,133.937L110.228,122.231C110.207,121.977 110.375,121.762 110.617,121.738L111.818,121.615C112.059,121.592 112.265,121.769 112.286,122.023Z" fill="#FFFFFF"/>
<path d="M119.42,133.661L118.219,133.753C117.978,133.768 117.78,133.584 117.758,133.33L116.974,121.616C116.96,121.362 117.135,121.131 117.37,121.116L118.571,121.023C118.813,121.008 119.018,121.208 119.032,121.462L119.816,133.176C119.838,133.43 119.662,133.645 119.42,133.661Z" fill="#FFFFFF"/>
<path d="M126.767,121.045L126.818,122.238C126.826,122.492 126.628,122.699 126.408,122.707L124.929,122.776L125.346,132.882C125.353,133.136 125.178,133.344 124.936,133.352L123.735,133.405C123.508,133.413 123.295,133.228 123.288,132.974L122.871,122.869L121.406,122.938C121.164,122.946 120.967,122.761 120.959,122.507L120.908,121.314C120.901,121.06 121.076,120.852 121.318,120.845L126.328,120.614C126.54,120.598 126.752,120.791 126.767,121.045Z" fill="#FFFFFF"/>
<path d="M133.324,120.501L134.533,120.485C134.775,120.485 134.965,120.678 134.965,120.932L134.98,122.725C134.98,122.925 134.95,123.125 134.862,123.302L132.717,128.043L132.761,132.706C132.761,132.96 132.577,133.16 132.336,133.16L131.127,133.176C130.886,133.176 130.695,132.983 130.695,132.729L130.651,128.066L128.403,123.364C128.33,123.187 128.278,122.986 128.278,122.786L128.264,120.993C128.264,120.739 128.447,120.539 128.688,120.539L129.897,120.524C130.139,120.524 130.329,120.716 130.329,120.97L130.344,122.348C130.344,122.494 130.38,122.64 130.454,122.763L131.662,125.318L132.826,122.74C132.878,122.617 132.907,122.471 132.907,122.325L132.892,120.947C132.9,120.709 133.083,120.508 133.324,120.501Z" fill="#FFFFFF"/>
<path d="M145.915,127.204C145.856,128.597 144.736,129.667 143.41,129.598C142.099,129.537 141.066,128.359 141.132,126.966C141.191,125.588 142.326,124.502 143.637,124.572C144.963,124.641 145.973,125.834 145.915,127.204Z" fill="#FFFFFF"/>
<path d="M158.729,129.697L158.516,131.821C158.363,133.407 157.015,134.569 155.506,134.4L152.254,134.046C152.013,134.022 151.844,133.799 151.874,133.545L153.038,121.855C153.06,121.601 153.273,121.424 153.514,121.455L156.495,121.778C158.004,121.94 159.088,123.371 158.934,124.956L158.817,126.126C158.758,126.719 158.553,127.242 158.194,127.658C158.604,128.235 158.809,128.943 158.729,129.697ZM156.685,129.366C156.722,128.974 156.451,128.612 156.092,128.574L154.466,128.397L154.093,132.137L155.719,132.314C156.078,132.352 156.422,132.06 156.458,131.652L156.685,129.366ZM154.664,126.365L156.019,126.511C156.378,126.55 156.722,126.257 156.759,125.88L156.883,124.641C156.92,124.248 156.649,123.887 156.29,123.848L154.935,123.702L154.664,126.365Z" fill="#FFFFFF"/>
<path d="M163.486,124.764L163.12,127.435L164.622,127.658C164.863,127.696 165.024,127.92 164.988,128.166L164.834,129.274C164.797,129.528 164.585,129.697 164.351,129.659L162.849,129.436L162.337,133.215L164.702,133.569C164.944,133.607 165.105,133.831 165.068,134.077L164.915,135.224C164.878,135.478 164.666,135.647 164.424,135.609L160.418,135.008C160.176,134.97 160.022,134.747 160.052,134.5L161.634,122.863C161.67,122.609 161.883,122.447 162.124,122.478L166.13,123.078C166.372,123.117 166.526,123.34 166.497,123.586L166.343,124.733C166.306,124.987 166.094,125.149 165.852,125.118L163.486,124.764Z" fill="#FFFFFF"/>
<path d="M172.23,127.427L172.296,127.05C172.362,126.657 172.113,126.296 171.739,126.226L170.963,126.08C170.589,126.011 170.231,126.249 170.165,126.642L169.974,127.727C169.908,128.12 170.157,128.481 170.531,128.566L171.307,128.712C172.816,129.005 173.797,130.498 173.519,132.075L173.138,134.261C172.867,135.831 171.424,136.878 169.938,136.593L169.161,136.447C167.675,136.162 166.671,134.646 166.942,133.084L167.199,131.621C167.242,131.375 167.462,131.213 167.697,131.26L168.883,131.491C169.117,131.537 169.271,131.768 169.227,132.014L168.956,133.561C168.89,133.953 169.139,134.33 169.513,134.4L170.289,134.546C170.663,134.615 171.022,134.353 171.087,133.961L171.49,131.644C171.556,131.252 171.307,130.89 170.934,130.821L170.157,130.675C168.671,130.375 167.667,128.889 167.938,127.327L168.114,126.311C168.385,124.749 169.828,123.694 171.314,123.979L172.091,124.125C173.599,124.41 174.581,125.926 174.303,127.489L174.251,127.789C174.207,128.035 173.988,128.197 173.753,128.15L172.567,127.919C172.34,127.912 172.186,127.681 172.23,127.427Z" fill="#FFFFFF"/>
<path d="M182.239,126.849L181.99,128.011C181.939,128.258 181.697,128.404 181.477,128.35L180.035,128.011L177.925,137.878C177.874,138.124 177.647,138.278 177.413,138.217L176.234,137.94C176.014,137.886 175.853,137.647 175.911,137.401L178.021,127.534L176.592,127.196C176.358,127.142 176.212,126.903 176.27,126.657L176.519,125.495C176.57,125.249 176.797,125.095 177.032,125.156L181.917,126.311C182.129,126.364 182.29,126.603 182.239,126.849Z" fill="#FFFFFF"/>
<path d="M193.941,132.814L193.626,133.923C193.194,135.447 191.649,136.324 190.213,135.87L188.946,135.47L187.511,140.511C187.445,140.758 187.203,140.888 186.976,140.819L185.819,140.457C185.584,140.388 185.46,140.134 185.533,139.895L188.734,128.627C188.8,128.389 189.041,128.25 189.268,128.32L192.103,129.212C193.538,129.667 194.373,131.291 193.941,132.814ZM191.985,132.106C192.095,131.722 191.905,131.329 191.539,131.214L190.272,130.813L189.547,133.376L190.814,133.777C191.18,133.892 191.546,133.669 191.649,133.299L191.985,132.106Z" fill="#FFFFFF"/>
<path d="M198.837,138.664L199.335,142.073C199.357,142.273 199.32,142.489 199.262,142.681L198.69,144.39C198.61,144.628 198.383,144.759 198.156,144.674L197.02,144.251C196.793,144.166 196.662,143.905 196.742,143.666L197.145,142.473C197.211,142.289 197.24,142.089 197.226,141.85L196.625,137.825L194.889,142.997C194.809,143.235 194.567,143.358 194.34,143.274L193.205,142.85C192.992,142.773 192.861,142.512 192.941,142.273L196.669,131.183C196.75,130.944 197.006,130.829 197.218,130.906L200.031,131.945C201.459,132.476 202.198,134.131 201.693,135.631L201.334,136.709C200.931,137.863 199.921,138.602 198.837,138.664ZM199.357,133.907L198.09,133.438L197.233,135.978L198.5,136.447C198.844,136.57 199.24,136.378 199.371,135.985L199.767,134.808C199.899,134.431 199.701,134.031 199.357,133.907Z" fill="#FFFFFF"/>
<path d="M201.611,146.122L200.49,145.652C200.263,145.56 200.161,145.298 200.249,145.067L204.394,134.161C204.482,133.923 204.738,133.8 204.958,133.892L206.078,134.362C206.305,134.454 206.401,134.731 206.313,134.97L202.167,145.876C202.08,146.106 201.838,146.222 201.611,146.122Z" fill="#FFFFFF"/>
<path d="M210.193,143.635L211.291,144.159C211.511,144.266 211.599,144.544 211.497,144.774L210.295,147.576C209.797,148.73 208.494,149.261 207.381,148.738L205.652,147.922C204.554,147.399 204.056,146.014 204.546,144.859L207.688,137.54C208.193,136.37 209.49,135.854 210.603,136.378L212.331,137.193C213.445,137.725 213.935,139.087 213.437,140.257L212.661,142.073C212.566,142.304 212.302,142.419 212.082,142.319L210.984,141.796C210.764,141.688 210.676,141.411 210.779,141.18L211.482,139.549C211.577,139.318 211.467,139.048 211.269,138.948L210.09,138.394C209.871,138.286 209.607,138.379 209.504,138.61L206.538,145.536C206.443,145.767 206.553,146.037 206.773,146.144L207.952,146.699C208.157,146.799 208.421,146.706 208.523,146.475L209.636,143.889C209.717,143.651 209.973,143.535 210.193,143.635Z" fill="#FFFFFF"/>
<path d="M217.458,142.112L216.271,144.505L217.612,145.244C217.824,145.36 217.905,145.629 217.795,145.852L217.297,146.845C217.187,147.068 216.93,147.153 216.718,147.038L215.378,146.299L213.693,149.685L215.817,150.847C216.03,150.963 216.11,151.232 216,151.455L215.488,152.479C215.378,152.702 215.121,152.787 214.909,152.671L211.321,150.701C211.108,150.586 211.028,150.316 211.137,150.093L216.323,139.664C216.432,139.441 216.689,139.357 216.901,139.472L220.49,141.442C220.702,141.558 220.783,141.827 220.673,142.05L220.16,143.074C220.05,143.297 219.794,143.382 219.582,143.266L217.458,142.112Z" fill="#FFFFFF"/>
<path d="M223.845,150.832C223.164,152.025 221.699,152.418 220.564,151.702C219.443,150.994 219.055,149.447 219.736,148.253C220.41,147.076 221.897,146.683 223.017,147.384C224.16,148.1 224.519,149.654 223.845,150.832Z" fill="#FFFFFF"/>
<path d="M138.711,25.412C138.711,32.462 133.269,38.18 126.561,38.18C119.852,38.18 114.41,32.462 114.41,25.412C114.41,18.362 126.561,-0.778 126.561,-0.778C126.561,-0.778 138.711,18.362 138.711,25.412Z" fill="#767676"/>
<path d="M100.958,42.875C96.27,42.875 92.455,38.866 92.455,33.94C92.455,29.438 99.236,18.624 100.013,17.408L100.965,15.915L101.917,17.408C102.693,18.624 109.475,29.438 109.475,33.94C109.46,38.866 105.645,42.875 100.958,42.875ZM100.958,20.271C98.621,24.142 94.732,31.162 94.732,33.94C94.732,37.542 97.523,40.482 100.958,40.482C104.385,40.482 107.183,37.549 107.183,33.94C107.183,31.162 103.294,24.135 100.958,20.271Z" fill="#767676"/>
<path d="M154.888,41.328C150.201,41.328 146.385,37.318 146.385,32.393C146.385,27.89 153.167,17.077 153.943,15.861L154.895,14.368L155.847,15.861C156.624,17.077 163.405,27.89 163.405,32.393C163.391,37.318 159.575,41.328 154.888,41.328ZM154.888,18.724C152.552,22.595 148.663,29.614 148.663,32.393C148.663,36.002 151.453,38.934 154.888,38.934C158.315,38.934 161.113,36.002 161.113,32.393C161.113,29.614 157.224,22.595 154.888,18.724Z" fill="#767676"/>
</svg>
