<svg width="268" height="174" viewBox="0 0 268 174" fill="none" xmlns="http://www.w3.org/2000/svg" xmlns:xlink="http://www.w3.org/1999/xlink">
<path d="M50.514,58.899C50.548,60.358 50.386,61.867 50.02,63.425C49.654,64.984 49.14,66.493 48.483,67.952C47.643,69.795 46.627,71.46 45.435,72.94C44.243,74.421 42.957,75.695 41.568,76.776C40.288,77.737 38.947,78.47 37.539,78.968C36.13,79.467 34.769,79.716 33.455,79.716L33.238,79.716C31.593,79.68 30.109,79.282 28.796,78.534C27.482,77.787 26.385,76.698 25.504,75.275C24.922,76.314 24.407,77.246 23.967,78.072C23.527,78.897 23.161,79.545 22.87,80C20.161,84.648 17.608,88.128 15.19,90.434C13.802,91.7 12.413,92.654 11.018,93.287C9.63,93.921 8.187,94.241 6.684,94.241C4.523,94.241 2.898,93.643 1.801,92.455C0.778,91.302 0.264,89.822 0.264,88.014C0.264,86.441 0.623,84.754 1.334,82.968C2.045,81.182 3.027,79.481 4.266,77.865C5.621,76.1 7.083,74.734 8.655,73.773C10.226,72.812 11.783,72.328 13.314,72.328C14.594,72.328 15.637,72.713 16.443,73.481C17.14,74.172 17.486,75.118 17.486,76.307C17.486,77.303 17.242,78.363 16.748,79.474C16.253,80.591 15.59,81.623 14.743,82.584C13.863,83.587 12.894,84.37 11.838,84.947C10.592,85.601 9.386,85.929 8.214,85.929C7.923,85.929 7.686,85.836 7.503,85.637C7.32,85.445 7.232,85.196 7.232,84.89C7.232,84.584 7.32,84.342 7.503,84.171C7.686,84 7.923,83.915 8.214,83.915C9.095,83.915 9.975,83.687 10.876,83.224C11.77,82.762 12.603,82.093 13.368,81.21C14.025,80.442 14.553,79.616 14.96,78.734C15.359,77.851 15.562,77.047 15.562,76.314C15.562,76.122 15.542,75.908 15.508,75.68C15.474,75.453 15.373,75.239 15.203,75.047C15.041,74.855 14.811,74.691 14.519,74.556C14.228,74.421 13.822,74.357 13.314,74.357C12.068,74.357 10.788,74.769 9.474,75.595C8.16,76.421 6.914,77.602 5.743,79.139C4.645,80.563 3.779,82.057 3.135,83.637C2.492,85.21 2.173,86.676 2.173,88.021C2.173,89.33 2.505,90.327 3.162,91.017C3.853,91.821 5.025,92.227 6.67,92.227C9.122,92.227 11.513,91.11 13.856,88.882C16.158,86.733 18.61,83.424 21.204,78.968C21.495,78.47 21.888,77.787 22.382,76.919C22.876,76.058 23.425,75.068 24.028,73.951C24.631,72.834 25.254,71.638 25.89,70.35C26.527,69.062 27.143,67.745 27.725,66.4C28.606,64.443 29.29,62.742 29.784,61.297C30.279,59.86 30.624,58.614 30.827,57.582C31.03,56.543 31.118,55.704 31.098,55.049C31.078,54.394 31.017,53.875 30.908,53.49C30.692,52.8 30.285,52.337 29.703,52.11C28.863,51.761 28.03,51.64 27.211,51.732C26.385,51.832 25.599,52.06 24.854,52.423C24.102,52.786 23.412,53.277 22.768,53.896C22.125,54.508 21.569,55.163 21.095,55.853C20.33,57.084 19.849,58.273 19.666,59.426C19.592,59.81 19.585,60.23 19.639,60.692C19.694,61.155 19.883,61.596 20.215,62.016C20.946,62.941 21.84,63.012 22.904,62.244C23.669,61.746 24.258,61.034 24.658,60.109C25.057,59.305 25.132,58.629 24.874,58.095C24.617,57.483 24.78,57.042 25.369,56.771C25.585,56.657 25.822,56.636 26.08,56.714C26.337,56.792 26.52,56.963 26.628,57.234C26.886,57.775 26.987,58.358 26.933,58.992C26.879,59.625 26.716,60.251 26.439,60.863C26.168,61.475 25.816,62.066 25.396,62.621C24.976,63.176 24.509,63.632 23.994,63.973C23.188,64.514 22.314,64.777 21.359,64.777C20.411,64.742 19.531,64.258 18.725,63.34C17.845,62.223 17.52,60.821 17.736,59.134C17.953,57.632 18.542,56.159 19.49,54.693C20.073,53.846 20.77,53.049 21.576,52.302C22.382,51.554 23.256,50.957 24.211,50.515C25.159,50.074 26.161,49.804 27.197,49.711C28.24,49.619 29.29,49.775 30.353,50.202C31.45,50.665 32.236,51.526 32.71,52.793C32.893,53.448 32.994,54.188 33.015,55.013C33.035,55.839 32.933,56.771 32.71,57.81C33.699,56.693 34.687,55.732 35.669,54.928C37.024,53.739 38.378,52.793 39.726,52.102C41.081,51.412 42.34,50.971 43.512,50.779C45.598,50.473 47.223,50.971 48.395,52.28C49.817,53.732 50.514,55.938 50.514,58.899ZM46.729,67.083C48.043,64.358 48.666,61.646 48.591,58.956C48.591,57.767 48.462,56.721 48.205,55.817C47.948,54.914 47.562,54.216 47.054,53.711C46.356,52.864 45.279,52.558 43.817,52.786C42.828,52.942 41.731,53.334 40.525,53.967C39.32,54.6 38.114,55.44 36.902,56.472C35.656,57.511 34.532,58.65 33.529,59.902C32.52,61.155 31.674,62.429 30.976,63.738C30.976,63.774 30.969,63.795 30.949,63.795C30.929,63.795 30.922,63.817 30.922,63.852C30.705,64.393 30.482,64.941 30.265,65.496C30.048,66.051 29.791,66.642 29.5,67.254C28.552,69.368 27.583,71.346 26.595,73.19C27.251,74.648 28.159,75.752 29.31,76.506C30.462,77.253 31.789,77.652 33.286,77.687C34.457,77.723 35.656,77.524 36.882,77.082C38.108,76.641 39.306,75.979 40.478,75.097C41.758,74.136 42.929,72.983 43.986,71.638C45.042,70.293 45.957,68.777 46.729,67.083Z" fill="#767676"/>
<path d="M62.029,83.104C62.212,83.296 62.313,83.523 62.334,83.794C62.354,84.064 62.266,84.292 62.09,84.484C62.056,84.562 61.65,85.025 60.884,85.865C60.119,86.712 59.09,87.651 57.81,88.69C54.261,91.494 51.044,92.896 48.159,92.896C46.622,92.896 45.464,92.612 44.678,92.035C43.892,91.459 43.317,90.861 42.951,90.249C42.254,88.982 42.057,87.395 42.348,85.495C42.64,83.595 43.425,81.488 44.705,79.182C46.493,75.837 48.443,73.111 50.55,70.998C52.649,68.884 54.633,67.653 56.503,67.311C57.932,67.083 59.117,67.368 60.065,68.179C60.796,68.834 61.196,69.717 61.27,70.834C61.304,71.987 60.959,73.268 60.227,74.67C59.496,76.072 58.433,77.503 57.044,78.961C55.507,80.613 53.882,81.822 52.161,82.591C50.733,83.246 49.365,83.573 48.051,83.573C47.394,83.573 46.805,83.516 46.297,83.402C45.782,83.289 45.362,83.153 45.037,82.997C44.854,83.495 44.698,83.965 44.57,84.406C44.441,84.847 44.339,85.281 44.265,85.701C44.048,87.239 44.17,88.413 44.651,89.217C45.233,90.334 46.405,90.889 48.159,90.889C49.656,90.889 51.146,90.498 52.629,89.708C54.112,88.918 55.446,88.05 56.631,87.089C57.816,86.128 58.785,85.246 59.537,84.434C60.288,83.63 60.661,83.203 60.661,83.168C60.844,82.975 61.06,82.869 61.318,82.847C61.575,82.826 61.812,82.911 62.029,83.104ZM46.344,80.164C46.27,80.356 46.182,80.527 46.073,80.684C45.965,80.84 45.87,81.011 45.795,81.203C46.087,81.282 46.425,81.36 46.811,81.431C47.197,81.509 47.644,81.545 48.152,81.545C50.678,81.509 53.198,80.178 55.724,77.567C56.895,76.335 57.796,75.14 58.439,73.965C59.076,72.791 59.381,71.788 59.347,70.941C59.272,70.443 59.11,70.037 58.853,69.731C58.338,69.268 57.661,69.133 56.821,69.325C56.089,69.439 55.304,69.781 54.464,70.336C53.624,70.891 52.764,71.617 51.884,72.499C49.906,74.499 48.064,77.054 46.344,80.164Z" fill="#767676"/>
<path d="M75.302,68.464C75.925,68.542 76.237,68.905 76.237,69.56C76.203,69.866 76.081,70.108 75.878,70.279C75.674,70.45 75.451,70.521 75.194,70.478C74.388,70.4 73.44,70.364 72.342,70.364C71.245,70.364 70.148,70.386 69.051,70.421C68.245,71.802 67.466,73.197 66.721,74.599C65.97,76.001 65.326,77.282 64.778,78.435C63.714,80.584 62.942,82.385 62.448,83.822C61.954,85.26 61.615,86.427 61.432,87.31C61.249,88.192 61.195,88.868 61.27,89.324C61.344,89.786 61.432,90.092 61.547,90.249C61.581,90.327 61.676,90.434 61.818,90.569C61.967,90.704 62.272,90.768 62.753,90.768C63.376,90.768 64.134,90.548 65.028,90.107C65.922,89.665 66.904,89.039 67.961,88.235C68.841,87.544 69.722,86.762 70.622,85.9C71.516,85.032 72.295,84.178 72.952,83.338C73.135,83.146 73.351,83.032 73.609,82.99C73.866,82.954 74.103,83.025 74.32,83.217C74.503,83.41 74.611,83.637 74.652,83.908C74.686,84.178 74.618,84.427 74.435,84.655C73.704,85.538 72.871,86.434 71.943,87.338C71.008,88.242 70.053,89.075 69.065,89.843C66.579,91.8 64.473,92.783 62.76,92.783C61.92,92.783 61.276,92.619 60.843,92.291C60.403,91.964 60.091,91.63 59.908,91.281C59.211,90.128 59.197,88.285 59.854,85.744C60.403,83.595 61.48,80.847 63.091,77.503C63.606,76.463 64.168,75.339 64.791,74.129C65.414,72.919 66.092,71.681 66.823,70.414C66.308,70.45 65.841,70.478 65.421,70.5C65.001,70.521 64.642,70.528 64.351,70.528C63.985,70.564 63.653,70.585 63.362,70.585L63.308,70.585C62.726,70.585 62.394,70.258 62.319,69.603C62.319,69.297 62.401,69.048 62.563,68.856C62.726,68.663 62.956,68.564 63.247,68.564C63.322,68.564 63.802,68.542 64.703,68.507C65.597,68.471 66.687,68.428 67.967,68.393C68.624,67.24 69.254,66.144 69.857,65.105C70.46,64.066 70.988,63.148 71.448,62.336C71.902,61.532 72.424,60.65 73.013,59.682C73.162,59.454 73.358,59.297 73.616,59.219C73.873,59.141 74.11,59.184 74.327,59.333C74.875,59.717 74.984,60.201 74.659,60.778C74.144,61.582 73.69,62.336 73.291,63.027C72.891,63.717 72.424,64.514 71.889,65.418C71.36,66.322 70.798,67.29 70.216,68.329C71.164,68.329 72.092,68.329 72.986,68.329C73.866,68.35 74.645,68.386 75.302,68.464Z" fill="#767676"/>
<path d="M91.973,83.225C92.156,83.417 92.264,83.644 92.305,83.915C92.339,84.185 92.271,84.434 92.088,84.662C92.014,84.74 91.925,84.833 91.817,84.947C91.709,85.061 91.614,85.175 91.546,85.296C89.867,87.445 88.329,89.238 86.941,90.654C85.553,92.078 84.273,92.79 83.101,92.79C82.078,92.79 81.327,92.37 80.853,91.523C80.379,90.598 80.379,89.26 80.853,87.488C81.327,85.758 82.349,83.452 83.927,80.57C84.219,80.029 84.239,79.161 83.981,77.951C83.724,76.741 83.216,75.311 82.444,73.66C81.455,75.119 80.311,76.756 79.017,78.556C77.717,80.364 76.214,82.378 74.493,84.605C74.311,84.833 74.094,84.968 73.836,85.011C73.579,85.047 73.362,84.975 73.18,84.783C72.963,84.591 72.834,84.363 72.794,84.093C72.76,83.822 72.827,83.573 73.01,83.346C76.667,78.542 79.464,74.663 81.401,71.703C81.069,70.977 80.981,70.101 81.13,69.084C81.273,68.066 81.442,67.233 81.625,66.579C81.699,66.386 81.801,66.088 81.929,65.682C82.058,65.276 82.234,64.849 82.451,64.387C82.668,63.924 82.918,63.461 83.189,63.006C83.467,62.543 83.785,62.159 84.151,61.853C84.55,61.504 84.97,61.326 85.41,61.305C85.851,61.284 86.25,61.447 86.616,61.796C87.381,62.486 87.551,63.625 87.11,65.198C86.711,66.429 85.959,67.988 84.862,69.866C84.679,70.173 84.489,70.493 84.286,70.82C84.083,71.148 83.873,71.482 83.656,71.831C86.034,76.407 86.67,79.666 85.573,81.63C84.625,83.36 83.921,84.783 83.46,85.893C82.999,87.011 82.702,87.9 82.553,88.576C82.404,89.252 82.349,89.729 82.39,90.014C82.424,90.306 82.464,90.484 82.498,90.562C82.532,90.598 82.586,90.647 82.661,90.704C82.735,90.761 82.878,90.79 83.101,90.79C83.284,90.79 83.616,90.662 84.09,90.413C84.564,90.163 85.241,89.58 86.122,88.655C86.819,88 87.49,87.26 88.153,86.434C88.81,85.609 89.454,84.812 90.07,84.043C90.144,83.929 90.232,83.815 90.341,83.694C90.449,83.58 90.544,83.467 90.612,83.346C90.794,83.153 91.011,83.04 91.269,82.997C91.519,82.954 91.756,83.032 91.973,83.225ZM83.088,69.041C83.121,68.963 83.148,68.92 83.169,68.899C83.189,68.877 83.216,68.835 83.25,68.756C83.832,67.76 84.273,66.934 84.564,66.28C84.855,65.625 85.079,65.091 85.221,64.664C85.37,64.244 85.438,63.938 85.438,63.739C85.438,63.547 85.417,63.412 85.383,63.333C85.234,63.447 85.024,63.696 84.754,64.081C84.476,64.465 84.198,65.041 83.9,65.81C83.683,66.386 83.507,66.956 83.379,67.511C83.264,68.073 83.162,68.578 83.088,69.041Z" fill="#767676"/>
<path d="M106.677,83.509C106.203,84.392 105.6,85.374 104.869,86.448C104.137,87.523 103.297,88.555 102.343,89.53C101.394,90.512 100.338,91.323 99.187,91.978C98.035,92.633 96.803,92.96 95.482,92.96C94.168,92.96 93.152,92.69 92.435,92.156C91.723,91.615 91.202,91.06 90.87,90.484C90.064,89.06 89.861,87.217 90.267,84.947C90.667,82.797 91.527,80.492 92.848,78.029C93.362,77.104 94.053,76.015 94.934,74.741C95.814,73.474 96.837,72.243 98.008,71.055C98.448,70.592 98.95,70.122 99.518,69.646C100.087,69.169 100.67,68.735 101.272,68.35C101.875,67.966 102.498,67.653 103.135,67.397C103.771,67.148 104.408,67.02 105.024,67.02C105.316,67.02 105.553,67.119 105.735,67.311C105.918,67.503 106.006,67.753 106.006,68.059C106.006,68.365 105.918,68.607 105.735,68.777C105.553,68.948 105.316,69.034 105.024,69.034C104.293,69.034 103.433,69.333 102.444,69.93C101.455,70.528 100.433,71.382 99.369,72.492C98.272,73.61 97.304,74.763 96.464,75.951C95.624,77.14 94.967,78.164 94.487,79.004C93.281,81.232 92.509,83.324 92.184,85.288C91.852,87.018 91.981,88.398 92.57,89.437C93.044,90.441 94.013,90.939 95.475,90.939C96.241,90.939 96.972,90.775 97.67,90.448C98.367,90.121 99.031,89.708 99.674,89.21C100.311,88.712 100.907,88.156 101.455,87.537C102.004,86.925 102.498,86.327 102.938,85.751C103.23,85.367 103.487,84.989 103.704,84.626C103.92,84.263 104.144,83.908 104.361,83.559C103.595,83.481 102.979,83.288 102.525,82.982C102.065,82.676 101.713,82.37 101.455,82.057C100.69,81.132 100.304,79.944 100.304,78.485C100.304,77.602 100.433,76.698 100.69,75.773C100.947,74.848 101.327,74.008 101.841,73.24C103.047,71.396 104.422,70.471 105.952,70.471C107.124,70.471 108.018,70.991 108.641,72.03C109.223,72.99 109.474,74.243 109.379,75.773C109.284,77.31 108.803,79.04 107.923,80.961C107.632,81.573 107.395,82.064 107.212,82.434C107.043,82.812 106.86,83.167 106.677,83.509ZM105.966,72.499C105.526,72.499 105.085,72.67 104.652,73.019C104.212,73.368 103.812,73.823 103.446,74.4C103.081,74.976 102.79,75.617 102.566,76.328C102.349,77.04 102.234,77.759 102.234,78.492C102.234,78.798 102.268,79.168 102.343,79.588C102.417,80.008 102.6,80.392 102.891,80.741C103.365,81.317 104.13,81.609 105.194,81.609L105.471,81.609C105.654,81.225 105.803,80.926 105.912,80.712C106.02,80.499 106.094,80.378 106.128,80.335C106.643,79.147 106.988,78.129 107.171,77.282C107.354,76.435 107.442,75.723 107.442,75.147C107.442,74.57 107.395,74.122 107.307,73.795C107.219,73.467 107.131,73.247 107.063,73.133C106.765,72.713 106.406,72.499 105.966,72.499Z" fill="#767676"/>
<path d="M112.82,95.9C111.757,95.9 110.958,95.672 110.409,95.21C109.861,94.747 109.441,94.284 109.15,93.829C108.31,92.292 108.256,90.043 108.987,87.082C109.319,85.701 109.827,84.193 110.525,82.556C111.222,80.926 112.062,79.225 113.051,77.453C113.525,76.606 114.1,75.581 114.778,74.371C115.455,73.161 116.159,71.902 116.891,70.592C117.622,69.29 118.353,67.987 119.085,66.699C119.816,65.411 120.466,64.251 121.029,63.212C121.597,62.173 122.065,61.34 122.43,60.707C122.796,60.074 122.979,59.739 122.979,59.696C123.311,59.155 123.744,59.042 124.293,59.348C124.808,59.696 124.916,60.152 124.625,60.728C124.625,60.764 124.442,61.105 124.076,61.739C123.71,62.372 123.243,63.198 122.674,64.216C122.105,65.233 121.455,66.4 120.731,67.703C119.999,69.012 119.268,70.315 118.536,71.624C117.805,72.934 117.101,74.186 116.423,75.403C115.746,76.613 115.17,77.645 114.696,78.485C113.748,80.179 112.942,81.787 112.285,83.324C111.629,84.862 111.134,86.285 110.802,87.587C110.22,89.972 110.233,91.722 110.856,92.833C111.222,93.523 111.879,93.872 112.834,93.872C113.525,93.872 114.175,93.644 114.778,93.181C115.38,92.719 115.922,92.164 116.396,91.509C116.87,90.854 117.283,90.185 117.629,89.495C117.974,88.804 118.259,88.228 118.482,87.765L118.591,87.651C118.848,87.075 119.268,86.918 119.85,87.189C120.108,87.303 120.27,87.495 120.345,87.765C120.419,88.036 120.399,88.285 120.29,88.513L120.236,88.683C119.979,89.224 119.633,89.893 119.193,90.697C118.753,91.502 118.232,92.292 117.629,93.06C117.026,93.829 116.322,94.491 115.516,95.046C114.703,95.622 113.809,95.9 112.82,95.9Z" fill="#767676"/>
<path d="M144.91,68.643C143.596,70.835 142.431,72.991 141.429,75.126C140.42,77.261 139.627,79.304 139.045,81.268C138.463,83.225 138.131,84.955 138.056,86.456C137.982,87.958 138.185,89.146 138.659,90.029C139.241,91.217 140.379,91.815 142.059,91.815C144.51,91.815 147.382,89.737 150.673,85.588C152.102,83.745 153.416,81.844 154.621,79.88C155.827,77.923 156.85,76.208 157.696,74.749C157.913,74.365 158.116,74.009 158.299,73.681C158.482,73.354 158.665,73.055 158.848,72.785C158.848,72.749 158.854,72.728 158.875,72.728C158.895,72.728 158.902,72.706 158.902,72.671C159.599,71.361 160.263,70.109 160.906,68.892C161.543,67.682 162.159,66.579 162.742,65.575C162.85,65.305 163.033,65.134 163.29,65.056C163.548,64.977 163.805,65.02 164.055,65.169C164.272,65.326 164.421,65.532 164.496,65.803C164.57,66.073 164.53,66.322 164.387,66.55C163.581,67.974 162.735,69.546 161.834,71.276C160.94,73.005 160.026,74.77 159.091,76.578C158.157,78.386 157.236,80.193 156.321,81.994C155.407,83.802 154.554,85.488 153.768,87.068C152.983,88.641 152.285,90.057 151.682,91.303C151.08,92.555 150.612,93.502 150.28,94.157C150.68,93.929 151.093,93.687 151.513,93.438C151.933,93.189 152.366,92.911 152.8,92.605C154.188,91.68 155.725,90.492 157.405,89.033C159.085,87.574 160.771,85.673 162.45,83.325C162.633,83.097 162.85,82.962 163.107,82.919C163.365,82.884 163.602,82.94 163.818,83.09C164.001,83.282 164.123,83.51 164.177,83.78C164.232,84.051 164.171,84.3 163.988,84.528C162.193,86.99 160.412,88.976 158.638,90.492C156.863,92.007 155.265,93.267 153.836,94.271C152.888,94.925 151.98,95.488 151.12,95.972C150.26,96.456 149.447,96.847 148.682,97.153C147.51,99.11 146.305,100.704 145.059,101.936C143.305,103.665 141.747,104.548 140.399,104.59L140.237,104.59C139.174,104.59 138.408,104.17 137.934,103.323C137.569,102.747 137.494,102.057 137.718,101.245C137.934,100.477 138.402,99.744 139.12,99.053C139.831,98.363 140.697,97.822 141.727,97.438C141.944,97.359 142.201,97.274 142.492,97.181C142.783,97.082 143.095,96.982 143.427,96.861C143.941,96.705 144.524,96.527 145.181,96.313C145.838,96.1 146.569,95.843 147.375,95.537C147.483,95.345 147.605,95.132 147.734,94.904C147.863,94.676 147.978,94.441 148.093,94.214C148.167,94.135 148.479,93.53 149.028,92.399C149.576,91.267 150.274,89.837 151.113,88.107C149.867,89.566 148.628,90.776 147.382,91.737C145.519,93.118 143.745,93.815 142.059,93.815C140.555,93.815 139.418,93.509 138.632,92.89C137.846,92.278 137.291,91.644 136.959,90.99C135.754,88.684 135.828,85.246 137.176,80.67C137.799,78.635 138.632,76.493 139.668,74.244C140.711,71.995 141.923,69.76 143.318,67.525C144.199,66.102 145.296,64.586 146.61,62.97C146.319,62.586 146.061,62.202 145.844,61.817C144.896,59.896 144.673,57.554 145.188,54.786C145.404,53.555 145.77,52.309 146.285,51.042C146.799,49.775 147.416,48.58 148.147,47.47C148.547,46.929 149.007,46.836 149.515,47.178C149.732,47.37 149.874,47.598 149.928,47.868C149.982,48.139 149.921,48.388 149.739,48.615C149.082,49.612 148.513,50.679 148.039,51.818C147.565,52.95 147.233,54.074 147.05,55.191C146.867,56.309 146.813,57.341 146.887,58.302C146.962,59.262 147.199,60.124 147.599,60.892C147.632,60.97 147.68,61.063 147.734,61.184C147.788,61.298 147.856,61.397 147.924,61.476C149.603,59.597 151.378,57.846 153.247,56.231C153.829,55.732 154.547,55.163 155.387,54.53C156.227,53.896 157.114,53.291 158.048,52.715C158.983,52.138 159.924,51.661 160.872,51.277C161.821,50.893 162.721,50.679 163.561,50.644C164.401,50.565 165.058,50.679 165.539,50.992C166.013,51.298 166.358,51.605 166.582,51.918C166.981,52.459 167.164,53.128 167.13,53.932C167.096,54.736 166.859,55.64 166.419,56.643C165.904,57.718 165.214,58.786 164.333,59.846C163.453,60.906 162.45,61.853 161.319,62.7C160.371,63.39 159.179,64.073 157.757,64.742C156.328,65.419 154.682,65.753 152.82,65.753C151.208,65.753 149.766,65.39 148.486,64.657C148.411,64.621 148.337,64.579 148.269,64.543C148.194,64.508 148.12,64.451 148.052,64.372C146.867,65.76 145.824,67.176 144.91,68.643ZM143.759,100.512C144.416,99.822 145.018,99.11 145.567,98.377C145.276,98.455 144.991,98.534 144.713,98.605C144.436,98.683 144.172,98.761 143.921,98.833C143.63,98.911 143.345,98.989 143.068,99.06C142.79,99.139 142.567,99.217 142.384,99.288C141.578,99.637 140.928,100.05 140.433,100.526C139.939,101.003 139.641,101.437 139.526,101.822C139.492,102.049 139.492,102.185 139.526,102.227C139.6,102.306 139.688,102.391 139.797,102.484C139.905,102.576 140.074,102.605 140.291,102.569C141.219,102.512 142.37,101.822 143.759,100.512ZM154.452,57.86C152.624,59.362 150.924,61.027 149.353,62.878C150.233,63.454 151.384,63.739 152.806,63.739C154.195,63.739 155.522,63.483 156.782,62.963C158.042,62.444 159.193,61.789 160.236,61.006C161.279,60.216 162.173,59.355 162.924,58.415C163.676,57.476 164.252,56.579 164.651,55.732C164.983,55.078 165.166,54.53 165.2,54.088C165.234,53.647 165.2,53.348 165.092,53.192C165.017,53.113 164.888,52.999 164.706,52.843C164.523,52.686 164.177,52.629 163.663,52.672C162.599,52.708 161.265,53.185 159.66,54.081C158.055,54.985 156.321,56.245 154.452,57.86Z" fill="#767676"/>
<path d="M186.045,83.225C186.228,83.417 186.337,83.645 186.377,83.915C186.411,84.185 186.343,84.434 186.161,84.662C186.086,84.741 186.005,84.833 185.917,84.947C185.822,85.061 185.727,85.175 185.612,85.296C183.932,87.445 182.395,89.239 181.007,90.655C179.618,92.078 178.338,92.79 177.167,92.79C176.327,92.79 175.697,92.626 175.277,92.299C174.857,91.971 174.553,91.637 174.37,91.288C173.97,90.52 173.821,89.58 173.93,88.463C171.403,91.537 168.972,93.075 166.636,93.075C165.356,93.075 164.387,92.804 163.73,92.27C163.073,91.729 162.599,91.196 162.301,90.655C161.536,89.196 161.407,87.367 161.915,85.182C162.132,84.107 162.484,83.004 162.958,81.865C163.432,80.734 164.021,79.588 164.712,78.435C166.69,75.204 168.918,72.649 171.403,70.77C172.501,69.966 173.564,69.339 174.586,68.898C175.609,68.457 176.544,68.236 177.383,68.236C178.332,68.236 179.077,68.407 179.605,68.756C180.133,69.105 180.526,69.468 180.783,69.852C181.183,70.393 181.44,71.026 181.548,71.752C181.84,71.29 182.077,70.884 182.26,70.542C182.442,70.193 182.625,69.887 182.808,69.617C182.957,69.311 183.12,69.041 183.303,68.813C183.452,68.585 183.648,68.436 183.905,68.379C184.163,68.322 184.4,68.372 184.616,68.521C184.833,68.678 184.982,68.884 185.057,69.154C185.131,69.425 185.077,69.674 184.894,69.902C184.894,69.937 184.42,70.734 183.465,72.293C182.517,73.852 181.325,75.916 179.903,78.492C178.955,80.221 178.183,81.751 177.6,83.075C177.018,84.399 176.584,85.552 176.313,86.534C176.036,87.516 175.88,88.313 175.846,88.925C175.812,89.537 175.88,89.986 176.063,90.249C176.097,90.327 176.178,90.434 176.307,90.569C176.435,90.705 176.72,90.769 177.16,90.769C177.343,90.769 177.675,90.641 178.149,90.391C178.623,90.142 179.32,89.559 180.235,88.634C180.892,87.979 181.548,87.239 182.212,86.413C182.869,85.587 183.513,84.79 184.129,84.022C184.237,83.908 184.339,83.794 184.434,83.673C184.522,83.559 184.61,83.445 184.677,83.324C184.86,83.132 185.077,83.018 185.334,82.976C185.592,82.954 185.829,83.032 186.045,83.225ZM172.832,86.74C173.747,85.587 174.478,84.541 175.027,83.602C175.575,82.662 175.866,82.171 175.907,82.129C175.907,82.093 175.914,82.072 175.934,82.072C175.954,82.072 175.961,82.05 175.961,82.015C176.51,80.712 177.275,79.189 178.264,77.46C178.447,77.111 178.636,76.77 178.839,76.421C179.043,76.072 179.232,75.752 179.415,75.439L179.415,75.325C179.449,75.133 179.503,74.855 179.578,74.492C179.652,74.129 179.693,73.745 179.713,73.339C179.733,72.934 179.713,72.535 179.659,72.129C179.605,71.724 179.469,71.368 179.246,71.062C178.846,70.521 178.223,70.258 177.383,70.258C176.869,70.258 176.191,70.421 175.352,70.749C174.512,71.076 173.598,71.61 172.609,72.364C171.62,73.111 170.577,74.072 169.48,75.247C168.383,76.421 167.32,77.851 166.297,79.538C165.017,81.652 164.177,83.666 163.771,85.587C163.439,87.395 163.514,88.755 163.988,89.68C164.428,90.605 165.301,91.06 166.622,91.06C168.457,91.06 170.523,89.623 172.832,86.74Z" fill="#767676"/>
<path d="M203.652,83.225C203.835,83.417 203.943,83.644 203.984,83.915C204.018,84.185 203.95,84.434 203.767,84.662C203.693,84.74 203.605,84.833 203.489,84.947C203.381,85.061 203.286,85.175 203.219,85.296C201.539,87.445 200.002,89.238 198.613,90.654C197.225,92.078 195.945,92.79 194.773,92.79C193.751,92.79 192.999,92.37 192.525,91.523C192.051,90.598 192.051,89.26 192.525,87.488C192.999,85.758 194.022,83.452 195.6,80.57C195.891,80.029 195.911,79.161 195.654,77.951C195.396,76.741 194.889,75.311 194.117,73.66C193.128,75.119 191.983,76.756 190.69,78.556C189.389,80.364 187.886,82.378 186.166,84.605C185.983,84.833 185.766,84.968 185.509,85.011C185.252,85.047 185.035,84.975 184.852,84.783C184.635,84.591 184.507,84.363 184.466,84.093C184.432,83.822 184.5,83.573 184.683,83.346C188.34,78.542 191.137,74.663 193.074,71.703C192.742,70.977 192.654,70.101 192.796,69.084C192.945,68.066 193.107,67.233 193.29,66.579C193.365,66.386 193.466,66.088 193.595,65.682C193.724,65.276 193.9,64.849 194.117,64.387C194.333,63.924 194.584,63.461 194.855,63.006C195.132,62.543 195.451,62.159 195.816,61.853C196.216,61.504 196.643,61.326 197.076,61.305C197.516,61.284 197.916,61.447 198.282,61.796C199.047,62.486 199.216,63.625 198.776,65.198C198.376,66.429 197.625,67.988 196.527,69.866C196.345,70.173 196.155,70.493 195.952,70.82C195.749,71.148 195.539,71.482 195.322,71.831C197.699,76.407 198.336,79.666 197.239,81.63C196.29,83.36 195.586,84.783 195.126,85.893C194.665,87.011 194.367,87.9 194.218,88.576C194.069,89.252 194.015,89.729 194.056,90.014C194.089,90.306 194.13,90.484 194.164,90.562C194.198,90.598 194.252,90.647 194.326,90.704C194.401,90.761 194.543,90.79 194.767,90.79C194.95,90.79 195.281,90.662 195.755,90.413C196.23,90.163 196.907,89.58 197.787,88.655C198.478,88 199.155,87.26 199.819,86.434C200.476,85.609 201.119,84.812 201.735,84.043C201.81,83.929 201.898,83.815 202.013,83.694C202.121,83.58 202.216,83.467 202.291,83.346C202.474,83.153 202.69,83.04 202.948,82.997C203.198,82.954 203.435,83.032 203.652,83.225ZM194.767,69.041C194.801,68.963 194.828,68.92 194.848,68.899C194.868,68.877 194.895,68.835 194.929,68.756C195.512,67.76 195.952,66.934 196.243,66.28C196.534,65.625 196.758,65.091 196.9,64.664C197.049,64.244 197.117,63.938 197.117,63.739C197.117,63.547 197.096,63.412 197.063,63.333C196.914,63.447 196.704,63.696 196.433,64.081C196.155,64.465 195.877,65.041 195.579,65.81C195.363,66.386 195.187,66.956 195.058,67.511C194.943,68.073 194.841,68.578 194.767,69.041Z" fill="#767676"/>
<path d="M225.864,83.225C226.047,83.417 226.156,83.645 226.196,83.915C226.23,84.185 226.162,84.434 225.98,84.662C225.905,84.741 225.824,84.833 225.736,84.947C225.648,85.061 225.546,85.175 225.431,85.296C223.751,87.445 222.214,89.239 220.826,90.655C219.438,92.078 218.158,92.79 216.986,92.79C216.146,92.79 215.516,92.626 215.096,92.299C214.677,91.971 214.372,91.637 214.189,91.288C213.789,90.52 213.64,89.58 213.749,88.463C211.223,91.537 208.791,93.075 206.455,93.075C205.175,93.075 204.207,92.804 203.55,92.27C202.893,91.729 202.419,91.196 202.121,90.655C201.355,89.196 201.227,87.367 201.735,85.182C201.951,84.107 202.303,83.004 202.778,81.865C203.252,80.734 203.841,79.588 204.532,78.435C206.509,75.204 208.737,72.649 211.223,70.77C212.32,69.966 213.383,69.339 214.406,68.898C215.428,68.457 216.363,68.236 217.203,68.236C218.151,68.236 218.896,68.407 219.424,68.756C219.952,69.105 220.345,69.468 220.602,69.852C221.002,70.393 221.259,71.026 221.368,71.752C221.659,71.29 221.896,70.884 222.079,70.542C222.262,70.193 222.444,69.887 222.627,69.617C222.776,69.311 222.939,69.041 223.122,68.813C223.271,68.585 223.467,68.436 223.724,68.379C223.982,68.322 224.219,68.372 224.435,68.521C224.652,68.678 224.801,68.884 224.876,69.154C224.95,69.425 224.896,69.674 224.713,69.902C224.713,69.937 224.239,70.734 223.284,72.293C222.336,73.852 221.144,75.916 219.722,78.492C218.774,80.221 218.002,81.751 217.419,83.075C216.837,84.399 216.404,85.552 216.133,86.534C215.862,87.516 215.699,88.313 215.665,88.925C215.632,89.537 215.699,89.986 215.882,90.249C215.916,90.327 215.997,90.434 216.126,90.569C216.255,90.705 216.539,90.769 216.979,90.769C217.162,90.769 217.494,90.641 217.968,90.391C218.442,90.142 219.14,89.559 220.054,88.634C220.711,87.979 221.368,87.239 222.031,86.413C222.688,85.587 223.332,84.79 223.948,84.022C224.056,83.908 224.158,83.794 224.253,83.673C224.341,83.559 224.429,83.445 224.496,83.324C224.679,83.132 224.896,83.018 225.153,82.976C225.411,82.954 225.648,83.032 225.864,83.225ZM212.645,86.74C213.559,85.587 214.291,84.541 214.839,83.602C215.388,82.662 215.679,82.171 215.72,82.129C215.72,82.093 215.726,82.072 215.747,82.072C215.767,82.072 215.774,82.05 215.774,82.015C216.322,80.712 217.088,79.189 218.076,77.46C218.259,77.111 218.449,76.77 218.652,76.421C218.855,76.072 219.045,75.752 219.228,75.439L219.228,75.325C219.261,75.133 219.316,74.855 219.39,74.492C219.465,74.129 219.505,73.745 219.526,73.339C219.546,72.934 219.526,72.535 219.471,72.129C219.417,71.724 219.282,71.368 219.058,71.062C218.659,70.521 218.036,70.258 217.196,70.258C216.681,70.258 216.004,70.421 215.164,70.749C214.324,71.076 213.41,71.61 212.421,72.364C211.433,73.111 210.39,74.072 209.293,75.247C208.195,76.421 207.132,77.851 206.11,79.538C204.83,81.652 203.99,83.666 203.583,85.587C203.252,87.395 203.326,88.755 203.8,89.68C204.24,90.605 205.114,91.06 206.435,91.06C208.277,91.06 210.342,89.623 212.645,86.74Z" fill="#767676"/>
<path d="M248.57,83.224C248.787,83.417 248.916,83.644 248.956,83.915C248.99,84.185 248.923,84.434 248.74,84.662C248.665,84.74 248.604,84.819 248.55,84.89C248.496,84.968 248.428,85.046 248.36,85.118C247.995,85.58 247.527,86.157 246.959,86.847C246.39,87.537 245.733,88.256 244.981,89.01C244.229,89.758 243.417,90.498 242.543,91.231C241.663,91.964 240.714,92.576 239.692,93.074C238.994,93.423 238.283,93.729 237.552,93.999C236.82,94.27 236.089,94.54 235.357,94.804C234.369,96.647 233.292,98.241 232.12,99.586C230.441,101.508 228.863,102.561 227.4,102.753C227.325,102.753 227.251,102.76 227.183,102.782C227.109,102.803 227.034,102.81 226.966,102.81C226.018,102.81 225.267,102.426 224.718,101.657C224.278,101.159 224.149,100.447 224.332,99.522C224.515,98.675 224.955,97.878 225.646,97.131C226.343,96.384 227.217,95.736 228.28,95.202C228.971,94.896 229.723,94.604 230.529,94.334C231.335,94.063 232.154,93.779 232.994,93.473C233.177,93.394 233.353,93.337 233.515,93.302C233.678,93.266 233.854,93.202 234.037,93.131C234.186,92.825 234.321,92.519 234.45,92.206C234.579,91.9 234.714,91.594 234.863,91.281C234.897,91.202 234.992,90.96 235.134,90.562C235.283,90.156 235.5,89.608 235.791,88.918C233.156,91.686 230.779,93.067 228.66,93.067C227.38,93.067 226.411,92.797 225.754,92.263C225.097,91.722 224.623,91.188 224.325,90.647C223.56,89.188 223.431,87.359 223.939,85.175C224.156,84.1 224.508,82.997 224.982,81.858C225.456,80.726 226.045,79.581 226.736,78.428C228.714,75.197 230.942,72.642 233.427,70.763C234.524,69.959 235.581,69.332 236.61,68.891C237.633,68.45 238.568,68.229 239.407,68.229C240.355,68.229 241.1,68.4 241.629,68.749C242.157,69.097 242.55,69.46 242.807,69.845C243.024,70.115 243.227,70.478 243.41,70.941C243.593,70.521 243.775,70.115 243.958,69.731C244.141,69.347 244.324,68.941 244.507,68.521C244.798,67.944 245.238,67.788 245.821,68.058C246.037,68.172 246.193,68.364 246.288,68.635C246.376,68.905 246.369,69.154 246.261,69.382C245.746,70.499 245.245,71.603 244.751,72.699C244.256,73.795 243.755,74.898 243.241,76.015L243.186,76.129C242.272,78.243 241.412,80.25 240.606,82.15C239.8,84.05 239.109,85.744 238.52,87.224C237.938,88.704 237.47,89.879 237.118,90.74C236.773,91.601 236.597,92.056 236.597,92.092C236.597,92.17 236.576,92.206 236.543,92.206C236.942,92.049 237.328,91.9 237.694,91.743C238.06,91.587 238.425,91.416 238.791,91.224C239.705,90.761 240.572,90.206 241.398,89.551C242.218,88.897 242.976,88.213 243.674,87.502C244.365,86.79 244.981,86.107 245.509,85.459C246.037,84.804 246.484,84.249 246.85,83.787C246.925,83.708 246.986,83.63 247.04,83.559C247.094,83.481 247.155,83.409 247.229,83.331C247.412,83.139 247.629,83.025 247.886,82.982C248.171,82.954 248.387,83.032 248.57,83.224ZM235.242,86.619C236.157,85.545 236.922,84.555 237.545,83.651C238.168,82.748 238.513,82.2 238.588,82.007C239.028,80.968 239.495,79.887 239.99,78.748C240.484,77.616 240.985,76.449 241.5,75.261C241.534,75.033 241.588,74.741 241.663,74.4C241.737,74.051 241.771,73.681 241.771,73.275C241.771,72.869 241.744,72.471 241.69,72.065C241.635,71.66 241.5,71.325 241.277,71.055C240.877,70.514 240.254,70.25 239.414,70.25C238.899,70.25 238.222,70.414 237.382,70.741C236.543,71.069 235.628,71.603 234.64,72.357C233.651,73.104 232.608,74.065 231.511,75.239C230.414,76.414 229.35,77.844 228.328,79.531C227.048,81.645 226.208,83.659 225.802,85.58C225.47,87.388 225.544,88.747 226.018,89.672C226.459,90.597 227.332,91.053 228.653,91.053C229.567,91.053 230.569,90.676 231.666,89.928C232.777,89.188 233.962,88.085 235.242,86.619ZM230.691,98.205C231.023,97.857 231.341,97.472 231.653,97.053C231.964,96.633 232.262,96.184 232.56,95.729C231.247,96.149 230.095,96.597 229.107,97.053C228.226,97.472 227.542,97.963 227.048,98.526C226.553,99.081 226.269,99.572 226.194,99.999C226.161,100.227 226.161,100.362 226.194,100.405C226.269,100.518 226.377,100.625 226.526,100.725C226.675,100.817 226.892,100.832 227.183,100.753C228.206,100.632 229.377,99.785 230.691,98.205Z" fill="#767676"/>
<path d="M266.456,83.104C266.639,83.296 266.741,83.523 266.761,83.794C266.781,84.064 266.7,84.292 266.517,84.484C266.483,84.562 266.077,85.025 265.312,85.865C264.546,86.712 263.517,87.651 262.237,88.69C258.688,91.494 255.471,92.896 252.586,92.896C251.049,92.896 249.891,92.612 249.105,92.035C248.32,91.459 247.744,90.861 247.378,90.249C246.681,88.982 246.484,87.395 246.776,85.495C247.067,83.595 247.852,81.488 249.132,79.182C250.92,75.837 252.871,73.111 254.977,70.998C257.076,68.884 259.061,67.653 260.93,67.311C262.359,67.083 263.544,67.368 264.492,68.179C265.224,68.834 265.623,69.717 265.698,70.834C265.732,71.987 265.386,73.268 264.655,74.67C263.923,76.072 262.86,77.503 261.472,78.961C259.934,80.613 258.309,81.822 256.589,82.591C255.16,83.246 253.792,83.573 252.478,83.573C251.821,83.573 251.232,83.516 250.724,83.402C250.209,83.289 249.789,83.153 249.464,82.997C249.281,83.495 249.126,83.965 248.997,84.406C248.868,84.847 248.767,85.281 248.692,85.701C248.475,87.239 248.597,88.413 249.078,89.217C249.661,90.334 250.832,90.889 252.586,90.889C254.083,90.889 255.573,90.498 257.056,89.708C258.539,88.918 259.873,88.05 261.059,87.089C262.244,86.128 263.212,85.246 263.964,84.434C264.716,83.63 265.088,83.203 265.088,83.168C265.271,82.975 265.488,82.869 265.745,82.847C265.996,82.826 266.233,82.911 266.456,83.104ZM250.765,80.164C250.69,80.356 250.602,80.527 250.494,80.684C250.385,80.84 250.29,81.011 250.216,81.203C250.507,81.282 250.846,81.36 251.232,81.431C251.618,81.509 252.065,81.545 252.573,81.545C255.099,81.509 257.618,80.178 260.144,77.567C261.316,76.335 262.217,75.14 262.86,73.965C263.497,72.791 263.801,71.788 263.768,70.941C263.693,70.443 263.53,70.037 263.273,69.731C262.758,69.268 262.081,69.133 261.241,69.325C260.51,69.439 259.724,69.781 258.885,70.336C258.045,70.891 257.185,71.617 256.304,72.499C254.334,74.499 252.485,77.054 250.765,80.164Z" fill="#767676"/>
<path d="M86.645,133.548C86.523,133.548 86.401,133.491 86.319,133.377C86.184,133.185 86.218,132.914 86.401,132.772C89.069,130.666 91.852,128.331 94.914,125.634C95.09,125.485 95.347,125.506 95.489,125.691C95.631,125.876 95.611,126.147 95.435,126.296C92.36,129 89.563,131.342 86.888,133.462C86.814,133.519 86.726,133.548 86.645,133.548Z" fill="#767676"/>
<path d="M79.499,139.527C79.377,139.527 79.262,139.47 79.181,139.363C79.039,139.178 79.072,138.908 79.249,138.758L81.05,137.25C81.226,137.1 81.483,137.129 81.626,137.321C81.768,137.506 81.741,137.776 81.558,137.926L79.756,139.434C79.675,139.498 79.587,139.527 79.499,139.527Z" fill="#767676"/>
<path d="M79.275,127.3C79.086,127.3 78.916,127.158 78.876,126.958C78.828,126.723 78.971,126.496 79.194,126.453C81.564,125.94 84.084,125.307 86.901,124.524C87.118,124.46 87.341,124.602 87.402,124.83C87.463,125.058 87.328,125.293 87.111,125.357C84.287,126.14 81.747,126.78 79.363,127.293C79.33,127.3 79.302,127.3 79.275,127.3Z" fill="#767676"/>
<path d="M72.807,128.915C72.624,128.915 72.455,128.78 72.407,128.588C72.353,128.36 72.489,128.126 72.712,128.069L74.344,127.663C74.561,127.613 74.785,127.748 74.839,127.983C74.893,128.211 74.757,128.446 74.534,128.503L72.902,128.908C72.868,128.915 72.834,128.915 72.807,128.915Z" fill="#767676"/>
<path d="M210.644,128.794C210.617,128.794 210.59,128.794 210.563,128.787C207.705,128.204 205.165,127.613 202.795,126.986C202.578,126.929 202.443,126.695 202.497,126.467C202.551,126.239 202.774,126.097 202.991,126.154C205.348,126.78 207.881,127.364 210.718,127.947C210.942,127.99 211.084,128.218 211.043,128.453C211.01,128.652 210.834,128.794 210.644,128.794Z" fill="#767676"/>
<path d="M198.042,125.869C198.015,125.869 197.981,125.869 197.954,125.862L196.321,125.485C196.098,125.435 195.963,125.207 196.01,124.972C196.057,124.744 196.274,124.595 196.498,124.645L198.13,125.022C198.353,125.072 198.489,125.3 198.441,125.535C198.401,125.734 198.231,125.869 198.042,125.869Z" fill="#767676"/>
<path d="M117.186,130.687C117.118,130.687 117.043,130.666 116.983,130.63C116.786,130.509 116.718,130.246 116.834,130.039L118.384,127.235C118.499,127.029 118.75,126.958 118.946,127.079C119.143,127.2 119.211,127.463 119.095,127.669L117.545,130.474C117.463,130.609 117.321,130.687 117.186,130.687Z" fill="#767676"/>
<path d="M99.16,159.248C99.086,159.248 99.004,159.226 98.937,159.177C98.747,159.048 98.7,158.778 98.822,158.579L114.398,133.876C114.527,133.677 114.777,133.627 114.967,133.755C115.156,133.883 115.204,134.154 115.082,134.353L99.506,159.056C99.424,159.184 99.296,159.248 99.16,159.248Z" fill="#767676"/>
<path d="M122.962,170.094C122.935,170.094 122.901,170.094 122.874,170.087C122.651,170.037 122.515,169.809 122.563,169.574C124.459,160.571 126.768,151.547 129.003,142.822C130.412,137.328 131.861,131.649 133.195,126.034C133.249,125.806 133.473,125.664 133.69,125.721C133.906,125.777 134.042,126.012 133.988,126.24C132.653,131.862 131.197,137.542 129.789,143.043C127.554,151.761 125.251,160.771 123.355,169.752C123.321,169.959 123.152,170.094 122.962,170.094Z" fill="#767676"/>
<path d="M89.279,151.299C89.184,151.299 89.089,151.263 89.014,151.192C88.845,151.035 88.825,150.765 88.967,150.587L102.491,133.991C102.64,133.813 102.898,133.792 103.067,133.941C103.236,134.098 103.257,134.368 103.115,134.546L89.59,151.142C89.509,151.249 89.394,151.299 89.279,151.299Z" fill="#767676"/>
<path d="M111.287,164.422C111.24,164.422 111.192,164.414 111.145,164.393C110.935,164.308 110.826,164.066 110.901,163.838C113.901,155.333 117.477,146.921 120.931,138.787C122.035,136.196 123.132,133.598 124.222,131.001C124.31,130.787 124.554,130.688 124.764,130.78C124.974,130.873 125.062,131.129 124.974,131.349C123.89,133.954 122.786,136.545 121.683,139.143C118.235,147.263 114.666,155.668 111.673,164.144C111.612,164.315 111.456,164.422 111.287,164.422Z" fill="#767676"/>
<path d="M105.7,130.495C105.605,130.495 105.517,130.459 105.436,130.395C105.26,130.246 105.239,129.975 105.382,129.79L108.686,125.648C108.829,125.463 109.093,125.442 109.262,125.591C109.438,125.741 109.459,126.011 109.316,126.196L106.011,130.338C105.93,130.445 105.815,130.495 105.7,130.495Z" fill="#767676"/>
<path d="M111.287,164.422C111.24,164.422 111.192,164.414 111.145,164.393C110.935,164.308 110.826,164.066 110.901,163.838C113.901,155.333 117.477,146.921 120.931,138.787C122.035,136.196 123.132,133.598 124.222,131.001C124.31,130.787 124.554,130.688 124.764,130.78C124.974,130.873 125.062,131.129 124.974,131.349C123.89,133.954 122.786,136.545 121.683,139.143C118.235,147.263 114.666,155.668 111.673,164.144C111.612,164.315 111.456,164.422 111.287,164.422Z" fill="#767676"/>
<path d="M152.505,173.489C152.302,173.489 152.126,173.325 152.099,173.112C151.151,164.7 150.474,156.117 149.817,147.818C149.255,140.716 148.672,133.364 147.927,126.162C147.9,125.927 148.063,125.713 148.286,125.692C148.51,125.664 148.713,125.834 148.74,126.069C149.485,133.286 150.067,140.637 150.629,147.747C151.286,156.038 151.964,164.614 152.912,173.012C152.939,173.247 152.776,173.46 152.553,173.489C152.539,173.489 152.526,173.489 152.505,173.489Z" fill="#767676"/>
<path d="M167.005,170.884C166.823,170.884 166.653,170.756 166.606,170.556C164.425,161.297 161.77,151.996 159.204,143.007C158.046,138.95 156.847,134.759 155.709,130.617C155.648,130.389 155.77,130.147 155.987,130.083C156.203,130.019 156.434,130.147 156.495,130.375C157.632,134.51 158.831,138.701 159.982,142.751C162.549,151.754 165.211,161.055 167.391,170.343C167.446,170.571 167.31,170.805 167.093,170.862C167.073,170.877 167.039,170.884 167.005,170.884Z" fill="#767676"/>
<path d="M183.768,163.909C183.619,163.909 183.476,163.823 183.402,163.674C181.032,158.806 178.661,153.839 176.372,149.035C173.047,142.06 169.614,134.851 166.112,127.834C166.011,127.62 166.085,127.364 166.282,127.257C166.485,127.15 166.729,127.229 166.83,127.435C170.338,134.466 173.772,141.676 177.097,148.65C179.386,153.454 181.756,158.422 184.12,163.283C184.221,163.496 184.14,163.752 183.944,163.859C183.896,163.895 183.835,163.909 183.768,163.909Z" fill="#767676"/>
<path d="M193.429,132.389C193.327,132.389 193.225,132.353 193.151,132.268L187.144,126.29C186.981,126.126 186.975,125.856 187.13,125.685C187.286,125.514 187.543,125.507 187.706,125.671L193.713,131.649C193.876,131.812 193.882,132.083 193.727,132.254C193.645,132.346 193.537,132.389 193.429,132.389Z" fill="#767676"/>
<path d="M203.526,143.384C203.418,143.384 203.31,143.341 203.235,143.256L200.526,140.309C200.37,140.138 200.37,139.868 200.533,139.704C200.695,139.541 200.953,139.548 201.109,139.711L203.818,142.658C203.973,142.829 203.973,143.099 203.811,143.263C203.73,143.348 203.628,143.384 203.526,143.384Z" fill="#767676"/>
<path d="M137.407,161.033C137.394,161.033 137.387,161.033 137.374,161.033C137.15,161.012 136.981,160.805 137.001,160.57C137.739,150.856 138.396,142.358 139.019,134.594C139.04,134.359 139.243,134.195 139.459,134.202C139.683,134.224 139.852,134.43 139.832,134.665C139.216,142.429 138.552,150.927 137.814,160.642C137.8,160.862 137.624,161.033 137.407,161.033Z" fill="#767676"/>
<path d="M136.449,173.581C136.435,173.581 136.428,173.581 136.415,173.581C136.191,173.56 136.022,173.353 136.042,173.118L136.902,162.444C136.923,162.209 137.126,162.038 137.342,162.052C137.566,162.073 137.735,162.28 137.715,162.515L136.855,173.19C136.841,173.41 136.658,173.581 136.449,173.581Z" fill="#767676"/>
<path d="M194.528,155.205C194.399,155.205 194.277,155.141 194.196,155.027C187.41,145.156 180.685,135.463 174.204,126.204C174.069,126.011 174.109,125.741 174.292,125.606C174.475,125.463 174.732,125.506 174.861,125.698C181.336,134.957 188.06,144.658 194.853,154.529C194.989,154.721 194.948,154.991 194.758,155.126C194.697,155.176 194.609,155.205 194.528,155.205Z" fill="#767676"/>
<path d="M183.088,55.882C182.973,55.882 182.858,55.832 182.776,55.733C182.628,55.555 182.655,55.277 182.824,55.128L208.972,31.891C209.148,31.735 209.405,31.763 209.548,31.941C209.697,32.119 209.67,32.397 209.5,32.546L183.352,55.783C183.278,55.847 183.183,55.882 183.088,55.882Z" fill="#767676"/>
<path d="M168.548,45.954C168.48,45.954 168.406,45.932 168.345,45.897C168.148,45.776 168.081,45.512 168.196,45.306L169.76,42.488C169.875,42.281 170.126,42.217 170.322,42.331C170.519,42.452 170.587,42.716 170.471,42.922L168.907,45.74C168.826,45.875 168.683,45.954 168.548,45.954Z" fill="#767676"/>
<path d="M172.559,39.272C172.484,39.272 172.403,39.25 172.335,39.201C172.145,39.072 172.098,38.802 172.22,38.603L187.796,13.9C187.925,13.7 188.176,13.65 188.365,13.779C188.555,13.907 188.602,14.177 188.48,14.376L172.904,39.079C172.816,39.2 172.687,39.272 172.559,39.272Z" fill="#767676"/>
<path d="M155.578,40.424C155.544,40.424 155.51,40.417 155.476,40.41C155.26,40.353 155.124,40.118 155.178,39.89C155.917,36.823 156.662,33.763 157.407,30.703C159.601,21.7 161.863,12.398 163.922,3.203C163.976,2.976 164.193,2.826 164.416,2.883C164.633,2.94 164.775,3.168 164.721,3.403C162.662,12.605 160.393,21.921 158.199,30.923C157.454,33.983 156.709,37.051 155.971,40.111C155.923,40.296 155.761,40.424 155.578,40.424Z" fill="#767676"/>
<path d="M192.504,29.287C192.409,29.287 192.315,29.251 192.24,29.18C192.071,29.023 192.05,28.753 192.193,28.575L197.705,21.807C197.854,21.629 198.112,21.608 198.281,21.757C198.45,21.914 198.471,22.184 198.328,22.362L192.816,29.13C192.734,29.237 192.619,29.287 192.504,29.287Z" fill="#767676"/>
<path d="M172.184,19.023C172.136,19.023 172.082,19.016 172.035,18.995C171.825,18.91 171.723,18.661 171.804,18.44C172.333,17.038 172.915,15.65 173.47,14.305C174.249,12.433 174.987,10.668 175.617,8.825C175.692,8.605 175.929,8.484 176.139,8.569C176.349,8.647 176.464,8.896 176.382,9.117C175.739,10.989 174.967,12.853 174.215,14.654C173.66,15.985 173.084,17.365 172.556,18.76C172.495,18.924 172.346,19.023 172.184,19.023Z" fill="#767676"/>
<path d="M191.825,56.409C191.676,56.409 191.533,56.323 191.466,56.181C191.364,55.967 191.439,55.711 191.635,55.604L209.623,45.691C209.826,45.584 210.069,45.662 210.171,45.869C210.273,46.082 210.198,46.338 210.002,46.445L192.014,56.359C191.953,56.394 191.892,56.409 191.825,56.409Z" fill="#767676"/>
<path d="M210.909,45.862C210.76,45.862 210.618,45.776 210.55,45.634C210.442,45.42 210.523,45.164 210.72,45.057L215.169,42.609C215.372,42.502 215.616,42.581 215.718,42.787C215.826,43.001 215.745,43.257 215.548,43.364L211.099,45.819C211.045,45.847 210.977,45.862 210.909,45.862Z" fill="#767676"/>
<path d="M201.029,59.49C200.859,59.49 200.697,59.376 200.643,59.198C200.568,58.97 200.683,58.729 200.9,58.65L215.948,53.277C216.158,53.206 216.395,53.32 216.47,53.548C216.544,53.776 216.429,54.018 216.212,54.096L201.164,59.469C201.117,59.483 201.076,59.49 201.029,59.49Z" fill="#767676"/>
<path d="M171.44,56.06C171.345,56.06 171.257,56.025 171.176,55.961C171,55.811 170.98,55.541 171.122,55.356L186.692,35.82C186.841,35.635 187.098,35.614 187.267,35.763C187.443,35.913 187.464,36.183 187.321,36.368L171.752,55.904C171.677,56.003 171.562,56.06 171.44,56.06Z" fill="#767676"/>
<path d="M163.103,42.21C163.048,42.21 162.994,42.196 162.94,42.175C162.73,42.082 162.642,41.826 162.73,41.605C165.534,34.887 168.026,28.81 170.193,22.497C170.268,22.276 170.505,22.156 170.715,22.241C170.925,22.319 171.04,22.568 170.959,22.789C168.791,29.123 166.286,35.215 163.475,41.947C163.407,42.118 163.258,42.21 163.103,42.21Z" fill="#767676"/>
<path d="M138.914,45.056C138.711,45.056 138.535,44.892 138.508,44.672C137.58,35.911 136.794,26.979 136.043,18.346C135.514,12.311 134.966,6.07 134.377,-0.065C134.356,-0.3 134.519,-0.513 134.742,-0.535C134.966,-0.556 135.169,-0.385 135.189,-0.151C135.785,5.984 136.327,12.233 136.855,18.268C137.607,26.894 138.393,35.818 139.32,44.572C139.348,44.807 139.185,45.02 138.962,45.049C138.948,45.056 138.934,45.056 138.914,45.056Z" fill="#767676"/>
<path d="M131.983,46.993C131.807,46.993 131.637,46.865 131.59,46.68L124.743,20.902C124.682,20.675 124.811,20.44 125.028,20.376C125.244,20.312 125.468,20.447 125.529,20.675L132.376,46.452C132.437,46.68 132.308,46.915 132.091,46.979C132.051,46.993 132.017,46.993 131.983,46.993Z" fill="#767676"/>
<path d="M123.284,14.212C123.108,14.212 122.938,14.084 122.891,13.899L119.897,2.619C119.837,2.391 119.965,2.157 120.182,2.093C120.399,2.029 120.622,2.164 120.683,2.391L123.676,13.672C123.737,13.899 123.609,14.134 123.392,14.198C123.351,14.205 123.317,14.212 123.284,14.212Z" fill="#767676"/>
<path d="M124.184,51.456C124.035,51.456 123.893,51.37 123.818,51.221C116.585,36.254 109.827,22.668 103.163,9.687C103.054,9.48 103.129,9.217 103.325,9.103C103.522,8.989 103.772,9.068 103.881,9.274C110.545,22.262 117.303,35.856 124.543,50.83C124.645,51.043 124.563,51.299 124.367,51.406C124.306,51.442 124.245,51.456 124.184,51.456Z" fill="#767676"/>
<path d="M108.521,56.01C108.419,56.01 108.318,55.974 108.243,55.889L93.588,41.314C93.425,41.15 93.418,40.88 93.574,40.709C93.73,40.538 93.987,40.531 94.15,40.695L108.805,55.27C108.968,55.433 108.974,55.704 108.819,55.875C108.737,55.96 108.629,56.01 108.521,56.01Z" fill="#767676"/>
<path d="M89.209,36.56C89.101,36.56 88.993,36.517 88.918,36.432L80.304,27.044C80.148,26.873 80.155,26.603 80.317,26.439C80.48,26.276 80.737,26.283 80.893,26.453L89.507,35.841C89.663,36.012 89.656,36.282 89.494,36.446C89.412,36.517 89.311,36.56 89.209,36.56Z" fill="#767676"/>
<path d="M81.294,55.491C81.233,55.491 81.172,55.476 81.117,55.448L66.564,48.118C66.36,48.018 66.272,47.762 66.374,47.541C66.469,47.328 66.719,47.235 66.922,47.342L81.476,54.672C81.68,54.772 81.768,55.028 81.666,55.249C81.598,55.398 81.449,55.491 81.294,55.491Z" fill="#767676"/>
<path d="M147.525,41.62C147.518,41.62 147.505,41.62 147.498,41.62C147.275,41.606 147.105,41.4 147.119,41.165C147.187,40.076 147.254,38.994 147.315,37.905C147.681,31.806 148.06,25.508 148.771,19.33C148.798,19.095 149.002,18.932 149.225,18.953C149.449,18.982 149.611,19.195 149.584,19.43C148.873,25.579 148.494,31.87 148.128,37.955C148.06,39.044 147.999,40.133 147.932,41.214C147.918,41.442 147.735,41.62 147.525,41.62Z" fill="#767676"/>
<path d="M149.985,10.918C149.971,10.918 149.964,10.918 149.951,10.918C149.727,10.897 149.558,10.69 149.578,10.455L150.438,-0.22C150.459,-0.455 150.669,-0.619 150.879,-0.612C151.102,-0.59 151.271,-0.384 151.251,-0.149L150.391,10.527C150.371,10.747 150.195,10.918 149.985,10.918Z" fill="#767676"/>
<path d="M95.095,21.871C94.973,21.871 94.851,21.814 94.77,21.7C93.66,20.163 92.542,18.554 91.458,16.996L90.822,16.085C90.686,15.893 90.727,15.622 90.91,15.487C91.093,15.352 91.35,15.387 91.479,15.579L92.115,16.49C93.199,18.042 94.31,19.65 95.42,21.18C95.556,21.372 95.522,21.636 95.339,21.785C95.271,21.842 95.183,21.871 95.095,21.871Z" fill="#767676"/>
<path d="M118.025,54.572C117.903,54.572 117.781,54.515 117.7,54.402C113.135,48.025 108.584,41.478 104.182,35.144L101.067,30.66C100.932,30.468 100.972,30.198 101.155,30.062C101.338,29.92 101.595,29.963 101.724,30.155L104.839,34.638C109.241,40.972 113.786,47.513 118.35,53.889C118.486,54.081 118.452,54.352 118.269,54.494C118.194,54.544 118.106,54.572 118.025,54.572Z" fill="#767676"/>
<path d="M95.339,55.911C95.257,55.911 95.176,55.89 95.108,55.833L83.771,47.612C83.589,47.477 83.541,47.206 83.67,47.014C83.798,46.822 84.056,46.772 84.239,46.907L95.576,55.128C95.759,55.263 95.806,55.534 95.677,55.726C95.596,55.847 95.467,55.911 95.339,55.911Z" fill="#767676"/>
<path d="M80.595,45.178C80.514,45.178 80.432,45.157 80.365,45.1L73.599,40.19C73.416,40.054 73.369,39.784 73.497,39.592C73.626,39.4 73.883,39.35 74.066,39.485L80.832,44.395C81.015,44.531 81.062,44.801 80.934,44.993C80.852,45.114 80.724,45.178 80.595,45.178Z" fill="#767676"/>
<path d="M71.505,112.301L71.505,114.094C71.505,115.432 70.475,116.528 69.202,116.528L66.453,116.528C66.25,116.528 66.094,116.358 66.094,116.151L66.094,106.272C66.094,106.059 66.25,105.895 66.453,105.895L68.972,105.895C70.245,105.895 71.275,106.991 71.275,108.329L71.275,109.318C71.275,109.817 71.146,110.272 70.882,110.657C71.275,111.084 71.505,111.667 71.505,112.301ZM67.834,109.888L68.979,109.888C69.284,109.888 69.541,109.617 69.541,109.297L69.541,108.251C69.541,107.916 69.284,107.646 68.979,107.646L67.834,107.646L67.834,109.888ZM69.771,112.215C69.771,111.881 69.514,111.61 69.209,111.61L67.834,111.61L67.834,114.77L69.209,114.77C69.514,114.77 69.771,114.5 69.771,114.144L69.771,112.215Z" fill="#767676"/>
<path d="M74.847,107.621L74.847,109.885L76.12,109.885C76.323,109.885 76.479,110.048 76.479,110.262L76.479,111.201C76.479,111.415 76.323,111.578 76.12,111.578L74.847,111.578L74.847,114.788L76.858,114.788C77.061,114.788 77.217,114.952 77.217,115.165L77.217,116.14C77.217,116.354 77.061,116.518 76.858,116.518L73.459,116.518C73.255,116.518 73.1,116.347 73.1,116.14L73.1,106.262C73.1,106.048 73.255,105.885 73.459,105.885L76.858,105.885C77.061,105.885 77.217,106.056 77.217,106.262L77.217,107.237C77.217,107.451 77.061,107.614 76.858,107.614L74.847,107.614L74.847,107.621Z" fill="#767676"/>
<path d="M82.223,108.575L82.223,108.255C82.223,107.92 81.965,107.664 81.647,107.664L80.983,107.664C80.665,107.664 80.408,107.92 80.408,108.255L80.408,109.18C80.408,109.515 80.665,109.771 80.983,109.785L81.647,109.785C82.934,109.785 83.963,110.867 83.963,112.219L83.963,114.091C83.963,115.429 82.92,116.524 81.647,116.524L80.983,116.524C79.71,116.524 78.667,115.429 78.667,114.091L78.667,112.845C78.667,112.632 78.823,112.468 79.026,112.468L80.035,112.468C80.239,112.468 80.394,112.639 80.394,112.845L80.394,114.169C80.394,114.503 80.652,114.774 80.97,114.774L81.634,114.774C81.952,114.774 82.209,114.503 82.209,114.169L82.209,112.19C82.209,111.856 81.952,111.6 81.634,111.6L80.97,111.6C79.697,111.586 78.654,110.518 78.654,109.18L78.654,108.312C78.654,106.974 79.697,105.878 80.97,105.878L81.634,105.878C82.92,105.878 83.95,106.974 83.95,108.312L83.95,108.568C83.95,108.782 83.787,108.945 83.591,108.945L82.582,108.945C82.379,108.959 82.223,108.789 82.223,108.575Z" fill="#767676"/>
<path d="M90.122,106.268L90.122,107.272C90.122,107.485 89.946,107.649 89.763,107.649L88.517,107.649L88.517,116.146C88.517,116.36 88.361,116.524 88.158,116.524L87.142,116.524C86.953,116.524 86.783,116.353 86.783,116.146L86.783,107.649L85.551,107.649C85.348,107.649 85.192,107.478 85.192,107.272L85.192,106.268C85.192,106.055 85.348,105.891 85.551,105.891L89.756,105.891C89.946,105.884 90.122,106.055 90.122,106.268Z" fill="#767676"/>
<path d="M99.608,114.774L100.183,114.774C100.359,114.774 100.529,114.945 100.529,115.151L100.529,116.14C100.529,116.354 100.352,116.518 100.149,116.518L97.285,116.518C96.154,116.518 95.246,115.557 95.246,114.39L95.246,108.02C95.246,106.832 96.16,105.878 97.285,105.878L98.497,105.878C99.628,105.878 100.535,106.839 100.535,108.02L100.535,113.265C100.549,113.941 100.156,114.518 99.608,114.774ZM98.808,108.027C98.808,107.814 98.632,107.636 98.429,107.636L97.359,107.636C97.156,107.636 96.987,107.821 96.987,108.027L96.987,114.397C96.987,114.596 97.163,114.774 97.359,114.774L98.808,114.774L98.808,108.027Z" fill="#767676"/>
<path d="M106.206,105.885L107.215,105.885C107.418,105.885 107.574,106.07 107.574,106.283L107.574,114.582C107.574,115.642 106.734,116.524 105.725,116.524L104.134,116.524C103.118,116.524 102.285,115.642 102.285,114.582L102.285,106.283C102.285,106.07 102.44,105.885 102.644,105.885L103.659,105.885C103.863,105.885 104.018,106.07 104.018,106.283L104.018,114.397C104.018,114.61 104.195,114.774 104.398,114.774L105.468,114.774C105.671,114.774 105.847,114.61 105.847,114.397L105.847,106.283C105.84,106.07 106.003,105.885 106.206,105.885Z" fill="#767676"/>
<path d="M114.435,114.809L114.435,116.147C114.435,116.361 114.272,116.524 114.076,116.524L113.046,116.524C112.857,116.524 112.701,116.354 112.701,116.147L112.701,114.767L110.764,114.767L110.764,116.147C110.764,116.361 110.608,116.524 110.405,116.524L109.389,116.524C109.186,116.524 109.03,116.354 109.03,116.147L109.03,114.809C109.03,114.745 109.03,114.703 109.044,114.61L110.29,106.219C110.317,106.02 110.48,105.885 110.669,105.885L112.836,105.885C113.026,105.885 113.168,106.056 113.195,106.219L114.421,114.61C114.435,114.703 114.435,114.745 114.435,114.809ZM112.498,113.044L111.732,107.678L110.967,113.044L112.498,113.044Z" fill="#767676"/>
<path d="M117.617,106.268L117.617,114.794L119.641,114.794C119.845,114.794 120,114.958 120,115.171L120,116.146C120,116.36 119.845,116.524 119.641,116.524L116.242,116.524C116.039,116.524 115.883,116.353 115.883,116.146L115.883,106.268C115.883,106.055 116.039,105.891 116.242,105.891L117.258,105.891C117.461,105.884 117.617,106.055 117.617,106.268Z" fill="#767676"/>
<path d="M122.752,116.524L121.743,116.524C121.54,116.524 121.384,116.354 121.384,116.147L121.384,106.283C121.384,106.07 121.546,105.885 121.743,105.885L122.752,105.885C122.955,105.885 123.111,106.07 123.111,106.283L123.111,116.147C123.118,116.361 122.955,116.524 122.752,116.524Z" fill="#767676"/>
<path d="M129.419,106.268L129.419,107.272C129.419,107.485 129.243,107.649 129.06,107.649L127.814,107.649L127.814,116.146C127.814,116.36 127.658,116.524 127.455,116.524L126.439,116.524C126.25,116.524 126.08,116.353 126.08,116.146L126.08,107.649L124.848,107.649C124.645,107.649 124.489,107.478 124.489,107.272L124.489,106.268C124.489,106.055 124.645,105.891 124.848,105.891L129.053,105.891C129.243,105.884 129.419,106.055 129.419,106.268Z" fill="#767676"/>
<path d="M134.684,105.885L135.693,105.885C135.896,105.885 136.052,106.056 136.052,106.262L136.052,107.764C136.052,107.927 136.025,108.098 135.95,108.248L134.115,112.212L134.115,116.134C134.115,116.347 133.952,116.511 133.756,116.511L132.747,116.511C132.544,116.511 132.388,116.34 132.388,116.134L132.388,112.212L130.539,108.248C130.478,108.098 130.438,107.927 130.438,107.764L130.438,106.262C130.438,106.048 130.593,105.885 130.796,105.885L131.812,105.885C132.015,105.885 132.171,106.056 132.171,106.262L132.171,107.415C132.171,107.536 132.198,107.657 132.259,107.764L133.255,109.92L134.25,107.764C134.291,107.657 134.325,107.536 134.325,107.415L134.325,106.262C134.325,106.056 134.481,105.885 134.684,105.885Z" fill="#767676"/>
<path d="M145.073,111.209C145.073,112.376 144.179,113.323 143.062,113.323C141.965,113.323 141.05,112.383 141.05,111.209C141.05,110.056 141.965,109.095 143.062,109.095C144.172,109.095 145.073,110.049 145.073,111.209Z" fill="#767676"/>
<path d="M155.833,112.296L155.833,114.09C155.833,115.427 154.804,116.523 153.531,116.523L150.781,116.523C150.578,116.523 150.422,116.353 150.422,116.146L150.422,106.268C150.422,106.055 150.585,105.891 150.781,105.891L153.301,105.891C154.574,105.891 155.603,106.987 155.603,108.325L155.603,109.314C155.603,109.812 155.475,110.268 155.21,110.652C155.596,111.079 155.833,111.663 155.833,112.296ZM152.156,109.884L153.301,109.884C153.605,109.884 153.863,109.613 153.863,109.293L153.863,108.247C153.863,107.912 153.605,107.642 153.301,107.642L152.156,107.642L152.156,109.884ZM154.093,112.211C154.093,111.876 153.836,111.606 153.531,111.606L152.156,111.606L152.156,114.766L153.531,114.766C153.836,114.766 154.093,114.495 154.093,114.139L154.093,112.211Z" fill="#767676"/>
<path d="M159.173,107.621L159.173,109.885L160.446,109.885C160.649,109.885 160.805,110.048 160.805,110.262L160.805,111.201C160.805,111.415 160.649,111.578 160.446,111.578L159.173,111.578L159.173,114.788L161.184,114.788C161.387,114.788 161.543,114.952 161.543,115.165L161.543,116.14C161.543,116.354 161.387,116.518 161.184,116.518L157.784,116.518C157.581,116.518 157.425,116.347 157.425,116.14L157.425,106.262C157.425,106.048 157.581,105.885 157.784,105.885L161.184,105.885C161.387,105.885 161.543,106.056 161.543,106.262L161.543,107.237C161.543,107.451 161.387,107.614 161.184,107.614L159.173,107.614L159.173,107.621Z" fill="#767676"/>
<path d="M166.549,108.575L166.549,108.255C166.549,107.92 166.291,107.664 165.973,107.664L165.309,107.664C164.991,107.664 164.734,107.92 164.734,108.255L164.734,109.18C164.734,109.515 164.991,109.771 165.309,109.785L165.973,109.785C167.26,109.785 168.289,110.867 168.289,112.219L168.289,114.091C168.289,115.429 167.246,116.524 165.973,116.524L165.309,116.524C164.036,116.524 162.993,115.429 162.993,114.091L162.993,112.845C162.993,112.632 163.149,112.468 163.352,112.468L164.361,112.468C164.564,112.468 164.72,112.639 164.72,112.845L164.72,114.169C164.72,114.503 164.977,114.774 165.296,114.774L165.959,114.774C166.278,114.774 166.535,114.503 166.535,114.169L166.535,112.19C166.535,111.856 166.278,111.6 165.959,111.6L165.296,111.6C164.022,111.586 162.979,110.518 162.979,109.18L162.979,108.312C162.979,106.974 164.022,105.878 165.296,105.878L165.959,105.878C167.246,105.878 168.275,106.974 168.275,108.312L168.275,108.568C168.275,108.782 168.113,108.945 167.917,108.945L166.907,108.945C166.711,108.959 166.549,108.789 166.549,108.575Z" fill="#767676"/>
<path d="M174.444,106.268L174.444,107.272C174.444,107.485 174.268,107.649 174.085,107.649L172.838,107.649L172.838,116.146C172.838,116.36 172.683,116.524 172.48,116.524L171.464,116.524C171.274,116.524 171.105,116.353 171.105,116.146L171.105,107.649L169.872,107.649C169.669,107.649 169.513,107.478 169.513,107.272L169.513,106.268C169.513,106.055 169.669,105.891 169.872,105.891L174.078,105.891C174.274,105.884 174.444,106.055 174.444,106.268Z" fill="#767676"/>
<path d="M184.73,108.318L184.73,109.293C184.73,110.631 183.687,111.727 182.427,111.727L181.317,111.727L181.317,116.146C181.317,116.36 181.154,116.523 180.958,116.523L179.949,116.523C179.746,116.523 179.59,116.353 179.59,116.146L179.59,106.268C179.59,106.055 179.752,105.891 179.949,105.891L182.434,105.891C183.687,105.884 184.73,106.98 184.73,108.318ZM182.996,108.24C182.996,107.905 182.753,107.635 182.434,107.635L181.324,107.635L181.324,109.884L182.434,109.884C182.753,109.884 182.996,109.613 182.996,109.293L182.996,108.24Z" fill="#767676"/>
<path d="M189.889,111.556L191.19,114.111C191.264,114.26 191.291,114.445 191.291,114.609L191.291,116.132C191.291,116.346 191.149,116.509 190.946,116.509L189.937,116.509C189.734,116.509 189.558,116.346 189.558,116.132L189.558,115.072C189.558,114.901 189.531,114.737 189.456,114.552L187.912,111.542L187.912,116.146C187.912,116.36 187.749,116.523 187.553,116.523L186.544,116.523C186.354,116.523 186.185,116.353 186.185,116.146L186.185,106.268C186.185,106.055 186.361,105.891 186.544,105.891L189.043,105.891C190.316,105.891 191.339,106.987 191.339,108.325L191.339,109.286C191.339,110.311 190.729,111.186 189.889,111.556ZM189.036,107.635L187.905,107.635L187.905,109.898L189.036,109.898C189.341,109.898 189.598,109.627 189.598,109.272L189.598,108.225C189.605,107.891 189.341,107.635 189.036,107.635Z" fill="#767676"/>
<path d="M194.157,116.524L193.148,116.524C192.945,116.524 192.789,116.354 192.789,116.147L192.789,106.283C192.789,106.07 192.952,105.885 193.148,105.885L194.157,105.885C194.36,105.885 194.516,106.07 194.516,106.283L194.516,116.147C194.523,116.361 194.36,116.524 194.157,116.524Z" fill="#767676"/>
<path d="M200.028,111.6L201.037,111.6C201.24,111.6 201.396,111.785 201.396,111.991L201.396,114.575C201.396,115.635 200.57,116.518 199.547,116.518L197.956,116.518C196.94,116.518 196.107,115.635 196.107,114.575L196.107,107.828C196.107,106.746 196.933,105.885 197.956,105.885L199.547,105.885C200.577,105.885 201.396,106.753 201.396,107.828L201.396,109.5C201.396,109.714 201.234,109.899 201.037,109.899L200.028,109.899C199.825,109.899 199.669,109.714 199.669,109.5L199.669,107.999C199.669,107.785 199.493,107.621 199.31,107.621L198.227,107.621C198.024,107.621 197.847,107.792 197.847,107.999L197.847,114.383C197.847,114.596 198.024,114.76 198.227,114.76L199.31,114.76C199.5,114.76 199.669,114.596 199.669,114.383L199.669,111.998C199.669,111.785 199.832,111.6 200.028,111.6Z" fill="#767676"/>
<path d="M204.75,107.621L204.75,109.885L206.023,109.885C206.227,109.885 206.382,110.048 206.382,110.262L206.382,111.201C206.382,111.415 206.227,111.578 206.023,111.578L204.75,111.578L204.75,114.788L206.762,114.788C206.965,114.788 207.121,114.952 207.121,115.165L207.121,116.14C207.121,116.354 206.965,116.518 206.762,116.518L203.362,116.518C203.159,116.518 203.003,116.347 203.003,116.14L203.003,106.262C203.003,106.048 203.159,105.885 203.362,105.885L206.762,105.885C206.965,105.885 207.121,106.056 207.121,106.262L207.121,107.237C207.121,107.451 206.965,107.614 206.762,107.614L204.75,107.614L204.75,107.621Z" fill="#767676"/>
<path d="M212.512,107.536C222.962,107.536 233.412,107.536 243.861,107.536C245.182,107.536 245.182,105.387 243.861,105.387C233.412,105.387 222.962,105.387 212.512,105.387C211.198,105.387 211.198,107.536 212.512,107.536Z" fill="#767676"/>
<path d="M212.512,112.119C219.325,112.119 226.138,112.119 232.958,112.119C234.279,112.119 234.279,109.97 232.958,109.97C226.145,109.97 219.332,109.97 212.512,109.97C211.198,109.97 211.198,112.119 212.512,112.119Z" fill="#767676"/>
<path d="M212.512,116.418C215.6,116.418 218.689,116.418 221.777,116.418C223.097,116.418 223.097,114.268 221.777,114.268C218.689,114.268 215.6,114.268 212.512,114.268C211.198,114.268 211.198,116.418 212.512,116.418Z" fill="#767676"/>
<path d="M59.591,105.387C49.141,105.387 38.692,105.387 28.242,105.387C26.921,105.387 26.921,107.536 28.242,107.536C38.692,107.536 49.141,107.536 59.591,107.536C60.912,107.536 60.912,105.387 59.591,105.387Z" fill="#767676"/>
<path d="M59.594,109.97C52.781,109.97 45.968,109.97 39.149,109.97C37.828,109.97 37.828,112.119 39.149,112.119C45.962,112.119 52.775,112.119 59.594,112.119C60.915,112.119 60.915,109.97 59.594,109.97Z" fill="#767676"/>
<path d="M59.593,114.268C56.505,114.268 53.417,114.268 50.328,114.268C49.008,114.268 49.008,116.418 50.328,116.418C53.417,116.418 56.505,116.418 59.593,116.418C60.914,116.418 60.914,114.268 59.593,114.268Z" fill="#767676"/>
</svg>
