<svg width="258" height="194" viewBox="0 0 258 194" fill="none" xmlns="http://www.w3.org/2000/svg" xmlns:xlink="http://www.w3.org/1999/xlink">
<path d="M91.816,129.109C91.607,128.827 91.212,128.776 90.943,128.996C86.214,132.892 82.5,135.783 78.906,138.353C78.625,138.554 78.548,138.963 78.745,139.258C78.865,139.447 79.062,139.541 79.259,139.541C79.379,139.541 79.504,139.503 79.606,139.428C83.224,136.839 86.955,133.936 91.709,130.021C91.984,129.807 92.026,129.392 91.816,129.109Z" fill="#767676"/>
<path d="M72.694,144.529C72.82,144.529 72.945,144.491 73.059,144.403L74.715,143.147C74.991,142.933 75.056,142.531 74.853,142.236C74.65,141.941 74.261,141.878 73.986,142.091L72.329,143.348C72.054,143.561 71.989,143.964 72.192,144.259C72.311,144.435 72.503,144.529 72.694,144.529Z" fill="#767676"/>
<path d="M110.94,129.392L106.802,136.159C106.616,136.461 106.7,136.869 106.987,137.064C107.089,137.133 107.208,137.171 107.322,137.171C107.525,137.171 107.729,137.064 107.842,136.869L111.98,130.102C112.166,129.8 112.082,129.392 111.795,129.197C111.514,129.002 111.125,129.09 110.94,129.392Z" fill="#767676"/>
<path d="M90.765,160.943C90.956,160.943 91.141,160.849 91.267,160.673L105.582,140.112C105.786,139.823 105.726,139.414 105.445,139.201C105.17,138.987 104.781,139.05 104.578,139.345L90.262,159.906C90.059,160.195 90.119,160.604 90.4,160.817C90.508,160.905 90.639,160.943 90.765,160.943Z" fill="#767676"/>
<path d="M122.678,129.549C121.213,135.361 119.556,141.224 117.954,146.892C115.903,154.156 113.78,161.665 112.034,169.162C111.95,169.514 112.154,169.866 112.488,169.954C112.536,169.966 112.59,169.973 112.638,169.973C112.919,169.973 113.17,169.772 113.242,169.476C114.976,162.011 117.093,154.515 119.144,147.269C120.746,141.589 122.409,135.713 123.88,129.888C123.969,129.543 123.772,129.184 123.437,129.09C123.114,128.996 122.767,129.203 122.678,129.549Z" fill="#767676"/>
<path d="M81.679,154.325C81.846,154.325 82.008,154.256 82.133,154.118L94.565,140.3C94.798,140.036 94.792,139.628 94.541,139.376C94.29,139.131 93.901,139.144 93.662,139.402L81.23,153.219C80.997,153.483 81.003,153.892 81.254,154.143C81.374,154.269 81.523,154.325 81.679,154.325Z" fill="#767676"/>
<path d="M72.37,128.883L65.888,132.308C65.583,132.471 65.457,132.86 65.613,133.181C65.72,133.407 65.942,133.539 66.169,133.539C66.265,133.539 66.36,133.514 66.45,133.47L72.932,130.046C73.237,129.882 73.362,129.493 73.207,129.172C73.045,128.852 72.675,128.72 72.37,128.883Z" fill="#767676"/>
<path d="M97.228,136.806L103.117,130.108C103.351,129.844 103.333,129.429 103.082,129.184C102.83,128.939 102.436,128.958 102.203,129.222L96.313,135.92C96.079,136.184 96.097,136.599 96.349,136.844C96.468,136.957 96.618,137.02 96.767,137.02C96.935,137.014 97.102,136.945 97.228,136.806Z" fill="#767676"/>
<path d="M118.066,130.046C118.21,129.719 118.072,129.329 117.755,129.179C117.444,129.034 117.074,129.172 116.93,129.505C114.897,134.212 112.684,138.931 110.544,143.493C107.375,150.254 104.098,157.242 101.329,164.349C101.198,164.682 101.353,165.065 101.67,165.197C101.748,165.228 101.825,165.247 101.903,165.247C102.148,165.247 102.381,165.097 102.477,164.839C105.228,157.77 108.499,150.801 111.656,144.065C113.809,139.496 116.027,134.765 118.066,130.046Z" fill="#767676"/>
<path d="M139.168,172.228C139.21,172.555 139.479,172.794 139.784,172.794C139.808,172.794 139.838,172.794 139.867,172.787C140.208,172.743 140.447,172.41 140.406,172.058C139.539,165.077 138.917,157.939 138.313,151.039C137.697,143.957 137.057,136.636 136.148,129.46C136.1,129.102 135.795,128.857 135.448,128.901C135.108,128.951 134.868,129.278 134.916,129.636C135.819,136.787 136.459,144.095 137.075,151.165C137.673,158.077 138.301,165.222 139.168,172.228Z" fill="#767676"/>
<path d="M145.709,147.232C148.065,154.703 150.499,162.432 152.508,170.149C152.586,170.438 152.831,170.633 153.106,170.633C153.16,170.633 153.213,170.626 153.267,170.607C153.596,170.513 153.793,170.155 153.704,169.809C151.689,162.055 149.249,154.314 146.887,146.823C145.099,141.149 143.251,135.28 141.601,129.461C141.505,129.116 141.158,128.921 140.829,129.022C140.501,129.122 140.315,129.487 140.411,129.832C142.067,135.67 143.921,141.545 145.709,147.232Z" fill="#767676"/>
<path d="M167.967,164.494C168.081,164.707 168.29,164.827 168.505,164.827C168.607,164.827 168.715,164.802 168.81,164.745C169.109,164.569 169.217,164.167 169.043,163.859C166.867,159.812 164.69,155.677 162.585,151.674C158.729,144.341 154.74,136.763 150.596,129.436C150.423,129.128 150.04,129.027 149.747,129.209C149.454,129.392 149.353,129.794 149.532,130.102C153.67,137.41 157.652,144.982 161.503,152.303C163.614,156.299 165.791,160.44 167.967,164.494Z" fill="#767676"/>
<path d="M176.982,138.428C177.102,138.535 177.245,138.585 177.389,138.585C177.562,138.585 177.736,138.509 177.861,138.359C178.082,138.082 178.052,137.674 177.795,137.441L168.329,128.914C168.072,128.681 167.678,128.713 167.456,128.983C167.235,129.259 167.265,129.668 167.522,129.9L176.982,138.428Z" fill="#767676"/>
<path d="M186.241,147.564C186.361,147.684 186.516,147.74 186.666,147.74C186.833,147.74 186.995,147.671 187.12,147.533C187.353,147.269 187.341,146.854 187.09,146.609L184.603,144.153C184.352,143.908 183.957,143.92 183.724,144.184C183.49,144.448 183.502,144.863 183.754,145.108L186.241,147.564Z" fill="#767676"/>
<path d="M128.759,129.002C128.424,128.977 128.113,129.228 128.083,129.592C127.228,139.012 126.343,149.223 125.291,161.716C125.261,162.074 125.512,162.394 125.853,162.426C125.871,162.426 125.888,162.426 125.906,162.426C126.223,162.426 126.498,162.168 126.522,161.829C127.569,149.336 128.454,139.131 129.309,129.712C129.351,129.36 129.106,129.039 128.759,129.002Z" fill="#767676"/>
<path d="M125.878,162.684C125.549,162.659 125.232,162.916 125.202,163.274L124.413,172.159C124.383,172.518 124.634,172.838 124.975,172.869C124.993,172.869 125.017,172.876 125.034,172.876C125.351,172.876 125.621,172.624 125.65,172.285L126.44,163.4C126.47,163.036 126.218,162.715 125.878,162.684Z" fill="#767676"/>
<path d="M178.395,157.575C178.532,157.575 178.67,157.525 178.783,157.431C179.052,157.204 179.094,156.796 178.879,156.513C171.793,147.182 164.779,138.033 158.028,129.317C157.813,129.034 157.418,128.996 157.155,129.223C156.892,129.449 156.85,129.864 157.065,130.14C163.81,138.856 170.824,147.999 177.904,157.33C178.036,157.493 178.215,157.575 178.395,157.575Z" fill="#767676"/>
<path d="M186.449,133.382C186.658,133.382 186.856,133.276 186.975,133.074C187.155,132.767 187.071,132.364 186.778,132.176L182.036,129.059C181.749,128.87 181.36,128.958 181.181,129.266C181.002,129.574 181.085,129.976 181.378,130.165L186.12,133.282C186.222,133.345 186.335,133.382 186.449,133.382Z" fill="#767676"/>
<path d="M165.324,69.607C165.443,69.776 165.629,69.864 165.814,69.864C165.946,69.864 166.077,69.82 166.191,69.732L184.399,55.072C184.674,54.852 184.722,54.444 184.513,54.155C184.303,53.872 183.915,53.816 183.64,54.035L165.431,68.696C165.168,68.909 165.114,69.324 165.324,69.607Z" fill="#767676"/>
<path d="M156.292,56.387C156.005,56.192 155.622,56.28 155.431,56.582L147.915,68.879C147.729,69.18 147.813,69.582 148.1,69.784C148.202,69.853 148.321,69.884 148.435,69.884C148.638,69.884 148.841,69.777 148.955,69.582L156.471,57.285C156.663,56.984 156.579,56.582 156.292,56.387Z" fill="#767676"/>
<path d="M172.012,32.771L157.697,53.332C157.494,53.621 157.554,54.03 157.835,54.243C157.942,54.331 158.074,54.369 158.199,54.369C158.391,54.369 158.582,54.275 158.702,54.099L173.017,33.538C173.22,33.249 173.161,32.841 172.879,32.627C172.604,32.419 172.216,32.482 172.012,32.771Z" fill="#767676"/>
<path d="M151.248,24.294C151.332,23.942 151.134,23.591 150.805,23.496C150.476,23.408 150.136,23.616 150.046,23.961C149.083,27.857 148.067,31.791 147.032,35.712C147.421,35.882 147.798,36.083 148.162,36.316C149.215,32.313 150.255,28.285 151.248,24.294Z" fill="#767676"/>
<path d="M138.23,69.092C138.14,69.438 138.343,69.796 138.672,69.89C138.726,69.903 138.78,69.909 138.828,69.909C139.103,69.909 139.354,69.714 139.426,69.419C139.976,67.201 140.55,64.97 141.124,62.739L139.838,62.739C139.294,64.863 138.756,66.981 138.23,69.092Z" fill="#767676"/>
<path d="M176.981,45.854L182.046,40.224C182.279,39.96 182.274,39.552 182.022,39.301C181.771,39.056 181.383,39.068 181.143,39.326L176.079,44.956C175.845,45.22 175.851,45.628 176.102,45.879C176.222,45.999 176.378,46.055 176.527,46.055C176.694,46.062 176.862,45.992 176.981,45.854Z" fill="#767676"/>
<path d="M161.603,28.246C161.286,28.114 160.922,28.278 160.796,28.611C160.222,30.138 159.546,31.602 158.829,33.154C158.314,34.273 157.782,35.429 157.292,36.604C157.154,36.937 157.298,37.32 157.615,37.465C157.699,37.502 157.782,37.521 157.866,37.521C158.105,37.521 158.332,37.377 158.434,37.132C158.912,35.982 159.439,34.838 159.947,33.732C160.64,32.224 161.358,30.672 161.95,29.101C162.076,28.762 161.92,28.378 161.603,28.246Z" fill="#767676"/>
<path d="M180.187,69.501C180.295,69.727 180.516,69.859 180.744,69.859C180.839,69.859 180.935,69.834 181.025,69.79L195.992,61.885C196.297,61.722 196.422,61.332 196.267,61.012C196.111,60.691 195.741,60.559 195.436,60.723L180.468,68.627C180.152,68.791 180.032,69.18 180.187,69.501Z" fill="#767676"/>
<path d="M155.348,69.778C155.467,69.897 155.617,69.954 155.766,69.954C155.934,69.954 156.101,69.885 156.221,69.746L171.941,51.882C172.174,51.618 172.156,51.203 171.905,50.958C171.654,50.713 171.259,50.732 171.026,50.995L155.306,68.86C155.078,69.118 155.096,69.533 155.348,69.778Z" fill="#767676"/>
<path d="M143.092,69.023C142.954,69.356 143.098,69.739 143.415,69.883C143.498,69.921 143.582,69.94 143.666,69.94C143.905,69.94 144.132,69.796 144.234,69.55C145.322,66.936 146.476,64.347 147.636,61.783C147.104,62.072 146.536,62.305 145.95,62.468C144.975,64.63 144.013,66.817 143.092,69.023Z" fill="#767676"/>
<path d="M156.964,40.481C157.089,40.148 156.934,39.765 156.617,39.633C156.3,39.501 155.935,39.665 155.81,39.998C154.805,42.655 153.693,45.32 152.533,47.965L152.533,51.056C154.099,47.563 155.624,44.025 156.964,40.481Z" fill="#767676"/>
<path d="M124.114,21.228C124.078,20.87 123.773,20.619 123.426,20.65C123.085,20.688 122.84,21.015 122.876,21.373C123.36,25.897 123.809,30.522 124.245,35.046L125.495,35.046C125.059,30.484 124.604,25.803 124.114,21.228Z" fill="#767676"/>
<path d="M128.056,69.312C128.104,69.639 128.367,69.865 128.672,69.865C128.701,69.865 128.731,69.865 128.767,69.859C129.108,69.808 129.341,69.475 129.287,69.117C128.989,67.012 128.707,64.882 128.438,62.745L127.183,62.745C127.458,64.945 127.745,67.138 128.056,69.312Z" fill="#767676"/>
<path d="M122.903,69.129C122.986,69.412 123.232,69.588 123.495,69.588C123.555,69.588 123.614,69.582 123.68,69.557C124.009,69.45 124.194,69.085 124.093,68.74L122.335,62.739L121.037,62.739L122.903,69.129Z" fill="#767676"/>
<path d="M112.926,33.513C112.985,33.513 113.045,33.506 113.111,33.481C113.44,33.374 113.625,33.01 113.523,32.664L110.773,23.276C110.671,22.931 110.33,22.742 109.996,22.843C109.667,22.95 109.481,23.314 109.583,23.66L112.334,33.048C112.417,33.33 112.662,33.513 112.926,33.513Z" fill="#767676"/>
<path d="M116.057,69.526C116.171,69.739 116.38,69.859 116.602,69.859C116.703,69.859 116.805,69.834 116.906,69.777C117.205,69.601 117.313,69.205 117.146,68.891C116.051,66.823 114.963,64.775 113.875,62.745L112.452,62.745C113.642,64.982 114.844,67.238 116.057,69.526Z" fill="#767676"/>
<path d="M103.298,43.253C100.577,38.32 97.91,33.544 95.303,28.944C95.13,28.637 94.747,28.536 94.454,28.718C94.161,28.9 94.06,29.303 94.239,29.611C97.145,34.738 100.129,40.099 103.179,45.648L103.179,44.824C103.179,44.29 103.226,43.769 103.298,43.253Z" fill="#767676"/>
<path d="M85.425,55.091C85.203,55.368 85.233,55.776 85.49,56.009L100.744,69.752C100.864,69.859 101.008,69.909 101.151,69.909C101.324,69.909 101.498,69.834 101.623,69.683C101.845,69.406 101.815,68.998 101.558,68.765L86.304,55.022C86.041,54.784 85.646,54.815 85.425,55.091Z" fill="#767676"/>
<path d="M74.126,43.171C73.875,42.926 73.48,42.939 73.247,43.203C73.014,43.467 73.026,43.881 73.277,44.126L81.194,51.937C81.314,52.057 81.469,52.113 81.619,52.113C81.786,52.113 81.947,52.044 82.073,51.906C82.306,51.642 82.294,51.227 82.043,50.982L74.126,43.171Z" fill="#767676"/>
<path d="M62.4,64.429C62.083,64.285 61.718,64.436 61.58,64.769C61.443,65.102 61.586,65.485 61.903,65.63L71.339,69.934C71.417,69.972 71.501,69.991 71.585,69.991C71.824,69.991 72.051,69.846 72.153,69.595C72.29,69.262 72.147,68.878 71.83,68.734L62.4,64.429Z" fill="#767676"/>
<path d="M133.314,69.205C133.266,69.563 133.5,69.89 133.841,69.94C133.87,69.947 133.9,69.947 133.93,69.947C134.235,69.947 134.498,69.714 134.546,69.387C134.845,67.175 135.078,64.957 135.282,62.739L134.032,62.739C133.835,64.901 133.601,67.062 133.314,69.205Z" fill="#767676"/>
<path d="M138.312,20.581C137.983,20.556 137.666,20.814 137.636,21.172L136.847,30.056C136.817,30.414 137.068,30.735 137.409,30.766C137.427,30.766 137.451,30.766 137.469,30.766C137.786,30.766 138.055,30.515 138.085,30.176L138.874,21.291C138.904,20.933 138.653,20.613 138.312,20.581Z" fill="#767676"/>
<path d="M84.492,34.945L83.888,34.154C83.673,33.871 83.284,33.827 83.015,34.053C82.746,34.279 82.704,34.688 82.919,34.971L83.523,35.762C84.51,37.051 85.532,38.383 86.549,39.652C86.674,39.803 86.848,39.885 87.027,39.885C87.171,39.885 87.308,39.834 87.428,39.734C87.691,39.501 87.727,39.093 87.506,38.816C86.495,37.553 85.478,36.227 84.492,34.945Z" fill="#767676"/>
<path d="M109.865,69.701C109.991,69.852 110.164,69.933 110.344,69.933C110.487,69.933 110.625,69.883 110.744,69.782C111.007,69.55 111.043,69.141 110.822,68.865C105.907,62.713 100.95,56.254 96.154,50.007L93.301,46.294C93.086,46.011 92.698,45.967 92.428,46.193C92.159,46.419 92.117,46.828 92.333,47.111L95.185,50.824C99.981,57.07 104.938,63.536 109.865,69.701Z" fill="#767676"/>
<path d="M76.304,60.376C76.125,60.684 76.208,61.086 76.501,61.275L89.585,69.864C89.686,69.933 89.8,69.964 89.914,69.964C90.123,69.964 90.32,69.857 90.44,69.656C90.619,69.349 90.536,68.946 90.243,68.758L77.165,60.169C76.872,59.981 76.489,60.069 76.304,60.376Z" fill="#767676"/>
<path d="M10.803,88.597C10.922,88.088 11.472,87.315 12.62,86.718C13.918,85.901 15.742,85.449 17.745,85.449C18.235,85.449 18.732,85.474 19.216,85.531C22.911,85.876 25.56,87.673 26.439,89.169L26.541,89.32L34.93,83.52L34.889,83.457C32.03,78.826 26.523,75.684 20.167,75.049C19.395,74.986 18.594,74.923 17.805,74.923C14.181,74.923 10.737,75.797 7.843,77.443C3.782,79.731 1.223,83.476 0.811,87.711C0.039,96.257 6.695,102.755 17.368,103.886C20.418,104.2 22.624,104.948 23.964,106.142C24.933,107.16 24.933,108.121 24.879,108.53C24.831,109.177 24.107,110.006 23.085,110.578C21.727,111.345 19.916,111.772 17.99,111.772C17.5,111.772 16.998,111.747 16.513,111.69C12.878,111.351 10.181,109.56 9.206,108.014L9.152,107.92L0.751,113.632L0.841,113.764C3.699,118.395 9.206,121.537 15.568,122.172C16.304,122.235 17.093,122.298 17.924,122.298C21.476,122.298 24.992,121.424 27.815,119.847C31.935,117.459 34.5,113.72 34.853,109.573C35.624,100.813 29.148,94.466 18.355,93.398C15.634,93.084 10.551,91.708 10.791,88.698L10.797,88.647L10.803,88.597ZM9.356,94.472C11.365,96.188 14.349,97.288 17.984,97.658C24.61,98.337 31.462,101.699 30.799,109.108C30.541,111.829 28.813,114.286 25.925,116.02C23.713,117.283 20.872,117.974 17.93,117.974C17.249,117.974 16.603,117.974 15.957,117.905C12.878,117.566 9.995,116.541 7.849,115.015L7.113,114.493L8.734,113.356L9.063,113.576C10.964,114.851 13.481,115.687 16.148,115.945C16.699,116.007 17.285,116.07 17.936,116.07C20.508,116.07 23.043,115.448 25.04,114.336C27.414,112.903 28.783,111.024 28.999,108.925C29.172,106.833 28.359,104.678 26.78,103.019C24.867,101.133 21.913,99.996 17.757,99.556C12.949,99.097 8.949,97.256 6.772,94.51C5.337,92.694 4.721,90.545 4.937,88.126C5.134,85.399 6.91,82.898 9.804,81.27C12.016,79.944 14.785,79.24 17.817,79.24C18.498,79.24 19.144,79.24 19.79,79.309C22.804,79.649 25.68,80.673 27.892,82.2L28.688,82.747L26.942,83.853L26.631,83.645C24.711,82.389 22.218,81.521 19.605,81.207C19.019,81.144 18.433,81.144 17.811,81.144C15.006,81.144 12.555,81.766 10.677,82.954C8.309,84.23 6.91,86.121 6.742,88.289C6.509,90.683 7.418,92.82 9.356,94.472Z" fill="#767676"/>
<path d="M51.227,122.291L61.506,122.291L61.506,85.788L72.61,85.788L72.61,74.917L40.176,74.917L40.176,85.788L51.221,85.788L51.221,122.291L51.227,122.291ZM44.356,81.339L44.356,79.435L68.383,79.435L68.383,81.339L57.278,81.339L57.278,117.842L55.466,117.842L55.466,81.339L44.356,81.339Z" fill="#767676"/>
<path d="M85.009,108.09L102.715,108.09L94.229,83.52L85.009,108.09ZM88.985,105.199L94.158,91.575L98.804,105.199L88.985,105.199Z" fill="#767676"/>
<path d="M97.656,74.917L90.959,74.917L73.229,122.291L84.226,122.291L87.185,114.443L100.478,114.443L103.133,122.291L114.076,122.291L97.656,74.917ZM103.396,109.994L84.291,109.994L81.331,117.842L79.364,117.842L93.841,79.303L94.726,79.303L108.054,117.842L106.105,117.842L103.396,109.994Z" fill="#767676"/>
<path d="M135.001,122.291L135.001,85.788L146.105,85.788L146.105,74.917L113.672,74.917L113.672,85.788L124.716,85.788L124.716,122.291L135.001,122.291ZM117.846,81.339L117.846,79.435L141.872,79.435L141.872,81.339L130.768,81.339L130.768,117.842L128.956,117.842L128.956,81.339L117.846,81.339Z" fill="#767676"/>
<path d="M151.987,122.291L162.207,122.291L162.207,74.917L151.987,74.917L151.987,122.291ZM156.161,79.303L158.033,79.303L158.033,117.911L156.161,117.911L156.161,79.303Z" fill="#767676"/>
<path d="M212.995,98.538C212.995,85.475 202.854,74.855 190.392,74.855C177.96,74.855 167.849,85.481 167.849,98.538C167.849,111.634 177.96,122.291 190.392,122.291C202.854,122.291 212.995,111.64 212.995,98.538ZM172.022,98.538C172.022,87.894 180.262,79.235 190.392,79.235C200.551,79.235 208.821,87.894 208.821,98.538C208.821,109.221 200.551,117.905 190.392,117.905C180.262,117.905 172.022,109.221 172.022,98.538Z" fill="#767676"/>
<path d="M207.066,98.538C207.066,88.911 199.585,81.075 190.389,81.075C181.228,81.075 173.771,88.911 173.771,98.538C173.771,108.202 181.228,116.063 190.389,116.063C199.585,116.07 207.066,108.202 207.066,98.538ZM190.389,113.236C182.711,113.236 176.462,106.644 176.462,98.538C176.462,90.469 182.711,83.903 190.389,83.903C198.102,83.903 204.375,90.469 204.375,98.538C204.375,106.644 198.102,113.236 190.389,113.236Z" fill="#767676"/>
<path d="M246.951,74.855L246.951,100.681L228.468,74.855L219.923,74.855L219.923,122.291L230.202,122.291L230.202,95.302L249.606,122.291L257.29,122.291L257.29,74.855L246.951,74.855ZM253.002,117.779L251.675,117.779L226.04,82.069L226.04,117.779L224.168,117.779L224.168,79.304L226.363,79.304L251.196,113.915L251.196,79.304L253.008,79.304L253.008,117.779L253.002,117.779Z" fill="#767676"/>
<path d="M55.722,135.732L55.309,134.827C55.225,134.645 55.028,134.57 54.855,134.658L51.925,136.141L51.243,134.651L54.173,133.168C54.346,133.08 54.412,132.873 54.334,132.691L53.922,131.786C53.838,131.604 53.641,131.528 53.467,131.616L45.466,135.669C45.293,135.757 45.221,135.965 45.305,136.147L45.718,137.052C45.801,137.234 45.999,137.31 46.172,137.222L49.85,135.362L50.531,136.851L46.854,138.711C46.68,138.799 46.615,139.006 46.692,139.188L47.105,140.093C47.183,140.263 47.386,140.351 47.559,140.263L55.56,136.21C55.734,136.122 55.794,135.896 55.722,135.732Z" fill="#767676"/>
<path d="M57.31,138.786L56.844,137.906C56.748,137.73 56.533,137.674 56.365,137.774L48.622,142.311C48.454,142.412 48.394,142.626 48.49,142.802L48.956,143.681C49.052,143.857 49.255,143.92 49.423,143.82L57.167,139.282C57.334,139.182 57.4,138.962 57.31,138.786Z" fill="#767676"/>
<path d="M57.593,147.181C57.754,147.074 57.802,146.854 57.695,146.685L56.678,145.013C56.576,144.843 56.367,144.793 56.206,144.906L55.494,145.384C55.333,145.491 55.273,145.717 55.38,145.886L55.697,146.408L53.599,147.816C53.437,147.922 53.222,147.866 53.12,147.696L52.57,146.791C52.474,146.634 52.51,146.402 52.672,146.295L57.509,143.052C57.659,142.952 57.886,143.002 57.982,143.159L58.532,144.064C58.633,144.234 58.585,144.473 58.436,144.573L57.976,144.881C57.814,144.988 57.766,145.208 57.874,145.377L58.388,146.226C58.49,146.395 58.699,146.446 58.861,146.333L59.447,145.937C60.266,145.39 60.493,144.246 59.979,143.398L59.171,142.066C58.651,141.205 57.575,140.96 56.756,141.507L51.643,144.938C50.836,145.478 50.597,146.628 51.111,147.476L51.918,148.808C52.432,149.657 53.527,149.908 54.334,149.368L57.593,147.181Z" fill="#767676"/>
<path d="M64.463,149.984L63.889,149.18C63.775,149.017 63.566,148.991 63.411,149.111L60.815,151.172L59.871,149.852L62.466,147.791C62.615,147.672 62.645,147.452 62.532,147.289L61.957,146.484C61.844,146.321 61.635,146.296 61.479,146.415L54.387,152.039C54.238,152.158 54.208,152.378 54.321,152.542L54.895,153.346C55.009,153.509 55.218,153.541 55.374,153.415L58.633,150.832L59.578,152.152L56.319,154.741C56.163,154.86 56.139,155.086 56.253,155.243L56.827,156.048C56.935,156.198 57.15,156.242 57.305,156.117L64.397,150.493C64.553,150.367 64.571,150.135 64.463,149.984Z" fill="#767676"/>
<path d="M66.801,163.099L70.18,159.649C70.945,158.87 70.963,157.588 70.221,156.784L69.42,155.916C68.679,155.112 67.459,155.093 66.693,155.872L62.585,160.064C61.832,160.837 61.814,162.112 62.556,162.917L64.439,164.953C64.571,165.097 64.792,165.11 64.929,164.972L65.569,164.324C65.707,164.186 65.701,163.954 65.587,163.828L65.205,163.413C65.737,163.639 66.371,163.539 66.801,163.099ZM64.684,162.854L63.734,161.823C63.602,161.679 63.602,161.434 63.728,161.308L67.836,157.117C67.973,156.978 68.206,156.978 68.338,157.123L69.044,157.883C69.175,158.028 69.175,158.273 69.038,158.411L64.684,162.854Z" fill="#767676"/>
<path d="M76.213,162.62L75.495,161.954C75.352,161.822 75.131,161.847 75.005,161.998L70.191,167.761C70.066,167.912 69.845,167.918 69.701,167.786L68.942,167.082C68.798,166.95 68.774,166.718 68.9,166.567L73.714,160.81C73.839,160.66 73.833,160.427 73.69,160.295L72.972,159.629C72.828,159.497 72.607,159.522 72.482,159.673L67.56,165.561C66.927,166.315 66.998,167.49 67.722,168.157L68.852,169.2C69.57,169.866 70.688,169.784 71.322,169.03L76.243,163.142C76.356,162.985 76.356,162.752 76.213,162.62Z" fill="#767676"/>
<path d="M80.363,166.001L78.725,164.707C78.581,164.594 78.39,164.606 78.259,164.738L72.787,170.331C72.727,170.394 72.703,170.425 72.668,170.469L71.944,171.481C71.83,171.645 71.86,171.865 72.01,171.984L72.775,172.587C72.931,172.707 73.14,172.675 73.254,172.518L74.001,171.475L75.466,172.631L74.719,173.674C74.605,173.838 74.635,174.058 74.778,174.171L75.556,174.78C75.711,174.9 75.921,174.868 76.034,174.711L76.758,173.699C76.794,173.655 76.817,173.618 76.853,173.542L80.453,166.473C80.525,166.328 80.507,166.114 80.363,166.001ZM76.249,171.211L75.089,170.293L78.564,166.699L76.249,171.211Z" fill="#767676"/>
<path d="M81.313,176.834L79.71,175.735L83.89,168.98C83.991,168.81 83.95,168.59 83.788,168.483L82.987,167.937C82.825,167.83 82.616,167.874 82.514,168.044L77.671,175.873C77.563,176.043 77.611,176.263 77.773,176.369L80.464,178.21C80.625,178.317 80.834,178.273 80.936,178.104L81.414,177.331C81.516,177.161 81.474,176.941 81.313,176.834Z" fill="#767676"/>
<path d="M88.277,171.387L87.452,170.884C87.284,170.783 87.075,170.852 86.979,171.028L82.536,179.09C82.441,179.266 82.495,179.48 82.662,179.58L83.487,180.083C83.655,180.183 83.858,180.127 83.954,179.951L88.396,171.889C88.486,171.713 88.438,171.487 88.277,171.387Z" fill="#767676"/>
<path d="M93.348,175.673L93.755,174.831C93.839,174.649 93.761,174.435 93.605,174.347L90.059,172.456C89.892,172.362 89.689,172.437 89.599,172.613L89.192,173.455C89.109,173.637 89.174,173.845 89.342,173.939L90.376,174.492L86.92,181.649C86.83,181.825 86.914,182.045 87.07,182.133L87.925,182.585C88.098,182.673 88.295,182.604 88.385,182.428L91.841,175.271L92.888,175.83C93.049,175.912 93.265,175.849 93.348,175.673Z" fill="#767676"/>
<path d="M98.996,178.739L99.522,177.426C99.594,177.243 99.516,177.036 99.337,176.954L98.458,176.565C98.279,176.489 98.087,176.571 98.009,176.759L97.609,177.765C97.567,177.872 97.501,177.966 97.423,178.041L95.803,179.537L95.683,177.275C95.671,177.162 95.689,177.042 95.731,176.935L96.132,175.93C96.204,175.741 96.126,175.54 95.946,175.459L95.061,175.069C94.882,174.994 94.691,175.075 94.613,175.258L94.087,176.571C94.027,176.715 94.009,176.879 94.003,177.036L94.236,181.202L92.867,184.621C92.795,184.809 92.873,185.01 93.052,185.092L93.931,185.482C94.111,185.557 94.302,185.475 94.38,185.287L95.743,181.868L98.727,179.122C98.853,179.015 98.936,178.883 98.996,178.739Z" fill="#767676"/>
<path d="M99.384,185.877L98.523,185.557C98.343,185.488 98.158,185.576 98.092,185.764L97.781,186.682C97.715,186.87 97.811,187.059 97.996,187.128L98.242,187.222L97.979,187.486C97.919,187.543 97.865,187.612 97.835,187.693L97.751,187.951C97.715,188.058 97.775,188.19 97.865,188.221L98.301,188.385C98.391,188.416 98.511,188.36 98.553,188.246L98.577,188.177C98.6,188.108 98.66,188.058 98.684,188.033L99.079,187.631C99.127,187.574 99.163,187.511 99.186,187.442L99.569,186.305C99.623,186.116 99.539,185.934 99.384,185.877Z" fill="#767676"/>
<path d="M108.929,188.8L107.075,188.316L108.929,180.499C108.977,180.304 108.863,180.109 108.678,180.065L107.751,179.82C107.565,179.77 107.386,179.889 107.338,180.084L105.192,189.145C105.144,189.34 105.257,189.529 105.443,189.579L108.558,190.396C108.743,190.446 108.923,190.327 108.971,190.132L109.18,189.239C109.222,189.038 109.114,188.85 108.929,188.8Z" fill="#767676"/>
<path d="M115.658,181.604L114.181,181.334C113.224,181.158 112.321,181.843 112.154,182.842L111.12,189.107C110.952,190.113 111.586,191.055 112.543,191.231L114.02,191.501C114.964,191.671 115.873,191.011 116.041,190.006L117.075,183.741C117.243,182.735 116.597,181.774 115.658,181.604ZM114.456,189.528C114.426,189.729 114.235,189.867 114.044,189.83L113.045,189.647C112.854,189.616 112.722,189.415 112.758,189.214L113.739,183.276C113.775,183.074 113.96,182.968 114.145,182.999L115.144,183.181C115.335,183.213 115.473,183.389 115.437,183.583L114.456,189.528Z" fill="#767676"/>
<path d="M125.582,182.735L124.386,182.628C124.261,182.616 124.159,182.71 124.153,182.836L124.057,184.08C124.051,184.18 124.045,184.237 124.021,184.35L123.34,187.951L122.945,182.704C122.927,182.584 122.837,182.49 122.73,182.484L121.695,182.396C121.588,182.383 121.486,182.465 121.462,182.578L120.254,187.687L120.129,184.017C120.123,183.904 120.129,183.847 120.135,183.747L120.23,182.502C120.242,182.377 120.153,182.264 120.033,182.257L118.837,182.151C118.717,182.138 118.61,182.232 118.604,182.358L118.496,183.734C118.49,183.803 118.484,183.891 118.49,184.023L118.939,191.929C118.951,192.117 119.076,192.256 119.256,192.274L120.32,192.369C120.482,192.381 120.643,192.268 120.673,192.08L121.929,186.21L122.251,192.218C122.263,192.406 122.389,192.545 122.568,192.564L123.615,192.658C123.794,192.67 123.938,192.557 123.98,192.375L125.654,184.652C125.678,184.526 125.684,184.438 125.69,184.369L125.797,182.993C125.791,182.854 125.702,182.748 125.582,182.735Z" fill="#767676"/>
<path d="M133.432,182.616L131.082,182.735C130.891,182.748 130.748,182.911 130.759,183.112L131.196,192.437C131.208,192.638 131.363,192.789 131.555,192.776L132.512,192.726C132.703,192.714 132.846,192.55 132.834,192.349L132.637,188.177L133.69,188.12C134.879,188.057 135.812,186.977 135.753,185.714L135.711,184.796C135.651,183.533 134.616,182.553 133.432,182.616ZM133.606,186.386L132.553,186.442L132.452,184.319L133.504,184.262C133.803,184.249 134.048,184.494 134.06,184.809L134.108,185.795C134.126,186.103 133.905,186.367 133.606,186.386Z" fill="#767676"/>
<path d="M142.551,189.465L141.044,187.228C141.792,186.782 142.264,185.883 142.144,184.916L142.037,184.017C141.887,182.761 140.805,181.862 139.609,182.019L137.265,182.327C137.086,182.352 136.942,182.528 136.966,182.729L138.06,191.991C138.084,192.192 138.264,192.324 138.443,192.305L139.394,192.179C139.585,192.154 139.717,191.978 139.693,191.777L139.178,187.461L140.966,190.093C141.056,190.257 141.098,190.407 141.116,190.564L141.235,191.564C141.259,191.765 141.439,191.897 141.63,191.871L142.581,191.746C142.772,191.721 142.886,191.545 142.862,191.35L142.694,189.924C142.682,189.767 142.635,189.597 142.551,189.465ZM140.063,185.783L139.005,185.921L138.754,183.797L139.812,183.659C140.099,183.622 140.368,183.829 140.404,184.143L140.518,185.129C140.56,185.456 140.35,185.745 140.063,185.783Z" fill="#767676"/>
<path d="M144.442,181.215L143.503,181.397C143.318,181.435 143.199,181.63 143.234,181.831L144.837,190.999C144.873,191.2 145.046,191.326 145.238,191.288L146.177,191.106C146.362,191.068 146.488,190.886 146.452,190.691L144.849,181.523C144.813,181.322 144.634,181.177 144.442,181.215Z" fill="#767676"/>
<path d="M152.463,185.217C152.415,185.023 152.229,184.891 152.044,184.941L151.117,185.18C150.932,185.23 150.824,185.431 150.872,185.626L151.38,187.819C151.428,188.014 151.303,188.208 151.129,188.252L150.131,188.51C149.945,188.56 149.748,188.447 149.706,188.252L148.343,182.396C148.295,182.201 148.42,182.006 148.606,181.956L149.604,181.698C149.778,181.654 149.969,181.767 150.017,181.962L150.34,183.345C150.388,183.54 150.573,183.671 150.758,183.621L151.685,183.382C151.871,183.332 151.978,183.131 151.93,182.936L151.572,181.403C151.338,180.41 150.4,179.813 149.455,180.052L147.996,180.429C147.051,180.674 146.483,181.661 146.71,182.654L148.151,188.849C148.378,189.823 149.335,190.439 150.268,190.2L151.727,189.823C152.672,189.578 153.24,188.579 153.013,187.599L152.463,185.217Z" fill="#767676"/>
<path d="M158.842,186.267C158.782,186.078 158.596,185.971 158.411,186.034L156.605,186.644L155.726,183.759L156.868,183.37C157.048,183.307 157.149,183.112 157.09,182.917L156.832,182.069C156.773,181.881 156.587,181.774 156.402,181.837L155.26,182.22L154.638,180.184L156.444,179.574C156.623,179.512 156.725,179.317 156.665,179.122L156.396,178.249C156.336,178.06 156.151,177.953 155.965,178.016L152.91,179.047C152.73,179.109 152.629,179.304 152.689,179.499L155.403,188.384C155.463,188.573 155.648,188.68 155.834,188.617L158.89,187.586C159.069,187.523 159.171,187.329 159.111,187.134L158.842,186.267Z" fill="#767676"/>
<path d="M162.559,186.279C162.559,186.204 162.547,186.128 162.524,186.065L162.117,184.941C162.051,184.752 161.872,184.67 161.722,184.733L160.867,185.073C160.688,185.142 160.598,185.336 160.664,185.525L160.993,186.436C161.058,186.625 161.25,186.7 161.429,186.631L161.674,186.537L161.638,186.92C161.626,187.001 161.626,187.089 161.656,187.171L161.746,187.429C161.782,187.536 161.908,187.592 161.997,187.561L162.434,187.385C162.524,187.347 162.577,187.221 162.541,187.115L162.518,187.045C162.494,186.976 162.506,186.895 162.512,186.863L162.559,186.279Z" fill="#767676"/>
<path d="M171.201,177.62C170.944,177.079 170.513,176.696 170.005,176.501C170.071,176.062 169.999,175.622 169.796,175.201L169.395,174.365C168.857,173.234 167.547,172.769 166.471,173.341L164.348,174.465C164.175,174.553 164.109,174.767 164.199,174.949L168.193,183.288C168.277,183.47 168.48,183.539 168.654,183.445L170.974,182.22C172.05,181.654 172.475,180.272 171.931,179.141L171.201,177.62ZM166.214,175.32L167.177,174.811C167.434,174.673 167.763,174.792 167.9,175.069L168.325,175.955C168.456,176.225 168.343,176.57 168.086,176.709L167.123,177.218L166.214,175.32ZM170.256,180.724L169.096,181.34L167.816,178.669L168.977,178.053C169.234,177.915 169.563,178.035 169.7,178.317L170.477,179.945C170.621,180.24 170.513,180.586 170.256,180.724Z" fill="#767676"/>
<path d="M177.523,176.854C177.427,176.684 177.218,176.628 177.057,176.728L175.43,177.753L173.947,175.151L174.982,174.504C175.143,174.403 175.197,174.183 175.101,174.013L174.665,173.247C174.563,173.077 174.36,173.021 174.199,173.121L173.164,173.768L172.118,171.933L173.75,170.909C173.912,170.809 173.965,170.589 173.87,170.419L173.421,169.633C173.326,169.464 173.116,169.407 172.955,169.508L170.198,171.242C170.037,171.343 169.983,171.563 170.079,171.732L174.641,179.738C174.737,179.908 174.946,179.964 175.107,179.864L177.864,178.13C178.025,178.029 178.079,177.809 177.984,177.639L177.523,176.854Z" fill="#767676"/>
<path d="M181.736,170.462C181.036,169.413 179.685,169.168 178.692,169.897L178.178,170.274C177.927,170.443 177.592,170.393 177.419,170.136L176.94,169.419C176.767,169.162 176.838,168.81 177.084,168.634L177.598,168.257C177.843,168.074 178.178,168.125 178.351,168.389L178.519,168.634C178.626,168.797 178.836,168.835 178.997,168.722L179.781,168.143C179.936,168.03 179.972,167.81 179.864,167.641L179.733,167.44C179.045,166.403 177.682,166.145 176.689,166.874L176.175,167.251C175.188,167.974 174.949,169.419 175.636,170.45L176.085,171.122C176.773,172.159 178.13,172.385 179.123,171.675L179.637,171.298C179.882,171.116 180.217,171.172 180.39,171.43L181.407,172.957C181.58,173.215 181.521,173.573 181.276,173.755L180.761,174.132C180.516,174.315 180.175,174.252 180.002,173.994L179.32,172.97C179.212,172.806 179.003,172.769 178.842,172.882L178.058,173.46C177.903,173.573 177.867,173.793 177.975,173.963L178.62,174.924C179.308,175.961 180.683,176.212 181.664,175.49L182.178,175.113C183.165,174.39 183.404,172.945 182.717,171.914L181.736,170.462Z" fill="#767676"/>
<path d="M182.8,164.041L183.709,163.262C183.846,163.142 183.876,162.91 183.757,162.759L183.189,162.024C183.069,161.867 182.848,161.854 182.71,161.973L179.631,164.613C179.481,164.738 179.463,164.965 179.583,165.115L180.151,165.851C180.271,166.008 180.486,166.027 180.629,165.901L181.526,165.128L186.352,171.343C186.471,171.5 186.693,171.513 186.83,171.393L187.571,170.759C187.721,170.633 187.739,170.407 187.619,170.256L182.8,164.041Z" fill="#767676"/>
<path d="M193.96,158.555C193.822,158.416 193.601,158.41 193.469,158.555L192.806,159.277C192.674,159.422 192.686,159.654 192.824,159.792L194.366,161.363C194.504,161.502 194.498,161.741 194.372,161.872L193.661,162.645C193.529,162.79 193.308,162.803 193.17,162.664L189.045,158.467C188.907,158.328 188.913,158.09 189.045,157.951L189.756,157.178C189.882,157.046 190.103,157.028 190.24,157.172L191.215,158.159C191.353,158.297 191.574,158.303 191.705,158.159L192.369,157.436C192.501,157.291 192.489,157.059 192.351,156.921L191.269,155.821C190.569,155.111 189.469,155.13 188.793,155.865L187.747,157.002C187.071,157.738 187.089,158.894 187.789,159.604L192.148,164.04C192.836,164.738 193.954,164.719 194.623,163.996L195.67,162.859C196.346,162.124 196.316,160.961 195.628,160.258L193.96,158.555Z" fill="#767676"/>
<path d="M194.329,149.708C194.179,149.582 193.964,149.614 193.85,149.758L193.24,150.531C193.121,150.688 193.139,150.908 193.288,151.04L195.794,153.221L194.789,154.49L192.284,152.309C192.134,152.184 191.925,152.203 191.799,152.36L191.189,153.133C191.07,153.29 191.088,153.51 191.237,153.635L198.078,159.586C198.228,159.712 198.437,159.693 198.562,159.536L199.172,158.763C199.292,158.606 199.274,158.386 199.125,158.26L195.979,155.521L196.984,154.251L200.129,156.991C200.279,157.117 200.488,157.098 200.608,156.941L201.217,156.168C201.331,156.023 201.319,155.791 201.17,155.665L194.329,149.708Z" fill="#767676"/>
<path d="M204.299,148.551L199.312,144.944C198.51,144.366 197.41,144.58 196.866,145.409L196.011,146.71C195.461,147.552 195.67,148.696 196.471,149.274L201.458,152.881C202.26,153.459 203.342,153.252 203.892,152.409L204.747,151.109C205.291,150.279 205.1,149.129 204.299,148.551ZM203.312,150.38L202.738,151.253C202.63,151.417 202.403,151.461 202.242,151.348L197.512,147.929C197.356,147.816 197.332,147.59 197.44,147.426L198.014,146.553C198.122,146.39 198.331,146.327 198.487,146.44L203.216,149.858C203.384,149.978 203.426,150.216 203.312,150.38Z" fill="#767676"/>
<path d="M207.505,146L199.964,141.092C199.803,140.985 199.582,141.029 199.48,141.198L198.978,142.053C198.876,142.223 198.936,142.449 199.097,142.556L206.638,147.464C206.799,147.571 207.008,147.521 207.11,147.345L207.612,146.49C207.72,146.32 207.672,146.1 207.505,146Z" fill="#767676"/>
<path d="M209.742,138.793L207.697,137.63C207.529,137.536 207.314,137.593 207.224,137.768L206.77,138.655C206.68,138.83 206.752,139.05 206.919,139.145L208.809,140.219C208.976,140.314 209.03,140.54 208.947,140.703L208.462,141.652C208.373,141.828 208.163,141.903 207.99,141.809L202.943,138.937C202.776,138.843 202.722,138.617 202.811,138.441L203.302,137.492C203.385,137.329 203.595,137.253 203.762,137.347L204.952,138.026C205.12,138.12 205.335,138.064 205.425,137.888L205.879,137.002C205.969,136.826 205.897,136.606 205.73,136.505L204.408,135.751C203.553,135.267 202.5,135.594 202.04,136.493L201.322,137.882C200.862,138.78 201.173,139.886 202.028,140.37L207.368,143.405C208.211,143.883 209.281,143.55 209.736,142.664L210.453,141.275C210.914,140.383 210.585,139.27 209.742,138.793Z" fill="#767676"/>
<path d="M213.508,133.753L212.712,133.376C212.539,133.294 212.342,133.37 212.258,133.552L211.475,135.368L208.849,134.118L209.346,132.968C209.423,132.785 209.352,132.578 209.178,132.49L208.407,132.126C208.234,132.044 208.036,132.119 207.952,132.301L207.456,133.451L205.602,132.572L206.386,130.756C206.464,130.573 206.392,130.366 206.212,130.278L205.417,129.901C205.244,129.819 205.046,129.895 204.963,130.077L203.641,133.15C203.563,133.332 203.635,133.539 203.809,133.627L211.899,137.473C212.072,137.555 212.27,137.48 212.354,137.291L213.675,134.218C213.759,134.042 213.681,133.835 213.508,133.753Z" fill="#767676"/>
<path d="M45.705,54.406L53.598,58.679C53.765,58.773 53.969,58.704 54.058,58.522L54.495,57.63C54.585,57.448 54.519,57.24 54.345,57.146L50.811,55.236L51.29,54.256C51.834,53.144 51.409,51.755 50.339,51.177L49.562,50.756C48.491,50.178 47.17,50.624 46.626,51.736L45.549,53.929C45.466,54.105 45.531,54.318 45.705,54.406ZM48.025,52.484C48.162,52.201 48.485,52.107 48.754,52.251L49.592,52.704C49.849,52.842 49.956,53.175 49.825,53.458L49.34,54.438L47.541,53.464L48.025,52.484Z" fill="#767676"/>
<path d="M49.315,47.324L56.844,52.27C57.005,52.377 57.221,52.314 57.316,52.157L57.825,51.302C57.926,51.133 57.878,50.913 57.717,50.806L54.207,48.5L57.274,48.701C57.448,48.732 57.591,48.789 57.717,48.877L58.53,49.411C58.692,49.518 58.907,49.455 59.009,49.285L59.517,48.43C59.619,48.261 59.565,48.053 59.403,47.947L58.243,47.186C58.118,47.104 57.962,47.035 57.813,47.023L55.212,46.841C55.355,45.955 54.984,44.999 54.201,44.484L53.471,44.006C52.449,43.334 51.103,43.655 50.464,44.723L49.214,46.828C49.112,46.985 49.154,47.218 49.315,47.324ZM51.791,45.596C51.941,45.339 52.269,45.251 52.527,45.42L53.328,45.942C53.591,46.118 53.675,46.476 53.519,46.727L52.957,47.676L51.229,46.545L51.791,45.596Z" fill="#767676"/>
<path d="M60.612,46.144C60.767,46.263 60.977,46.232 61.09,46.068L62.992,43.354C63.105,43.19 63.076,42.97 62.92,42.851L62.214,42.304C62.059,42.185 61.85,42.216 61.736,42.38L60.612,43.988L58.292,42.191L59.003,41.173C59.117,41.01 59.087,40.79 58.932,40.67L58.25,40.142C58.094,40.023 57.885,40.055 57.772,40.218L57.06,41.236L55.422,39.967L56.546,38.358C56.659,38.194 56.629,37.975 56.474,37.855L55.768,37.308C55.613,37.189 55.404,37.22 55.29,37.384L53.388,40.099C53.275,40.262 53.305,40.482 53.46,40.601L60.612,46.144Z" fill="#767676"/>
<path d="M62.933,40.192C63.005,40.28 63.077,40.343 63.107,40.375L64.051,41.273C64.195,41.405 64.404,41.393 64.536,41.242L65.17,40.488C65.295,40.337 65.283,40.117 65.14,39.979L64.344,39.237C64.285,39.181 64.231,39.13 64.183,39.067L61.271,35.655L64.733,38.049C64.877,38.144 65.068,38.112 65.176,37.98L65.863,37.163C65.971,37.038 65.971,36.843 65.863,36.705L63.184,33.387L66.766,36.007C66.838,36.051 66.886,36.101 66.952,36.158L67.747,36.9C67.89,37.031 68.106,37.019 68.231,36.868L68.865,36.114C68.985,35.976 68.979,35.737 68.835,35.605L67.873,34.732C67.843,34.7 67.771,34.637 67.681,34.568L61.402,30.257C61.259,30.163 61.08,30.188 60.96,30.326L60.272,31.143C60.165,31.275 60.165,31.464 60.272,31.602L63.388,35.592L59.25,32.815C59.106,32.721 58.927,32.746 58.807,32.884L58.126,33.688C58.006,33.827 58.012,34.021 58.114,34.16L62.933,40.192Z" fill="#767676"/>
<path d="M70.335,34.11C70.466,34.254 70.682,34.261 70.819,34.116L71.507,33.419C71.644,33.28 71.65,33.054 71.513,32.91L65.342,26.217C65.21,26.073 64.989,26.06 64.852,26.199L64.164,26.896C64.026,27.034 64.032,27.267 64.164,27.411L70.335,34.11Z" fill="#767676"/>
<path d="M72.325,30.062C72.941,30.829 74.059,30.93 74.789,30.282L75.937,29.264C76.666,28.617 76.762,27.442 76.146,26.676L71.332,20.687C71.207,20.536 70.986,20.505 70.842,20.631L70.112,21.278C69.969,21.41 69.957,21.642 70.083,21.793L74.795,27.65C74.92,27.8 74.89,28.033 74.741,28.165L73.97,28.85C73.826,28.982 73.599,28.969 73.479,28.818L68.767,22.962C68.641,22.811 68.42,22.78 68.277,22.905L67.547,23.553C67.404,23.685 67.392,23.917 67.517,24.068L72.325,30.062Z" fill="#767676"/>
<path d="M77.77,25.155C77.824,25.256 77.872,25.338 77.902,25.375L78.613,26.481C78.721,26.645 78.93,26.689 79.092,26.575L79.875,26.004C80.03,25.891 80.072,25.671 79.965,25.507L79.361,24.584C79.313,24.514 79.277,24.452 79.241,24.376L77.196,20.329L80.006,23.522C80.12,23.647 80.317,23.666 80.449,23.566L81.304,22.943C81.442,22.843 81.483,22.661 81.412,22.497L79.564,18.601L82.44,22.045C82.5,22.108 82.536,22.164 82.584,22.24L83.188,23.163C83.295,23.327 83.505,23.371 83.66,23.258L84.449,22.686C84.593,22.579 84.647,22.353 84.533,22.189L83.797,21.102C83.774,21.065 83.72,20.983 83.648,20.895L78.535,15.139C78.422,15.013 78.236,14.988 78.093,15.095L77.238,15.717C77.1,15.818 77.058,16.006 77.13,16.163L79.247,20.819L75.862,17.087C75.749,16.961 75.564,16.936 75.42,17.043L74.577,17.652C74.433,17.759 74.386,17.948 74.457,18.105L77.77,25.155Z" fill="#767676"/>
<path d="M89.317,17.621C89.742,18.526 90.8,18.903 91.661,18.463L93.013,17.765C93.874,17.319 94.233,16.207 93.814,15.302L92.11,11.651C92.026,11.469 91.823,11.4 91.649,11.488L89.957,12.361C89.784,12.449 89.718,12.663 89.801,12.839L90.178,13.637C90.262,13.819 90.471,13.901 90.639,13.813L91.165,13.543L92.265,15.887C92.349,16.069 92.265,16.282 92.098,16.37L91.177,16.848C91.015,16.93 90.806,16.867 90.722,16.685L88.193,11.268C88.115,11.098 88.187,10.872 88.348,10.79L89.269,10.313C89.443,10.225 89.658,10.3 89.736,10.47L89.975,10.985C90.059,11.167 90.262,11.237 90.435,11.149L91.296,10.702C91.47,10.614 91.536,10.401 91.452,10.225L91.141,9.565C90.71,8.648 89.658,8.283 88.797,8.723L87.445,9.421C86.572,9.873 86.22,10.966 86.65,11.884L89.317,17.621Z" fill="#767676"/>
<path d="M95.673,14.466C95.691,14.554 95.703,14.592 95.727,14.642L96.163,15.817C96.235,16.005 96.426,16.093 96.606,16.018L97.497,15.654C97.676,15.578 97.76,15.377 97.688,15.189L97.234,13.969L98.938,13.266L99.392,14.485C99.464,14.673 99.655,14.761 99.823,14.692L100.726,14.321C100.905,14.246 100.989,14.045 100.917,13.856L100.481,12.681C100.463,12.625 100.445,12.587 100.403,12.512L96.57,5.574C96.492,5.436 96.307,5.342 96.139,5.411L94.232,6.196C94.065,6.266 93.969,6.441 94.011,6.624L95.673,14.466ZM98.196,11.839L96.845,12.392L95.763,7.397L98.196,11.839Z" fill="#767676"/>
<path d="M100.938,6.913C101.278,8.126 102.498,8.792 103.652,8.446L104.256,8.258C104.543,8.17 104.848,8.327 104.932,8.628L105.44,10.419C105.524,10.721 105.362,11.041 105.069,11.135L104.466,11.324C104.179,11.412 103.874,11.242 103.784,10.934L103.443,9.734C103.389,9.539 103.204,9.433 103.018,9.489L102.104,9.778C101.918,9.835 101.817,10.03 101.876,10.224L102.193,11.355C102.534,12.568 103.76,13.266 104.914,12.901L105.518,12.713C106.672,12.354 107.33,11.066 106.989,9.854L106.51,8.157C106.164,6.932 104.956,6.247 103.79,6.611L103.186,6.8C102.893,6.875 102.594,6.718 102.504,6.41L102.265,5.568C102.181,5.267 102.349,4.959 102.636,4.865L103.24,4.676C103.527,4.588 103.832,4.745 103.915,5.047L103.999,5.336C104.053,5.531 104.238,5.637 104.424,5.581L105.339,5.292C105.524,5.235 105.626,5.04 105.566,4.846L105.5,4.613C105.159,3.4 103.945,2.703 102.779,3.067L102.175,3.256C101.021,3.614 100.358,4.902 100.704,6.115L100.938,6.913Z" fill="#767676"/>
<path d="M109.34,9.716C109.538,10.715 110.459,11.35 111.403,11.143L112.874,10.822C113.813,10.621 114.429,9.647 114.232,8.654L113.012,2.427C112.815,1.428 111.882,0.78 110.943,0.981L109.472,1.302C108.521,1.509 107.917,2.49 108.114,3.489L109.34,9.716ZM110.034,2.867L111.027,2.653C111.212,2.615 111.403,2.716 111.439,2.917L112.599,8.824C112.635,9.019 112.51,9.226 112.324,9.264L111.332,9.477C111.146,9.515 110.949,9.383 110.913,9.188L109.759,3.281C109.717,3.087 109.849,2.911 110.034,2.867Z" fill="#767676"/>
<path d="M117.191,10.042L120.379,9.621C120.57,9.596 120.701,9.42 120.678,9.219L120.57,8.308C120.546,8.107 120.379,7.975 120.187,8L118.292,8.251L117.335,0.258C117.311,0.057 117.144,-0.075 116.952,-0.05L116.001,0.076C115.81,0.101 115.685,0.277 115.708,0.478L116.821,9.741C116.833,9.935 117.006,10.067 117.191,10.042Z" fill="#767676"/>
<path d="M123.13,9.383L124.086,9.314C124.278,9.301 124.415,9.132 124.403,8.931L123.817,-0.363C123.805,-0.564 123.644,-0.728 123.453,-0.709L122.496,-0.64C122.304,-0.627 122.167,-0.445 122.179,-0.244L122.765,9.05C122.777,9.251 122.938,9.396 123.13,9.383Z" fill="#767676"/>
<path d="M127.118,9.15L128.003,9.15C128.194,9.15 128.344,8.993 128.344,8.792L128.35,2.879L130.132,8.899C130.173,9.056 130.311,9.157 130.46,9.157L131.471,9.157C131.662,9.157 131.812,8.999 131.812,8.798L131.824,-0.533C131.824,-0.734 131.674,-0.891 131.483,-0.891L130.568,-0.891C130.377,-0.891 130.227,-0.734 130.227,-0.533L130.221,4.507L128.631,-0.652C128.577,-0.797 128.451,-0.897 128.302,-0.897L127.124,-0.897C126.932,-0.897 126.783,-0.74 126.783,-0.539L126.771,8.792C126.777,8.993 126.926,9.15 127.118,9.15Z" fill="#767676"/>
<path d="M134.464,9.314L137.663,9.591C137.854,9.609 138.016,9.465 138.034,9.264L138.106,8.346C138.124,8.145 137.986,7.976 137.795,7.957L135.899,7.793L136.132,4.771L137.328,4.871C137.52,4.89 137.681,4.746 137.699,4.545L137.771,3.659C137.789,3.457 137.651,3.288 137.46,3.269L136.258,3.168L136.425,1.038L138.321,1.202C138.512,1.22 138.674,1.076 138.692,0.875L138.763,-0.043C138.781,-0.244 138.644,-0.413 138.452,-0.432L135.253,-0.709C135.062,-0.728 134.9,-0.583 134.883,-0.382L134.159,8.924C134.135,9.126 134.273,9.295 134.464,9.314Z" fill="#767676"/>
<path d="M140.508,9.967L140.765,10.005L140.556,10.319C140.508,10.382 140.466,10.463 140.454,10.551L140.419,10.822C140.401,10.935 140.484,11.048 140.58,11.06L141.04,11.129C141.136,11.142 141.244,11.06 141.256,10.947L141.268,10.878C141.28,10.809 141.327,10.74 141.345,10.715L141.656,10.237C141.692,10.168 141.716,10.099 141.728,10.03L141.889,8.836C141.913,8.635 141.8,8.471 141.638,8.453L140.73,8.314C140.538,8.283 140.371,8.409 140.347,8.603L140.215,9.571C140.191,9.772 140.317,9.936 140.508,9.967Z" fill="#767676"/>
<path d="M144.313,10.583L146.639,11.098C147.817,11.362 148.983,10.558 149.228,9.326L150.299,4.003C150.55,2.753 149.79,1.528 148.613,1.264L146.286,0.748C146.101,0.704 145.916,0.843 145.88,1.037L144.05,10.155C144.008,10.356 144.122,10.539 144.313,10.583ZM147.237,2.615L148.296,2.847C148.589,2.91 148.78,3.218 148.72,3.526L147.614,9.031C147.554,9.338 147.261,9.54 146.968,9.477L145.91,9.244L147.237,2.615Z" fill="#767676"/>
<path d="M151.238,12.286L152.159,12.556C152.345,12.613 152.53,12.5 152.578,12.311L154.988,3.338C155.041,3.143 154.94,2.936 154.754,2.879L153.834,2.609C153.648,2.552 153.457,2.678 153.409,2.873L150.999,11.846C150.945,12.035 151.053,12.229 151.238,12.286Z" fill="#767676"/>
<path d="M155.107,13.499L158.138,14.611C158.318,14.68 158.509,14.579 158.575,14.391L158.862,13.524C158.928,13.335 158.832,13.134 158.653,13.065L156.859,12.405L157.809,9.546L158.946,9.961C159.125,10.03 159.316,9.93 159.382,9.741L159.663,8.899C159.729,8.711 159.633,8.51 159.454,8.44L158.318,8.026L158.993,6.009L160.787,6.669C160.967,6.738 161.158,6.637 161.224,6.449L161.511,5.581C161.577,5.393 161.481,5.192 161.302,5.123L158.27,4.011C158.09,3.942 157.899,4.042 157.833,4.231L154.897,13.04C154.838,13.235 154.927,13.436 155.107,13.499Z" fill="#767676"/>
<path d="M162.354,16.421L162.928,16.685C164.028,17.194 165.326,16.666 165.81,15.51L166.486,13.895C166.976,12.726 166.48,11.381 165.368,10.865L164.794,10.601C164.525,10.463 164.393,10.136 164.513,9.841L164.847,9.043C164.967,8.754 165.29,8.634 165.565,8.76L166.139,9.024C166.414,9.15 166.546,9.476 166.426,9.766L166.313,10.042C166.235,10.224 166.312,10.432 166.486,10.513L167.359,10.922C167.532,11.004 167.73,10.922 167.807,10.74L167.903,10.513C168.387,9.357 167.897,8 166.785,7.484L166.211,7.22C165.111,6.711 163.813,7.239 163.329,8.396L163.012,9.143C162.527,10.3 163.042,11.638 164.136,12.16L164.71,12.424C164.985,12.55 165.117,12.876 164.997,13.166L164.279,14.875C164.16,15.164 163.837,15.296 163.556,15.17L162.982,14.906C162.707,14.781 162.581,14.441 162.701,14.146L163.179,13.002C163.257,12.82 163.179,12.612 163.006,12.531L162.133,12.122C161.959,12.041 161.762,12.122 161.684,12.305L161.23,13.379C160.751,14.548 161.254,15.912 162.354,16.421Z" fill="#767676"/>
<path d="M167.164,18.809L169.992,20.411C170.16,20.505 170.363,20.443 170.453,20.267L170.865,19.456C170.955,19.28 170.895,19.066 170.728,18.972L169.053,18.023L170.423,15.359L171.481,15.956C171.649,16.05 171.852,15.987 171.942,15.811L172.342,15.026C172.432,14.85 172.372,14.636 172.205,14.542L171.146,13.945L172.109,12.06L173.783,13.009C173.951,13.103 174.154,13.04 174.25,12.864L174.662,12.054C174.752,11.878 174.692,11.664 174.525,11.57L171.696,9.968C171.529,9.873 171.326,9.936 171.236,10.112L167.026,18.325C166.931,18.501 166.991,18.715 167.164,18.809Z" fill="#767676"/>
<path d="M172.484,21.95L175.193,23.76C175.354,23.867 175.563,23.816 175.665,23.647L176.131,22.874C176.233,22.704 176.185,22.484 176.03,22.377L174.415,21.303L178.523,14.498C178.625,14.328 178.577,14.108 178.416,14.001L177.608,13.461C177.447,13.354 177.238,13.404 177.136,13.574L172.376,21.454C172.274,21.623 172.322,21.843 172.484,21.95Z" fill="#767676"/>
<path d="M177.839,24.081L177.295,24.873C177.181,25.036 177.223,25.243 177.378,25.363L177.588,25.52L177.265,25.696C177.193,25.727 177.121,25.784 177.073,25.853L176.924,26.073C176.858,26.167 176.882,26.305 176.96,26.368L177.337,26.651C177.414,26.707 177.546,26.688 177.612,26.594L177.654,26.538C177.695,26.481 177.767,26.443 177.797,26.431L178.281,26.161C178.341,26.117 178.395,26.066 178.437,26.01L179.107,25.03C179.22,24.866 179.19,24.665 179.053,24.565L178.311,24.005C178.15,23.892 177.947,23.917 177.839,24.081Z" fill="#767676"/>
<path d="M181.25,28.442C181.4,28.568 181.609,28.543 181.729,28.392L184.312,25.049L185.257,25.853C185.406,25.979 185.616,25.954 185.735,25.803L186.279,25.099C186.399,24.942 186.381,24.722 186.232,24.596L185.287,23.792L186.56,22.145L188.043,23.415C188.193,23.54 188.402,23.522 188.522,23.364L189.072,22.648C189.191,22.491 189.168,22.271 189.024,22.145L186.531,20.015C186.381,19.889 186.172,19.908 186.052,20.065L180.449,27.311C180.33,27.468 180.353,27.688 180.497,27.814L181.25,28.442Z" fill="#767676"/>
<path d="M186.019,32.777L187.108,33.864C187.801,34.556 188.92,34.531 189.583,33.802L194.726,28.121C194.857,27.977 194.863,27.744 194.72,27.606L194.026,26.915C193.889,26.776 193.667,26.795 193.536,26.94L188.507,32.495C188.375,32.639 188.154,32.639 188.017,32.495L187.281,31.759C187.144,31.621 187.126,31.389 187.257,31.244L192.286,25.689C192.418,25.545 192.424,25.312 192.28,25.174L191.586,24.483C191.449,24.345 191.228,24.363 191.096,24.508L185.954,30.188C185.302,30.911 185.326,32.086 186.019,32.777Z" fill="#767676"/>
<path d="M190.194,37.158L192.335,39.671C192.46,39.822 192.675,39.834 192.819,39.696L193.471,39.08C193.614,38.948 193.626,38.722 193.495,38.571L192.227,37.082L194.374,35.059L195.175,36.001C195.3,36.152 195.516,36.165 195.659,36.027L196.287,35.43C196.431,35.298 196.442,35.071 196.311,34.921L195.51,33.978L197.022,32.552L198.29,34.035C198.416,34.186 198.631,34.198 198.774,34.06L199.426,33.444C199.57,33.312 199.582,33.086 199.45,32.935L197.309,30.422C197.184,30.271 196.969,30.258 196.825,30.397L190.212,36.624C190.074,36.787 190.068,37.007 190.194,37.158Z" fill="#767676"/>
<path d="M194.163,41.996L196.13,44.66C196.25,44.817 196.459,44.848 196.609,44.723L197.302,44.157C197.452,44.032 197.482,43.812 197.362,43.655L196.19,42.065L202.248,37.132C202.397,37.007 202.427,36.787 202.308,36.63L201.722,35.838C201.602,35.681 201.393,35.65 201.243,35.775L194.223,41.487C194.073,41.612 194.049,41.832 194.163,41.996Z" fill="#767676"/>
<path d="M200.765,52.013L201.519,53.376C201.997,54.244 203.074,54.551 203.911,54.042L209.143,50.844C209.98,50.329 210.267,49.191 209.789,48.324L209.035,46.961C208.545,46.081 207.469,45.792 206.632,46.301L201.399,49.499C200.556,50.015 200.275,51.133 200.765,52.013ZM202.374,50.894L207.331,47.859C207.499,47.759 207.696,47.834 207.792,48.01L208.3,48.928C208.396,49.103 208.36,49.323 208.192,49.424L203.229,52.459C203.062,52.56 202.84,52.497 202.745,52.327L202.236,51.41C202.153,51.234 202.212,50.995 202.374,50.894Z" fill="#767676"/>
<path d="M203.624,57.498L204.048,58.397C204.132,58.579 204.335,58.648 204.503,58.56L212.456,54.432C212.629,54.344 212.707,54.124 212.623,53.942L212.199,53.043C212.115,52.861 211.9,52.798 211.726,52.886L203.773,57.014C203.606,57.109 203.534,57.322 203.624,57.498Z" fill="#767676"/>
<path d="M214.159,57.423C214.087,57.234 213.89,57.153 213.711,57.228L205.524,60.848C205.351,60.923 205.267,61.13 205.345,61.319L206.589,64.429C206.661,64.612 206.858,64.7 207.037,64.618L207.845,64.26C208.024,64.184 208.102,63.977 208.03,63.788L207.288,61.935L214.356,58.812C214.53,58.736 214.613,58.529 214.542,58.34L214.159,57.423Z" fill="#767676"/>
</svg>
