<svg width="184" height="88" viewBox="0 0 184 88" fill="none" xmlns="http://www.w3.org/2000/svg" xmlns:xlink="http://www.w3.org/1999/xlink">
<path d="M73.983,40.955C80.949,37.024 85.953,35.54 90.594,35.691C95.27,35.844 99.868,37.661 106.055,40.976L107.945,37.45C101.653,34.079 96.37,31.878 90.725,31.693C85.045,31.508 79.289,33.367 72.017,37.471L73.983,40.955Z" transform="rotate(0 90 36.447)" fill="#2B2B2B"/>
<path d="M39.564,77.745C20.25,77.745 4.595,62.09 4.595,42.777C4.595,23.463 20.25,7.808 39.564,7.808C58.877,7.808 74.532,23.463 74.532,42.777C74.532,62.09 58.877,77.745 39.564,77.745ZM16.236,58.25C18.534,61.689 21.567,64.575 25.115,66.702C28.663,68.828 32.638,70.14 36.755,70.546C40.871,70.951 45.026,70.438 48.92,69.044C52.815,67.65 56.352,65.41 59.276,62.485C62.201,59.561 64.441,56.023 65.834,52.129C67.227,48.234 67.74,44.079 67.334,39.963C66.929,35.847 65.616,31.871 63.489,28.324C61.363,24.776 58.476,21.744 55.037,19.446C56.545,24.825 56.593,30.508 55.177,35.912C53.761,41.316 50.932,46.245 46.98,50.193C43.032,54.145 38.104,56.973 32.7,58.389C27.297,59.805 21.614,59.757 16.236,58.25L16.236,58.25Z" transform="rotate(-180 39.564 42.777)" fill="#2B2B2B"/>
<path d="M139.563,78.543C120.25,78.543 104.594,62.887 104.594,43.574C104.594,24.261 120.25,8.606 139.563,8.606C158.876,8.606 174.531,24.261 174.531,43.574C174.531,62.887 158.876,78.543 139.563,78.543ZM116.235,59.048C118.534,62.487 121.566,65.373 125.114,67.499C128.662,69.625 132.638,70.938 136.754,71.343C140.87,71.748 145.025,71.236 148.92,69.842C152.814,68.448 156.351,66.208 159.276,63.283C162.2,60.358 164.44,56.821 165.833,52.927C167.227,49.032 167.739,44.877 167.334,40.761C166.928,36.645 165.615,32.669 163.489,29.121C161.362,25.574 158.476,22.542 155.037,20.243C156.544,25.622 156.593,31.306 155.177,36.71C153.761,42.113 150.932,47.043 146.98,50.991C143.032,54.942 138.103,57.771 132.7,59.187C127.297,60.603 121.614,60.555 116.235,59.048L116.235,59.048Z" transform="rotate(360 139.563 43.574)" fill="#2B2B2B"/>
</svg>
