<svg width="1616" height="1100" viewBox="0 0 1616 1100" fill="none" xmlns="http://www.w3.org/2000/svg" xmlns:xlink="http://www.w3.org/1999/xlink">
<path d="M611.811,172.509C610.697,174.056 609.158,175.183 607.413,175.731C605.668,176.279 603.808,176.218 602.097,175.558C601.576,175.392 601.066,175.192 600.568,174.958C601.13,168.49 600.852,161.97 599.741,155.585C599.305,161.073 598.059,166.451 596.049,171.517C594.411,169.748 593.07,167.686 592.086,165.423C590.253,160.742 589.038,155.807 588.477,150.762C585.765,133.574 583.089,115.693 587.514,98.896C593.997,74.358 614.439,56.719 622.977,32.912L627.183,28.845C634.384,42.05 634.702,58.458 631.767,73.431C628.848,88.434 622.964,102.515 618.313,116.983C613.661,131.451 610.177,146.841 612.335,161.98C612.831,165.545 613.587,169.463 611.811,172.509Z" fill="#2F2E41"/>
<path d="M518.324,380.132L490.911,515.152L610.646,557.149L593.039,380.132L518.324,380.132Z" fill="#FFB6B6"/>
<path d="M1363.248,1096.686L1417.504,1096.686L1417.504,828.812C1417.432,759.68 1391.898,693.402 1346.506,644.519C1301.114,595.636 1239.568,568.138 1175.372,568.06L671.12,568.06C606.924,568.138 545.379,595.636 499.986,644.519C454.594,693.402 429.06,759.68 428.988,828.812L428.988,1096.686L483.245,1096.686L483.245,913.682C483.318,843.908 509.089,777.014 554.904,727.676C600.719,678.338 662.836,650.585 727.63,650.506L1118.864,650.506C1183.656,650.585 1245.774,678.338 1291.588,727.676C1337.404,777.014 1363.174,843.908 1363.248,913.682L1363.248,1096.686Z" fill="#E6E6E6"/>
<path d="M703.925,956.548L646.099,937.694C642.339,921.054 640.442,903.988 640.449,886.861C640.477,882.993 641.527,879.214 643.476,875.964C645.426,872.715 648.194,870.131 651.458,868.515C654.721,866.898 658.344,866.316 661.904,866.836C665.463,867.356 668.812,868.957 671.557,871.451C702.571,900.098 748,915.385 777.317,948.03C789.451,961.749 798.562,978.234 803.975,996.261C809.389,1014.288 810.966,1033.396 808.589,1052.169L821.246,1096.255C792.919,1094.053 765.371,1085.265 740.501,1070.493C715.631,1055.722 694.03,1035.321 677.187,1010.694C667.865,996.778 660.208,981.653 654.396,965.676C678.921,962.68 703.925,956.548 703.925,956.548Z" fill="#F2F2F2"/>
<path d="M854.632,1028.745L884.125,1019.129C884.163,1018.96 884.201,1018.791 884.238,1018.623C885.055,1014.738 884.796,1010.681 883.496,1006.952C882.195,1003.223 879.909,999.986 876.919,997.641C873.93,995.296 870.368,993.945 866.674,993.755C862.979,993.565 859.314,994.544 856.13,996.572C842.742,1005.136 827.876,1012.511 817.199,1024.4C811.011,1031.398 806.364,1039.805 803.603,1049C800.842,1058.194 800.037,1067.94 801.249,1077.515L794.794,1100C809.242,1098.877 823.292,1094.395 835.977,1086.861C848.661,1079.327 859.678,1068.922 868.269,1056.361C873.023,1049.264 876.929,1041.549 879.893,1033.4C867.385,1031.872 854.632,1028.745 854.632,1028.745Z" fill="#F2F2F2"/>
<path d="M1093.374,370.51L978.522,370.51C976.898,370.512 975.34,371.21 974.193,372.449C973.046,373.687 972.402,375.366 972.404,377.116L972.404,572.498L1099.509,572.498L1099.509,377.116C1099.509,376.248 1099.351,375.389 1099.043,374.587C1098.734,373.786 1098.283,373.057 1097.713,372.444C1097.143,371.83 1096.467,371.344 1095.722,371.012C1094.978,370.68 1094.18,370.509 1093.374,370.51ZM1036.335,481.524C1032.743,481.506 1029.303,479.961 1026.763,477.226C1024.224,474.491 1022.789,470.787 1022.773,466.919L1022.773,444.383C1022.777,440.513 1024.208,436.803 1026.751,434.068C1029.294,431.333 1032.741,429.797 1036.335,429.797C1039.928,429.797 1043.375,431.333 1045.918,434.068C1048.461,436.803 1049.892,440.513 1049.897,444.383L1049.897,466.919C1049.88,470.787 1048.446,474.491 1045.906,477.226C1043.366,479.961 1039.926,481.506 1036.335,481.524Z" fill="#3F3D56"/>
<path d="M1283.558,65.593L792.612,65.593C788.394,65.6 784.351,67.408 781.368,70.62C778.386,73.832 776.707,78.186 776.7,82.728L776.7,439.495C776.704,444.039 778.382,448.393 781.365,451.607C784.348,454.819 788.393,456.625 792.612,456.631L1283.558,456.631C1287.776,456.625 1291.822,454.819 1294.804,451.607C1297.788,448.393 1299.466,444.039 1299.47,439.495L1299.47,82.728C1299.464,78.186 1297.784,73.832 1294.802,70.62C1291.82,67.408 1287.776,65.601 1283.558,65.593Z" fill="#3F3D56"/>
<path d="M1279.46,77.97L796.714,77.97C794.455,77.975 792.291,78.945 790.696,80.666C789.1,82.388 788.204,84.721 788.204,87.153L788.204,435.076C788.208,437.506 789.106,439.834 790.701,441.552C792.296,443.27 794.458,444.236 796.714,444.24L1279.46,444.24C1281.716,444.236 1283.878,443.27 1285.472,441.552C1287.068,439.834 1287.966,437.506 1287.97,435.076L1287.97,87.153C1287.97,84.721 1287.074,82.388 1285.478,80.666C1283.882,78.945 1281.718,77.975 1279.46,77.97Z" fill="#FFFFFF"/>
<path d="M972.01,566.249L972.01,585.1C972.011,586.076 972.373,587.012 973.014,587.703C973.655,588.394 974.525,588.783 975.432,588.785L1096.481,588.785C1097.387,588.78 1098.255,588.39 1098.896,587.7C1099.537,587.01 1099.898,586.075 1099.903,585.1L1099.903,566.249L972.01,566.249Z" fill="#3F3D56"/>
<path d="M1185.43,595.344L898.222,595.344C897.435,595.344 896.659,595.155 895.949,594.791C895.24,594.427 894.614,593.897 894.119,593.239C893.624,592.582 893.271,591.814 893.086,590.991C892.901,590.168 892.89,589.311 893.052,588.482L897.508,565.689C897.762,564.414 898.413,563.271 899.353,562.449C900.293,561.627 901.466,561.177 902.677,561.172L1180.974,561.172C1182.184,561.177 1183.358,561.627 1184.298,562.449C1185.238,563.271 1185.89,564.414 1186.142,565.689L1190.6,588.482C1190.762,589.311 1190.75,590.168 1190.564,590.991C1190.38,591.814 1190.028,592.582 1189.532,593.239C1189.036,593.897 1188.412,594.427 1187.702,594.791C1186.992,595.155 1186.216,595.344 1185.43,595.344Z" fill="#3F3D56"/>
<path d="M912.463,565.276L905.816,565.276C905.209,565.276 904.717,565.806 904.717,566.46L904.717,569.808C904.717,570.462 905.209,570.992 905.816,570.992L912.463,570.992C913.07,570.992 913.563,570.462 913.563,569.808L913.563,566.46C913.563,565.806 913.07,565.276 912.463,565.276Z" fill="#E6E6E6"/>
<path d="M930.155,565.276L923.508,565.276C922.9,565.276 922.408,565.806 922.408,566.46L922.408,569.808C922.408,570.462 922.9,570.992 923.508,570.992L930.155,570.992C930.762,570.992 931.254,570.462 931.254,569.808L931.254,566.46C931.254,565.806 930.762,565.276 930.155,565.276Z" fill="#E6E6E6"/>
<path d="M947.846,565.276L941.199,565.276C940.592,565.276 940.1,565.806 940.1,566.46L940.1,569.808C940.1,570.462 940.592,570.992 941.199,570.992L947.846,570.992C948.453,570.992 948.946,570.462 948.946,569.808L948.946,566.46C948.946,565.806 948.453,565.276 947.846,565.276Z" fill="#E6E6E6"/>
<path d="M965.538,565.276L958.891,565.276C958.283,565.276 957.791,565.806 957.791,566.46L957.791,569.808C957.791,570.462 958.283,570.992 958.891,570.992L965.538,570.992C966.145,570.992 966.637,570.462 966.637,569.808L966.637,566.46C966.637,565.806 966.145,565.276 965.538,565.276Z" fill="#E6E6E6"/>
<path d="M983.229,565.276L976.582,565.276C975.975,565.276 975.483,565.806 975.483,566.46L975.483,569.808C975.483,570.462 975.975,570.992 976.582,570.992L983.229,570.992C983.836,570.992 984.328,570.462 984.328,569.808L984.328,566.46C984.328,565.806 983.836,565.276 983.229,565.276Z" fill="#E6E6E6"/>
<path d="M1000.92,565.276L994.273,565.276C993.666,565.276 993.174,565.806 993.174,566.46L993.174,569.808C993.174,570.462 993.666,570.992 994.273,570.992L1000.92,570.992C1001.528,570.992 1002.02,570.462 1002.02,569.808L1002.02,566.46C1002.02,565.806 1001.528,565.276 1000.92,565.276Z" fill="#E6E6E6"/>
<path d="M1018.612,565.276L1011.965,565.276C1011.358,565.276 1010.865,565.806 1010.865,566.46L1010.865,569.808C1010.865,570.462 1011.358,570.992 1011.965,570.992L1018.612,570.992C1019.219,570.992 1019.711,570.462 1019.711,569.808L1019.711,566.46C1019.711,565.806 1019.219,565.276 1018.612,565.276Z" fill="#E6E6E6"/>
<path d="M1036.303,565.276L1029.656,565.276C1029.049,565.276 1028.557,565.806 1028.557,566.46L1028.557,569.808C1028.557,570.462 1029.049,570.992 1029.656,570.992L1036.303,570.992C1036.911,570.992 1037.403,570.462 1037.403,569.808L1037.403,566.46C1037.403,565.806 1036.911,565.276 1036.303,565.276Z" fill="#E6E6E6"/>
<path d="M1053.995,565.276L1047.348,565.276C1046.74,565.276 1046.248,565.806 1046.248,566.46L1046.248,569.808C1046.248,570.462 1046.74,570.992 1047.348,570.992L1053.995,570.992C1054.602,570.992 1055.094,570.462 1055.094,569.808L1055.094,566.46C1055.094,565.806 1054.602,565.276 1053.995,565.276Z" fill="#E6E6E6"/>
<path d="M1071.686,565.276L1065.039,565.276C1064.432,565.276 1063.94,565.806 1063.94,566.46L1063.94,569.808C1063.94,570.462 1064.432,570.992 1065.039,570.992L1071.686,570.992C1072.293,570.992 1072.786,570.462 1072.786,569.808L1072.786,566.46C1072.786,565.806 1072.293,565.276 1071.686,565.276Z" fill="#E6E6E6"/>
<path d="M1089.378,565.276L1082.731,565.276C1082.123,565.276 1081.631,565.806 1081.631,566.46L1081.631,569.808C1081.631,570.462 1082.123,570.992 1082.731,570.992L1089.378,570.992C1089.985,570.992 1090.477,570.462 1090.477,569.808L1090.477,566.46C1090.477,565.806 1089.985,565.276 1089.378,565.276Z" fill="#E6E6E6"/>
<path d="M1107.069,565.276L1100.422,565.276C1099.815,565.276 1099.323,565.806 1099.323,566.46L1099.323,569.808C1099.323,570.462 1099.815,570.992 1100.422,570.992L1107.069,570.992C1107.676,570.992 1108.168,570.462 1108.168,569.808L1108.168,566.46C1108.168,565.806 1107.676,565.276 1107.069,565.276Z" fill="#E6E6E6"/>
<path d="M1124.761,565.276L1118.113,565.276C1117.506,565.276 1117.014,565.806 1117.014,566.46L1117.014,569.808C1117.014,570.462 1117.506,570.992 1118.113,570.992L1124.761,570.992C1125.368,570.992 1125.86,570.462 1125.86,569.808L1125.86,566.46C1125.86,565.806 1125.368,565.276 1124.761,565.276Z" fill="#E6E6E6"/>
<path d="M1142.452,565.276L1135.805,565.276C1135.198,565.276 1134.705,565.806 1134.705,566.46L1134.705,569.808C1134.705,570.462 1135.198,570.992 1135.805,570.992L1142.452,570.992C1143.059,570.992 1143.551,570.462 1143.551,569.808L1143.551,566.46C1143.551,565.806 1143.059,565.276 1142.452,565.276Z" fill="#E6E6E6"/>
<path d="M1160.144,565.276L1153.496,565.276C1152.889,565.276 1152.397,565.806 1152.397,566.46L1152.397,569.808C1152.397,570.462 1152.889,570.992 1153.496,570.992L1160.144,570.992C1160.751,570.992 1161.243,570.462 1161.243,569.808L1161.243,566.46C1161.243,565.806 1160.751,565.276 1160.144,565.276Z" fill="#E6E6E6"/>
<path d="M1177.835,565.276L1171.188,565.276C1170.581,565.276 1170.089,565.806 1170.089,566.46L1170.089,569.808C1170.089,570.462 1170.581,570.992 1171.188,570.992L1177.835,570.992C1178.442,570.992 1178.934,570.462 1178.934,569.808L1178.934,566.46C1178.934,565.806 1178.442,565.276 1177.835,565.276Z" fill="#E6E6E6"/>
<path d="M912.254,574.802L905.607,574.802C905,574.802 904.508,575.332 904.508,575.986L904.508,579.334C904.508,579.988 905,580.518 905.607,580.518L912.254,580.518C912.861,580.518 913.354,579.988 913.354,579.334L913.354,575.986C913.354,575.332 912.861,574.802 912.254,574.802Z" fill="#E6E6E6"/>
<path d="M929.946,574.802L923.298,574.802C922.691,574.802 922.199,575.332 922.199,575.986L922.199,579.334C922.199,579.988 922.691,580.518 923.298,580.518L929.946,580.518C930.553,580.518 931.045,579.988 931.045,579.334L931.045,575.986C931.045,575.332 930.553,574.802 929.946,574.802Z" fill="#E6E6E6"/>
<path d="M947.637,574.802L940.99,574.802C940.383,574.802 939.891,575.332 939.891,575.986L939.891,579.334C939.891,579.988 940.383,580.518 940.99,580.518L947.637,580.518C948.244,580.518 948.736,579.988 948.736,579.334L948.736,575.986C948.736,575.332 948.244,574.802 947.637,574.802Z" fill="#E6E6E6"/>
<path d="M965.328,574.802L958.681,574.802C958.074,574.802 957.582,575.332 957.582,575.986L957.582,579.334C957.582,579.988 958.074,580.518 958.681,580.518L965.328,580.518C965.936,580.518 966.428,579.988 966.428,579.334L966.428,575.986C966.428,575.332 965.936,574.802 965.328,574.802Z" fill="#E6E6E6"/>
<path d="M983.02,574.802L976.373,574.802C975.766,574.802 975.273,575.332 975.273,575.986L975.273,579.334C975.273,579.988 975.766,580.518 976.373,580.518L983.02,580.518C983.627,580.518 984.119,579.988 984.119,579.334L984.119,575.986C984.119,575.332 983.627,574.802 983.02,574.802Z" fill="#E6E6E6"/>
<path d="M1000.712,574.802L994.064,574.802C993.457,574.802 992.965,575.332 992.965,575.986L992.965,579.334C992.965,579.988 993.457,580.518 994.064,580.518L1000.712,580.518C1001.319,580.518 1001.811,579.988 1001.811,579.334L1001.811,575.986C1001.811,575.332 1001.319,574.802 1000.712,574.802Z" fill="#E6E6E6"/>
<path d="M1018.403,574.802L1011.756,574.802C1011.149,574.802 1010.656,575.332 1010.656,575.986L1010.656,579.334C1010.656,579.988 1011.149,580.518 1011.756,580.518L1018.403,580.518C1019.01,580.518 1019.502,579.988 1019.502,579.334L1019.502,575.986C1019.502,575.332 1019.01,574.802 1018.403,574.802Z" fill="#E6E6E6"/>
<path d="M1036.094,574.802L1029.447,574.802C1028.84,574.802 1028.348,575.332 1028.348,575.986L1028.348,579.334C1028.348,579.988 1028.84,580.518 1029.447,580.518L1036.094,580.518C1036.701,580.518 1037.193,579.988 1037.193,579.334L1037.193,575.986C1037.193,575.332 1036.701,574.802 1036.094,574.802Z" fill="#E6E6E6"/>
<path d="M1053.786,574.802L1047.139,574.802C1046.531,574.802 1046.039,575.332 1046.039,575.986L1046.039,579.334C1046.039,579.988 1046.531,580.518 1047.139,580.518L1053.786,580.518C1054.393,580.518 1054.885,579.988 1054.885,579.334L1054.885,575.986C1054.885,575.332 1054.393,574.802 1053.786,574.802Z" fill="#E6E6E6"/>
<path d="M1071.477,574.802L1064.83,574.802C1064.223,574.802 1063.731,575.332 1063.731,575.986L1063.731,579.334C1063.731,579.988 1064.223,580.518 1064.83,580.518L1071.477,580.518C1072.084,580.518 1072.576,579.988 1072.576,579.334L1072.576,575.986C1072.576,575.332 1072.084,574.802 1071.477,574.802Z" fill="#E6E6E6"/>
<path d="M1089.169,574.802L1082.521,574.802C1081.914,574.802 1081.422,575.332 1081.422,575.986L1081.422,579.334C1081.422,579.988 1081.914,580.518 1082.521,580.518L1089.169,580.518C1089.776,580.518 1090.268,579.988 1090.268,579.334L1090.268,575.986C1090.268,575.332 1089.776,574.802 1089.169,574.802Z" fill="#E6E6E6"/>
<path d="M1106.86,574.802L1100.213,574.802C1099.606,574.802 1099.114,575.332 1099.114,575.986L1099.114,579.334C1099.114,579.988 1099.606,580.518 1100.213,580.518L1106.86,580.518C1107.467,580.518 1107.959,579.988 1107.959,579.334L1107.959,575.986C1107.959,575.332 1107.467,574.802 1106.86,574.802Z" fill="#E6E6E6"/>
<path d="M1124.552,574.802L1117.904,574.802C1117.297,574.802 1116.805,575.332 1116.805,575.986L1116.805,579.334C1116.805,579.988 1117.297,580.518 1117.904,580.518L1124.552,580.518C1125.159,580.518 1125.651,579.988 1125.651,579.334L1125.651,575.986C1125.651,575.332 1125.159,574.802 1124.552,574.802Z" fill="#E6E6E6"/>
<path d="M1142.243,574.802L1135.596,574.802C1134.989,574.802 1134.496,575.332 1134.496,575.986L1134.496,579.334C1134.496,579.988 1134.989,580.518 1135.596,580.518L1142.243,580.518C1142.85,580.518 1143.342,579.988 1143.342,579.334L1143.342,575.986C1143.342,575.332 1142.85,574.802 1142.243,574.802Z" fill="#E6E6E6"/>
<path d="M1159.935,574.802L1153.287,574.802C1152.68,574.802 1152.188,575.332 1152.188,575.986L1152.188,579.334C1152.188,579.988 1152.68,580.518 1153.287,580.518L1159.935,580.518C1160.542,580.518 1161.034,579.988 1161.034,579.334L1161.034,575.986C1161.034,575.332 1160.542,574.802 1159.935,574.802Z" fill="#E6E6E6"/>
<path d="M1177.626,574.802L1170.979,574.802C1170.372,574.802 1169.88,575.332 1169.88,575.986L1169.88,579.334C1169.88,579.988 1170.372,580.518 1170.979,580.518L1177.626,580.518C1178.233,580.518 1178.725,579.988 1178.725,579.334L1178.725,575.986C1178.725,575.332 1178.233,574.802 1177.626,574.802Z" fill="#E6E6E6"/>
<path d="M1059.093,586.233L990.526,586.233C989.919,586.233 989.427,586.763 989.427,587.417L989.427,590.765C989.427,591.419 989.919,591.949 990.526,591.949L1059.093,591.949C1059.7,591.949 1060.193,591.419 1060.193,590.765L1060.193,587.417C1060.193,586.763 1059.7,586.233 1059.093,586.233Z" fill="#E6E6E6"/>
<path d="M1207.48,165.31L1207.48,348.438C1207.478,360.702 1202.954,372.462 1194.902,381.134C1186.85,389.806 1175.928,394.678 1164.54,394.68L951.705,394.68C943.326,394.682 935.129,392.046 928.124,387.096C921.118,382.144 915.61,375.096 912.276,366.818C911.16,364.082 910.307,361.23 909.732,358.306C914.256,360.192 919.067,361.154 923.918,361.144L1136.754,361.144C1147.248,361.128 1157.308,356.632 1164.728,348.64C1172.148,340.65 1176.324,329.816 1176.338,318.515L1176.338,135.387C1176.348,130.163 1175.454,124.983 1173.704,120.11C1176.418,120.73 1179.068,121.648 1181.608,122.85C1189.296,126.44 1195.84,132.372 1200.438,139.916C1205.034,147.46 1207.482,156.287 1207.48,165.31Z" fill="#F2F2F2"/>
<path d="M413.456,893.905L392.346,907.982L330.155,825.657L361.31,804.885L413.456,893.905Z" fill="#FFB6B6"/>
<path d="M431.681,923.31L414.699,931.473L404.511,915.665L403.905,936.662L358.867,958.314C356.708,959.352 354.298,959.619 351.988,959.077C349.678,958.536 347.589,957.213 346.027,955.302C344.464,953.392 343.51,950.993 343.303,948.457C343.096,945.921 343.647,943.38 344.876,941.205L369.753,897.165L362.518,879.711L401.356,863.956L431.681,923.31Z" fill="#2F2E41"/>
<path d="M354.32,878.069L389.973,840.861C363.484,770.467 361.368,726.837 324.646,641.702C411.772,660.893 474.063,659.725 546.119,642.52C570.513,636.786 633.453,584.43 628.279,557.584C628.037,556.329 627.751,555.086 627.421,553.854C619.687,525.456 625.133,481.967 608.393,450.453C577.419,437.878 530.363,480.341 493.553,506.225C475.803,518.707 488.797,535.715 475.539,540.174L424.72,557.939L300.035,536.253C294.009,535.27 287.862,535.58 281.948,537.167C276.035,538.753 270.471,541.585 265.578,545.498C260.685,549.411 256.559,554.328 253.439,559.966C250.319,565.604 248.266,571.851 247.398,578.347C247.187,579.805 247.034,581.271 246.939,582.745C252.676,616.944 258.657,650.245 265.095,681.857C267.174,692.061 263.665,711.625 271.48,711.915C279.296,712.207 276.148,732.439 278.582,742.331C293.567,803.229 303.043,832.701 354.32,878.069Z" fill="#2F2E41"/>
<path d="M286.079,1041.271L264.086,1028.909L298.882,929.644L331.341,947.888L286.079,1041.271Z" fill="#FFB6B6"/>
<path d="M282.413,967.164L317.678,993.31C360.9,925.996 388.963,836.046 409.863,735.4C491.237,697.172 562.443,653.436 612.061,594.772C620.211,584.937 624.483,572.072 623.975,558.902C623.467,545.732 618.217,533.293 609.339,524.22C608.471,523.344 607.573,522.504 606.645,521.701C585.153,503.265 537.421,513.873 506.911,498.464L452.41,579.697L458.675,598.617L439.715,608.557L423.707,616.949L405.382,626.556L345.31,658.048C339.864,660.98 335.01,665.044 331.03,670.005C327.049,674.967 324.02,680.728 322.118,686.956C320.215,693.185 319.476,699.758 319.944,706.296C320.412,712.832 322.077,719.206 324.844,725.046C325.451,726.37 326.109,727.662 326.82,728.926L304.51,848.618C304.51,848.618 310.649,869.456 300.989,867.506C291.329,865.556 296.593,891.09 296.593,891.09L282.413,967.164Z" fill="#2F2E41"/>
<path d="M272.76,1095.977L256.274,1086.712L261.455,1068.296L245.795,1080.822L202.07,1056.246C199.974,1055.069 198.282,1053.2 197.242,1050.914C196.202,1048.627 195.868,1046.043 196.289,1043.537C196.71,1041.032 197.863,1038.737 199.58,1036.987C201.298,1035.238 203.49,1034.125 205.836,1033.812L253.339,1027.468L261.552,1010.522L297.135,1033.525L272.76,1095.977Z" fill="#2F2E41"/>
<path d="M753.457,575.591L727.736,508.65L707.47,520.775L719.709,588.871C718.483,593.185 718.399,597.782 719.466,602.144C720.533,606.507 722.709,610.463 725.75,613.567C728.79,616.67 732.574,618.8 736.677,619.714C740.779,620.629 745.037,620.294 748.972,618.745C752.907,617.197 756.363,614.497 758.951,610.95C761.539,607.402 763.158,603.148 763.624,598.664C764.09,594.181 763.385,589.646 761.589,585.57C759.793,581.494 756.977,578.038 753.457,575.591Z" fill="#FFB6B6"/>
<path d="M321.834,46.246L360.972,105.17L378.159,88.416L351.911,25.077C352.197,20.576 351.312,16.078 349.355,12.09C347.397,8.101 344.446,4.779 340.831,2.498C337.217,0.217 333.083,-0.934 328.895,-0.824C324.707,-0.714 320.63,0.652 317.123,3.12C313.616,5.588 310.818,9.061 309.044,13.148C307.269,17.235 306.588,21.774 307.078,26.254C307.567,30.735 309.208,34.98 311.814,38.511C314.421,42.043 317.891,44.722 321.834,46.246Z" fill="#FFB6B6"/>
<path d="M498.571,419.713C473.186,462.115 566.186,554.503 615.148,532.899C623.722,529.117 653.212,516.621 633.054,499.299C612.896,481.977 635.392,501.363 635.922,490.087C636.278,482.547 630.858,466.009 636.514,466.719C642.168,467.427 645.414,449.813 633.098,445.327C628.816,443.679 625.058,440.751 622.266,436.887C619.474,433.021 617.764,428.379 617.336,423.503C616.158,377.027 630.774,328.501 630.774,328.501L690.44,492.751C690.44,492.751 690,521.167 697.608,512.485C705.218,503.801 704.664,531.905 704.664,531.905C704.664,531.905 715.978,540.409 709.472,545.141C702.966,549.873 716.476,564.423 716.476,564.423L748,561.997C748,561.997 747.508,536.779 742.124,531.201C736.742,525.625 739.386,516.849 739.386,516.849C739.386,516.849 728.288,505.733 734.768,492.643C741.246,479.551 687.59,245.396 687.59,245.396C685.442,234.131 680.44,223.725 673.142,215.328C665.844,206.932 656.532,200.872 646.236,197.819L612.186,187.724L606.14,161.891L558.198,161.891L549.848,178.865L473.288,171.59C473.288,171.59 397.534,97.365 401.232,91.569C404.931,85.773 393.188,72.204 393.188,72.204C393.188,72.204 383.159,68.669 388.818,66.782C394.477,64.895 383.78,60.532 383.78,60.532C383.78,60.532 373.873,57.728 378.546,54.037C383.218,50.346 362.952,47.921 362.952,47.921L336.658,71.024L341.973,80.728C341.973,80.728 338.733,93.942 342.961,89.118C347.19,84.294 347.986,98.294 347.986,98.294C347.986,98.294 350.146,113.624 362.952,118.243C375.759,122.861 385.47,166.741 385.47,166.741L493.554,263.737C477.092,284.085 481.01,305.363 495.593,327.127L498.571,419.713Z" fill="#FFB400"/>
<path d="M581.088,144.727C609.761,144.727 633.004,119.697 633.004,88.82C633.004,57.943 609.761,32.912 581.088,32.912C552.416,32.912 529.173,57.943 529.173,88.82C529.173,119.697 552.416,144.727 581.088,144.727Z" fill="#FFB6B6"/>
<path d="M626.407,72.17C625.078,72.582 605.578,75.323 597.134,77.02C588.848,78.693 587.407,67.32 580.629,69.454C580.633,69.405 580.625,69.355 580.606,69.309C579.556,63.283 577.761,57.436 575.27,51.922C576.174,57.203 576.303,62.603 575.653,67.927C575.649,68.065 575.634,68.203 575.608,68.339C575.585,68.581 575.54,68.8 575.518,69.042C568.357,65.647 563.809,68.678 558.855,69.745C553.315,70.933 548.992,73.552 552.099,93.994C558.472,136.042 591.618,151.052 585.876,178.865C584.75,184.37 581.913,191.257 578.355,192.978C577.304,186.952 575.509,181.105 573.018,175.592C573.922,180.872 574.051,186.273 573.401,191.596C567.884,185.17 563.899,162.716 545.344,144.917C540.773,140.552 517.873,114.654 515.126,108.544C515.969,113.429 516.376,118.391 516.342,123.36C516.347,126.685 516.136,130.008 515.711,133.302C515.711,133.514 515.688,133.725 515.644,133.932C515.621,134.32 515.554,134.66 515.509,135.023C515.464,135.436 515.396,135.824 515.329,136.236C507.83,135.072 501.187,133.665 498.058,130.368C482.836,114.412 501.413,83.325 511.568,55.196C526.092,14.918 568.267,9.559 572.365,9.123C590.424,7.159 620.935,11.33 630.911,33.372C637.891,48.818 633.432,69.988 626.407,72.17Z" fill="#2F2E41"/>
<path d="M516.938,81.262L554.545,18.262C545.532,12.628 535.269,9.729 524.849,9.873C519.655,9.99 514.543,11.283 509.845,13.669C505.147,16.056 500.968,19.481 497.582,23.723C489.901,34.003 488.584,48.534 491.461,61.359C492.455,65.788 511.38,50.203 506.877,57.478C503.18,63.174 497.134,87.114 495.618,93.852C493.178,104.695 486.468,115.826 492.445,124.94C499.513,135.717 512.125,141.074 524.367,141.618C536.609,142.162 548.658,138.509 560.292,134.371L516.938,81.262Z" fill="#2F2E41"/>
<path d="M531.388,78.777C530.845,78.776 530.321,78.564 529.911,78.18C529.502,77.796 529.235,77.265 529.16,76.686C529.085,76.107 529.208,75.518 529.504,75.028C529.8,74.538 530.251,74.18 530.774,74.02C531.364,72.97 531.122,68.555 530.927,64.988C530.195,51.593 528.969,29.175 549.18,14.041C549.67,13.674 550.276,13.532 550.863,13.646C551.451,13.759 551.973,14.12 552.314,14.648C552.654,15.175 552.787,15.828 552.681,16.46C552.576,17.093 552.241,17.655 551.751,18.022C533.614,31.604 534.702,51.523 535.423,64.702C535.835,72.238 536.133,77.68 531.888,78.717C531.724,78.757 531.556,78.777 531.388,78.777Z" fill="#FFB400"/>
<path d="M-0.634,1095.117C-0.636,1095.88 -0.356,1096.613 0.143,1097.154C0.643,1097.695 1.321,1098 2.03,1098.003L1612.698,1098.003C1613.408,1098.003 1614.09,1097.699 1614.592,1097.158C1615.094,1096.616 1615.378,1095.882 1615.378,1095.117C1615.378,1094.352 1615.094,1093.618 1614.592,1093.077C1614.09,1092.536 1613.408,1092.231 1612.698,1092.231L2.046,1092.231C1.695,1092.23 1.347,1092.304 1.023,1092.447C0.698,1092.591 0.403,1092.802 0.154,1093.068C-0.094,1093.335 -0.292,1093.651 -0.427,1094C-0.563,1094.348 -0.633,1094.722 -0.634,1095.1L-0.634,1095.117Z" fill="#CCCCCC"/>
<path d="M995.842,229.186L961.769,229.186C960.865,229.186 959.998,228.799 959.359,228.111C958.72,227.423 958.361,226.49 958.361,225.517C958.361,224.543 958.72,223.61 959.359,222.922C959.998,222.234 960.865,221.847 961.769,221.847L995.842,221.847C996.746,221.847 997.613,222.234 998.252,222.922C998.891,223.61 999.25,224.543 999.25,225.517C999.25,226.49 998.891,227.423 998.252,228.111C997.613,228.799 996.746,229.186 995.842,229.186Z" fill="#FFB400"/>
<path d="M1057.175,229.186L1023.101,229.186C1022.654,229.186 1022.211,229.091 1021.797,228.907C1021.384,228.722 1021.008,228.452 1020.692,228.111C1020.375,227.77 1020.124,227.366 1019.953,226.921C1019.782,226.476 1019.694,225.998 1019.694,225.517C1019.694,225.035 1019.782,224.557 1019.953,224.112C1020.124,223.667 1020.375,223.263 1020.692,222.922C1021.008,222.581 1021.384,222.311 1021.797,222.126C1022.211,221.942 1022.654,221.847 1023.101,221.847L1057.175,221.847C1057.622,221.847 1058.065,221.942 1058.479,222.126C1058.892,222.311 1059.268,222.581 1059.584,222.922C1059.901,223.263 1060.151,223.667 1060.323,224.112C1060.494,224.557 1060.582,225.035 1060.582,225.517C1060.582,225.998 1060.494,226.476 1060.323,226.921C1060.151,227.366 1059.901,227.77 1059.584,228.111C1059.268,228.452 1058.892,228.722 1058.479,228.907C1058.065,229.091 1057.622,229.186 1057.175,229.186Z" fill="#FFB400"/>
<path d="M1087.841,258.541L1053.767,258.541C1053.32,258.541 1052.877,258.446 1052.463,258.262C1052.05,258.077 1051.674,257.807 1051.358,257.466C1051.042,257.125 1050.791,256.721 1050.619,256.276C1050.448,255.831 1050.36,255.353 1050.36,254.872C1050.36,254.39 1050.448,253.912 1050.619,253.467C1050.791,253.022 1051.042,252.618 1051.358,252.277C1051.674,251.936 1052.05,251.666 1052.463,251.481C1052.877,251.297 1053.32,251.202 1053.767,251.202L1087.841,251.202C1088.289,251.202 1088.732,251.297 1089.145,251.481C1089.558,251.666 1089.934,251.936 1090.25,252.277C1090.567,252.618 1090.818,253.022 1090.989,253.467C1091.16,253.912 1091.248,254.39 1091.248,254.872C1091.248,255.353 1091.16,255.831 1090.989,256.276C1090.818,256.721 1090.567,257.125 1090.25,257.466C1089.934,257.807 1089.558,258.077 1089.145,258.262C1088.732,258.446 1088.289,258.541 1087.841,258.541Z" fill="#FFB400"/>
<path d="M1026.697,258.541L961.769,258.541C960.865,258.541 959.998,258.154 959.359,257.466C958.72,256.778 958.361,255.845 958.361,254.872C958.361,253.898 958.72,252.965 959.359,252.277C959.998,251.589 960.865,251.202 961.769,251.202L1026.697,251.202C1027.6,251.202 1028.467,251.589 1029.106,252.277C1029.745,252.965 1030.104,253.898 1030.104,254.872C1030.104,255.845 1029.745,256.778 1029.106,257.466C1028.467,258.154 1027.6,258.541 1026.697,258.541Z" fill="#FFB400"/>
<path d="M1149.362,229.186L1084.434,229.186C1083.53,229.186 1082.663,228.799 1082.024,228.111C1081.385,227.423 1081.026,226.49 1081.026,225.517C1081.026,224.543 1081.385,223.61 1082.024,222.922C1082.663,222.234 1083.53,221.847 1084.434,221.847L1149.362,221.847C1149.809,221.847 1150.252,221.942 1150.665,222.126C1151.079,222.311 1151.455,222.581 1151.771,222.922C1152.087,223.263 1152.338,223.667 1152.51,224.112C1152.681,224.557 1152.769,225.035 1152.769,225.517C1152.769,225.998 1152.681,226.476 1152.51,226.921C1152.338,227.366 1152.087,227.77 1151.771,228.111C1151.455,228.452 1151.079,228.722 1150.665,228.907C1150.252,229.091 1149.809,229.186 1149.362,229.186Z" fill="#FFB400"/>
<path d="M1019.17,173.598L954.242,173.598C953.794,173.599 953.35,173.505 952.935,173.321C952.521,173.138 952.144,172.867 951.827,172.527C951.51,172.186 951.258,171.781 951.086,171.335C950.914,170.889 950.826,170.411 950.826,169.929C950.826,169.446 950.914,168.968 951.086,168.522C951.258,168.076 951.51,167.672 951.827,167.331C952.144,166.99 952.521,166.72 952.935,166.536C953.35,166.352 953.794,166.258 954.242,166.259L1019.17,166.259C1020.074,166.259 1020.94,166.646 1021.579,167.334C1022.218,168.022 1022.577,168.955 1022.577,169.929C1022.577,170.902 1022.218,171.835 1021.579,172.523C1020.94,173.211 1020.074,173.598 1019.17,173.598Z" fill="#FFB400"/>
<path d="M1024.508,195.036C1023.872,195.036 1023.252,194.822 1022.734,194.424C1022.217,194.027 1021.827,193.464 1021.621,192.817C1021.414,192.169 1021.401,191.467 1021.583,190.811C1021.764,190.155 1022.132,189.576 1022.634,189.155L1039.259,175.239C1039.928,174.68 1040.48,173.977 1040.883,173.176C1041.286,172.374 1041.53,171.492 1041.599,170.583C1041.669,169.675 1041.562,168.762 1041.286,167.9C1041.011,167.039 1040.572,166.248 1039.998,165.579L1026.04,149.306C1025.768,148.989 1025.557,148.618 1025.418,148.213C1025.28,147.808 1025.216,147.378 1025.232,146.947C1025.248,146.516 1025.342,146.092 1025.51,145.7C1025.678,145.308 1025.916,144.956 1026.21,144.663C1026.504,144.37 1026.849,144.142 1027.225,143.993C1027.601,143.844 1028.001,143.776 1028.401,143.793C1028.802,143.81 1029.195,143.911 1029.559,144.092C1029.923,144.273 1030.25,144.529 1030.522,144.846L1051.25,169.009C1051.537,169.344 1051.756,169.738 1051.894,170.169C1052.031,170.599 1052.085,171.055 1052.05,171.509C1052.015,171.962 1051.894,172.403 1051.693,172.803C1051.492,173.204 1051.215,173.555 1050.882,173.834L1026.38,194.344C1025.845,194.793 1025.186,195.036 1024.508,195.036Z" fill="#FFB400"/>
<path d="M950.957,195.036C951.593,195.036 952.213,194.822 952.731,194.424C953.248,194.027 953.638,193.464 953.844,192.817C954.051,192.169 954.064,191.467 953.883,190.811C953.701,190.155 953.333,189.576 952.831,189.155L936.206,175.239C935.538,174.68 934.985,173.977 934.582,173.176C934.179,172.374 933.935,171.492 933.866,170.583C933.796,169.675 933.903,168.762 934.179,167.9C934.454,167.039 934.893,166.248 935.467,165.579L949.425,149.306C949.697,148.989 949.908,148.618 950.047,148.213C950.186,147.808 950.249,147.378 950.233,146.947C950.217,146.516 950.123,146.092 949.955,145.7C949.787,145.308 949.549,144.956 949.255,144.663C948.961,144.37 948.616,144.142 948.24,143.993C947.864,143.844 947.464,143.776 947.064,143.793C946.664,143.81 946.27,143.911 945.906,144.092C945.542,144.273 945.215,144.529 944.943,144.846L924.215,169.009C923.929,169.344 923.709,169.738 923.572,170.169C923.434,170.599 923.381,171.055 923.415,171.509C923.45,171.962 923.571,172.403 923.772,172.803C923.974,173.204 924.25,173.555 924.583,173.834L949.085,194.344C949.62,194.793 950.279,195.036 950.957,195.036Z" fill="#FFB400"/>
<path d="M1052.735,321.468L987.807,321.468C986.903,321.468 986.037,321.081 985.398,320.393C984.759,319.705 984.4,318.771 984.4,317.798C984.4,316.825 984.759,315.892 985.398,315.204C986.037,314.515 986.903,314.129 987.807,314.129L1052.735,314.129C1053.639,314.129 1054.505,314.515 1055.144,315.204C1055.783,315.892 1056.142,316.825 1056.142,317.798C1056.142,318.771 1055.783,319.705 1055.144,320.393C1054.505,321.081 1053.639,321.468 1052.735,321.468Z" fill="#FFB400"/>
<path d="M1064.176,339.62C1063.54,339.62 1062.92,339.406 1062.402,339.008C1061.884,338.611 1061.495,338.048 1061.288,337.4C1061.082,336.753 1061.068,336.051 1061.25,335.395C1061.432,334.739 1061.8,334.16 1062.302,333.739L1078.927,319.823C1079.595,319.263 1080.148,318.561 1080.551,317.76C1080.953,316.958 1081.197,316.075 1081.267,315.167C1081.336,314.259 1081.23,313.345 1080.954,312.484C1080.678,311.622 1080.24,310.832 1079.665,310.163L1065.708,293.89C1065.436,293.573 1065.224,293.202 1065.086,292.797C1064.947,292.392 1064.884,291.962 1064.9,291.531C1064.915,291.099 1065.01,290.676 1065.178,290.284C1065.345,289.892 1065.583,289.54 1065.878,289.247C1066.172,288.954 1066.517,288.726 1066.893,288.577C1067.269,288.428 1067.668,288.36 1068.069,288.377C1068.469,288.394 1068.863,288.495 1069.226,288.676C1069.59,288.857 1069.917,289.113 1070.189,289.43L1090.917,313.593C1091.204,313.928 1091.423,314.322 1091.561,314.753C1091.699,315.183 1091.752,315.639 1091.717,316.093C1091.683,316.546 1091.561,316.987 1091.36,317.387C1091.159,317.788 1090.883,318.139 1090.549,318.418L1066.047,338.928C1065.513,339.377 1064.854,339.62 1064.176,339.62Z" fill="#FFB400"/>
<path d="M950.957,339.62C951.593,339.62 952.213,339.406 952.731,339.008C953.248,338.611 953.638,338.048 953.844,337.4C954.051,336.753 954.064,336.051 953.883,335.395C953.701,334.739 953.333,334.16 952.831,333.739L936.206,319.823C935.538,319.263 934.985,318.561 934.582,317.76C934.179,316.958 933.935,316.075 933.866,315.167C933.796,314.259 933.903,313.345 934.179,312.484C934.454,311.622 934.893,310.832 935.467,310.163L949.425,293.89C949.974,293.25 950.265,292.401 950.233,291.531C950.201,290.66 949.849,289.838 949.255,289.247C948.661,288.655 947.873,288.342 947.064,288.377C946.255,288.411 945.493,288.79 944.943,289.43L924.215,313.593C923.929,313.928 923.709,314.322 923.572,314.753C923.434,315.183 923.381,315.639 923.415,316.093C923.45,316.546 923.571,316.987 923.772,317.387C923.974,317.788 924.25,318.139 924.583,318.418L949.085,338.928C949.62,339.377 950.279,339.62 950.957,339.62Z" fill="#FFB400"/>
<path d="M956.751,329.339L970.399,295.717C970.764,294.83 971.44,294.134 972.28,293.782C973.119,293.431 974.054,293.451 974.88,293.84C975.706,294.229 976.355,294.954 976.685,295.856C977.015,296.759 977,297.766 976.643,298.657L962.995,332.278C962.817,332.722 962.56,333.124 962.238,333.46C961.915,333.796 961.534,334.061 961.117,334.238C960.699,334.415 960.253,334.502 959.804,334.493C959.356,334.485 958.913,334.38 958.502,334.187C958.09,333.993 957.719,333.714 957.408,333.365C957.097,333.016 956.854,332.605 956.691,332.155C956.528,331.704 956.45,331.223 956.46,330.74C956.47,330.257 956.569,329.781 956.751,329.339Z" fill="#FFB400"/>
</svg>
