<svg width="32" height="28" viewBox="0 0 32 28" fill="none" xmlns="http://www.w3.org/2000/svg" xmlns:xlink="http://www.w3.org/1999/xlink">
<path d="M1.701,-0.145L28.897,-0.145C29.298,-0.145 29.682,0.015 29.966,0.298C30.249,0.581 30.408,0.966 30.408,1.367L30.408,25.549C30.408,25.949 30.249,26.334 29.966,26.617C29.682,26.901 29.298,27.06 28.897,27.06L1.701,27.06C1.3,27.06 0.915,26.901 0.632,26.617C0.349,26.334 0.19,25.949 0.19,25.549L0.19,1.367C0.19,0.966 0.349,0.581 0.632,0.298C0.915,0.015 1.3,-0.145 1.701,-0.145L1.701,-0.145ZM15.39,12.979L5.701,4.749L3.745,7.052L15.409,16.959L26.864,7.045L24.887,4.758L15.391,12.979L15.39,12.979Z" fill="#2B2B2B"/>
</svg>
