<svg width="42" height="42" viewBox="0 0 42 42" fill="none" xmlns="http://www.w3.org/2000/svg" xmlns:xlink="http://www.w3.org/1999/xlink">
<path d="M21,-0.452C9.403,-0.452 0,8.951 0,20.548C0,32.145 9.403,41.548 21,41.548C32.597,41.548 42,32.145 42,20.548C42,8.951 32.597,-0.452 21,-0.452ZM21,37.986C11.372,37.986 3.563,30.177 3.563,20.548C3.563,10.92 11.372,3.111 21,3.111C30.628,3.111 38.438,10.92 38.438,20.548C38.438,30.177 30.628,37.986 21,37.986ZM21.262,13.016C23.747,13.016 25.434,14.6 25.622,16.925C25.636,17.122 25.8,17.272 25.997,17.272L28.655,17.272C28.777,17.272 28.875,17.173 28.875,17.051C28.875,12.987 25.669,10.142 21.248,10.142C16.097,10.142 13.125,13.62 13.125,19.367L13.125,21.819C13.125,27.523 16.097,30.955 21.248,30.955C25.655,30.955 28.875,28.198 28.875,24.327C28.875,24.205 28.777,24.106 28.655,24.106L25.992,24.106C25.795,24.106 25.636,24.256 25.617,24.448C25.42,26.609 23.737,28.095 21.258,28.095C18.197,28.095 16.472,25.85 16.472,21.833L16.472,19.367C16.477,15.289 18.206,13.016 21.262,13.016Z" fill="#767676"/>
</svg>
