<svg width="30" height="32" viewBox="0 0 30 32" fill="none" xmlns="http://www.w3.org/2000/svg" xmlns:xlink="http://www.w3.org/1999/xlink">
<path d="M-0.418,4.873L10.159,0.349L19.224,4.873L28.748,0.8C28.862,0.751 28.988,0.731 29.112,0.742C29.237,0.753 29.357,0.795 29.461,0.864C29.566,0.933 29.651,1.026 29.711,1.136C29.77,1.246 29.801,1.369 29.801,1.494L29.801,25.984L19.224,30.508L10.159,25.984L0.635,30.057C0.52,30.106 0.395,30.126 0.27,30.115C0.146,30.104 0.026,30.062 -0.079,29.994C-0.183,29.925 -0.269,29.831 -0.328,29.721C-0.387,29.611 -0.418,29.488 -0.418,29.364L-0.418,4.873ZM19.224,27.136L19.224,8.154L19.126,8.197L10.159,3.721L10.159,22.703L10.257,22.661L19.224,27.136Z" fill="#2B2B2B"/>
</svg>
