<svg width="42" height="44" viewBox="0 0 42 44" fill="none" xmlns="http://www.w3.org/2000/svg" xmlns:xlink="http://www.w3.org/1999/xlink">
<path d="M21,0.999C9.403,0.999 0,10.402 0,21.999C0,33.595 9.403,42.999 21,42.999C32.597,42.999 42,33.595 42,21.999C42,10.402 32.597,0.999 21,0.999ZM21,39.436C11.372,39.436 3.563,31.627 3.563,21.999C3.563,12.37 11.372,4.561 21,4.561C30.628,4.561 38.438,12.37 38.438,21.999C38.438,31.627 30.628,39.436 21,39.436ZM21.262,14.466C23.747,14.466 25.434,16.05 25.622,18.375C25.636,18.572 25.8,18.722 25.997,18.722L28.655,18.722C28.777,18.722 28.875,18.624 28.875,18.502C28.875,14.438 25.669,11.592 21.248,11.592C16.097,11.592 13.125,15.07 13.125,20.817L13.125,23.269C13.125,28.974 16.097,32.405 21.248,32.405C25.655,32.405 28.875,29.649 28.875,25.777C28.875,25.655 28.777,25.556 28.655,25.556L25.992,25.556C25.795,25.556 25.636,25.706 25.617,25.899C25.42,28.06 23.737,29.545 21.258,29.545C18.197,29.545 16.472,27.3 16.472,23.283L16.472,20.817C16.477,16.739 18.206,14.466 21.262,14.466Z" fill="#767676"/>
</svg>
