<svg width="42" height="44" viewBox="0 0 42 44" fill="none" xmlns="http://www.w3.org/2000/svg" xmlns:xlink="http://www.w3.org/1999/xlink">
<path d="M21,0.787C9.403,0.787 0,10.19 0,21.787C0,33.383 9.403,42.787 21,42.787C32.597,42.787 42,33.383 42,21.787C42,10.19 32.597,0.787 21,0.787ZM21,39.224C11.372,39.224 3.563,31.415 3.563,21.787C3.563,12.159 11.372,4.349 21,4.349C30.628,4.349 38.438,12.159 38.438,21.787C38.438,31.415 30.628,39.224 21,39.224ZM21.262,14.254C23.747,14.254 25.434,15.838 25.622,18.163C25.636,18.36 25.8,18.51 25.997,18.51L28.655,18.51C28.777,18.51 28.875,18.412 28.875,18.29C28.875,14.226 25.669,11.38 21.248,11.38C16.097,11.38 13.125,14.859 13.125,20.605L13.125,23.057C13.125,28.762 16.097,32.193 21.248,32.193C25.655,32.193 28.875,29.437 28.875,25.565C28.875,25.443 28.777,25.344 28.655,25.344L25.992,25.344C25.795,25.344 25.636,25.494 25.617,25.687C25.42,27.848 23.737,29.333 21.258,29.333C18.197,29.333 16.472,27.088 16.472,23.071L16.472,20.605C16.477,16.527 18.206,14.254 21.262,14.254Z" fill="#767676"/>
</svg>
