<svg width="22" height="30" viewBox="0 0 22 30" fill="none" xmlns="http://www.w3.org/2000/svg" xmlns:xlink="http://www.w3.org/1999/xlink">
<path d="M1.626,-0.825L19.757,-0.825C20.158,-0.825 20.542,-0.666 20.825,-0.383C21.109,-0.1 21.268,0.283 21.268,0.683L21.268,27.826C21.268,28.226 21.109,28.609 20.825,28.892C20.542,29.175 20.158,29.334 19.757,29.334L1.626,29.334C1.225,29.334 0.841,29.175 0.557,28.892C0.274,28.609 0.115,28.226 0.115,27.826L0.115,0.683C0.115,0.283 0.274,-0.1 0.557,-0.383C0.841,-0.666 1.225,-0.825 1.626,-0.825ZM10.691,21.794C10.291,21.794 9.906,21.953 9.623,22.236C9.34,22.519 9.18,22.902 9.18,23.302C9.18,23.702 9.34,24.085 9.623,24.368C9.906,24.651 10.291,24.81 10.691,24.81C11.092,24.81 11.476,24.651 11.76,24.368C12.043,24.085 12.202,23.702 12.202,23.302C12.202,22.902 12.043,22.519 11.76,22.236C11.476,21.953 11.092,21.794 10.691,21.794Z" fill="#2B2B2B"/>
</svg>
