<svg width="32" height="32" viewBox="0 0 32 32" fill="none" xmlns="http://www.w3.org/2000/svg" xmlns:xlink="http://www.w3.org/1999/xlink">
<path d="M0.19,5.423L10.766,0.889L19.832,5.423L29.355,1.341C29.47,1.292 29.595,1.272 29.72,1.283C29.845,1.294 29.965,1.336 30.069,1.405C30.173,1.474 30.259,1.568 30.318,1.678C30.377,1.788 30.408,1.911 30.408,2.036L30.408,26.582L19.832,31.116L10.766,26.582L1.243,30.665C1.128,30.714 1.002,30.734 0.878,30.723C0.753,30.712 0.633,30.67 0.529,30.601C0.425,30.532 0.339,30.438 0.28,30.328C0.22,30.218 0.189,30.094 0.19,29.969L0.19,5.423ZM19.832,27.737L19.832,8.712L19.733,8.754L10.766,4.269L10.766,23.294L10.864,23.251L19.832,27.737Z" fill="#2B2B2B"/>
</svg>
